SplineFontDB: 3.2
FontName: Mikhak-Bold
FullName: Mikhak Bold
FamilyName: Mikhak Bold
Weight: Bold
Copyright: Copyright (c) 2019, Amin Abedi (www.fontamin.com|aminabedi68@gmail.com),\nwith Reserved Font Name Mikhak.\n\nThis Font Software is licensed under the SIL Open Font License, Version 1.1.\nThis license is available with a FAQ at: http://scripts.sil.org/OFL
Version: 2.2
ItalicAngle: 0
UnderlinePosition: -450
UnderlineWidth: 100
Ascent: 1638
Descent: 410
InvalidEm: 0
sfntRevision: 0x00023cac
UFOAscent: 1638
UFODescent: -410
LayerCount: 2
Layer: 0 0 "Back" 1
Layer: 1 0 "public.default" 0
StyleMap: 0x0000
FSType: 0
OS2Version: 0
OS2_WeightWidthSlopeOnly: 0
OS2_UseTypoMetrics: 0
CreationTime: 1569500515
ModificationTime: 1587466207
PfmFamily: 16
TTFWeight: 700
TTFWidth: 5
LineGap: 0
VLineGap: 0
OS2TypoAscent: 2200
OS2TypoAOffset: 0
OS2TypoDescent: -1200
OS2TypoDOffset: 0
OS2TypoLinegap: 0
OS2WinAscent: 2200
OS2WinAOffset: 0
OS2WinDescent: 1200
OS2WinDOffset: 0
HheadAscent: 2200
HheadAOffset: 0
HheadDescent: -1200
HheadDOffset: 0
OS2SubXSize: 1277
OS2SubYSize: 1185
OS2SubXOff: 0
OS2SubYOff: 256
OS2SupXSize: 1277
OS2SupYSize: 1185
OS2SupXOff: 0
OS2SupYOff: 870
OS2StrikeYSize: 91
OS2StrikeYPos: 766
OS2CapHeight: 1400
OS2XHeight: 1012
OS2Vendor: 'AA68'
Lookup: 4 1 0 "'ccmp' Glyph Composition/Decomposition in Arabic lookup 0" { "'ccmp' Glyph Composition/Decomposition in Arabic lookup 0 subtable 0"  } ['ccmp' ('arab' <'FAR ' 'dflt' > ) ]
Lookup: 1 9 0 "Single Substitution 1" { "Single Substitution 1 subtable"  } []
Lookup: 2 9 0 "Multiple Substitution 2" { "Multiple Substitution 2 subtable"  } []
Lookup: 2 9 0 "Multiple Substitution 3" { "Multiple Substitution 3 subtable"  } []
Lookup: 1 9 0 "'fina' Terminal Forms in Arabic lookup 4" { "'fina' Terminal Forms in Arabic lookup 4 subtable"  } ['fina' ('arab' <'FAR ' 'dflt' > ) ]
Lookup: 1 9 0 "'medi' Medial Forms in Arabic lookup 5" { "'medi' Medial Forms in Arabic lookup 5 subtable"  } ['medi' ('arab' <'FAR ' 'dflt' > ) ]

StartChar: A
Encoding: 65 65 0
Width: 1416
GlyphClass: 2
Flags: HW
LayerCount: 2
Fore
SplineSet
110 -80 m 256
 49 -53 21 21 48 82 c 258
 626 1366 l 258
 655 1430 735 1457 797 1423 c 256
 822 1409 843 1385 852 1361 c 258
 1370 45 l 258
 1394 -17 1363 -90 1301 -114 c 256
 1239 -138 1166 -107 1142 -45 c 258
 730 1001 l 257
 272 -18 l 258
 245 -79 171 -107 110 -80 c 256
1210 328 m 256
 1204 262 1144 212 1077 218 c 258
 327 286 l 258
 261 292 210 351 216 418 c 256
 222 485 283 536 349 530 c 258
 1099 462 l 258
 1166 456 1216 394 1210 328 c 256
EndSplineSet
EndChar

StartChar: AE
Encoding: 198 198 1
Width: 1908
GlyphClass: 2
Flags: HW
LayerCount: 2
Fore
SplineSet
1023 1438 m 256
 1090 1440 1145 1385 1147 1318 c 256
 1148 1261 1149 1192 1149 1119 c 256
 1149 825 1147 465 1107 228 c 256
 1103 201 1102 189 1102 180 c 256
 1102 144 1175 126 1253 122 c 256
 1379 114 1477 109 1602 109 c 256
 1644 109 1683 109 1723 110 c 256
 1790 112 1847 58 1849 -9 c 256
 1851 -76 1796 -132 1729 -134 c 256
 1685 -135 1644 -135 1602 -135 c 256
 1471 -135 1367 -130 1239 -122 c 256
 1088 -113 855 -50 855 173 c 256
 855 198 858 218 862 240 c 256
 899 455 905 830 905 1119 c 256
 905 1190 904 1257 903 1314 c 256
 901 1381 956 1436 1023 1438 c 256
1867 1402 m 256
 1883 1337 1841 1271 1776 1255 c 256
 1599 1214 1415 1195 1224 1195 c 256
 1166 1195 794 1197 612 1200 c 257
 600 776 531 251 253 -79 c 256
 210 -130 132 -136 81 -93 c 256
 30 -50 24 28 67 79 c 256
 299 353 369 897 369 1325 c 256
 369 1389 426 1451 498 1447 c 256
 563 1444 1156 1439 1224 1439 c 256
 1399 1439 1565 1456 1720 1493 c 256
 1785 1509 1851 1467 1867 1402 c 256
266 682 m 256
 260 749 311 808 378 814 c 256
 547 828 919 833 1119 833 c 256
 1321 833 1521 828 1673 815 c 256
 1740 809 1791 750 1785 683 c 256
 1779 616 1720 565 1653 571 c 256
 1511 582 1317 589 1119 589 c 256
 925 589 549 582 398 570 c 256
 331 564 272 615 266 682 c 256
EndSplineSet
EndChar

StartChar: B
Encoding: 66 66 8
Width: 1138
GlyphClass: 2
Flags: HW
LayerCount: 2
Fore
SplineSet
120 699 m 256
 116 766 168 824 235 828 c 256
 305 832 459 846 536 846 c 256
 848 846 1101 703 1101 376 c 256
 1101 6 762 -107 501 -107 c 256
 385 -107 268 -91 166 -58 c 256
 102 -38 66 32 86 96 c 256
 106 160 176 196 240 176 c 256
 315 153 411 137 501 137 c 256
 726 137 855 212 855 376 c 256
 855 539 776 606 536 606 c 256
 475 606 315 588 249 584 c 256
 182 580 124 632 120 699 c 256
194 -63 m 256
 127 -58 76 1 81 68 c 256
 96 262 103 503 103 691 c 256
 103 925 93 1087 78 1270 c 256
 72 1337 123 1396 190 1402 c 256
 257 1408 316 1357 322 1290 c 256
 337 1105 347 946 347 706 c 256
 347 512 340 254 325 50 c 256
 320 -17 261 -68 194 -63 c 256
86 1236 m 256
 62 1298 94 1370 156 1394 c 256
 272 1439 404 1469 533 1469 c 256
 772 1469 1019 1319 1019 1028 c 256
 1019 594 345 594 247 589 c 256
 180 586 123 634 120 701 c 256
 117 768 169 824 236 828 c 256
 554 846 775 898 775 1055 c 256
 775 1162 686 1223 533 1223 c 256
 442 1223 334 1201 244 1166 c 256
 182 1142 110 1174 86 1236 c 256
EndSplineSet
EndChar

StartChar: C
Encoding: 67 67 9
Width: 1271
GlyphClass: 2
Flags: HW
LayerCount: 2
Fore
SplineSet
1188 1242 m 256
 1161 1181 1087 1153 1026 1180 c 256
 960 1209 888 1223 814 1223 c 256
 508 1223 283 978 283 662 c 256
 283 356 499 137 810 137 c 256
 894 137 979 157 1054 197 c 256
 1113 228 1188 205 1219 146 c 256
 1250 87 1227 12 1168 -19 c 256
 1057 -77 934 -107 810 -107 c 256
 369 -107 37 226 37 662 c 256
 37 1098 362 1469 814 1469 c 256
 920 1469 1026 1449 1126 1404 c 256
 1187 1377 1215 1303 1188 1242 c 256
EndSplineSet
EndChar

StartChar: D
Encoding: 68 68 11
Width: 1279
GlyphClass: 2
Flags: HW
LayerCount: 2
Fore
SplineSet
350 1219 m 257
 362 1082 367 968 367 811 c 256
 367 595 356 363 334 153 c 257
 372 143 412 137 452 137 c 256
 763 137 997 379 997 701 c 256
 997 1056 787 1223 406 1223 c 256
 387 1223 369 1222 350 1219 c 257
190 1445 m 256
 261 1461 334 1469 406 1469 c 256
 879 1469 1241 1206 1241 701 c 256
 1241 253 903 -107 452 -107 c 256
 350 -107 250 -88 156 -52 c 256
 102 -31 73 28 79 78 c 256
 107 297 123 569 123 811 c 256
 123 1006 115 1120 95 1312 c 256
 88 1376 138 1433 190 1445 c 256
EndSplineSet
EndChar

StartChar: E
Encoding: 69 69 12
Width: 1098
GlyphClass: 2
Flags: HW
LayerCount: 2
Fore
SplineSet
39 720 m 256
 31 786 79 848 145 856 c 256
 267 871 379 877 500 877 c 256
 627 877 751 869 874 854 c 256
 940 846 989 784 981 718 c 256
 973 652 911 604 845 612 c 256
 732 625 617 631 500 631 c 256
 385 631 285 627 175 614 c 256
 109 606 47 654 39 720 c 256
1057 1386 m 256
 1072 1321 1030 1255 965 1240 c 256
 815 1205 636 1193 472 1193 c 256
 433 1193 392 1194 354 1196 c 257
 361 1119 365 1052 365 960 c 256
 365 742 350 524 322 330 c 256
 320 316 319 308 319 295 c 256
 319 192 426 167 768 167 c 256
 821 167 872 167 920 168 c 256
 987 170 1043 115 1045 48 c 256
 1047 -19 991 -74 924 -76 c 256
 872 -77 821 -77 768 -77 c 256
 522 -77 75 -98 75 295 c 256
 75 317 76 340 80 366 c 256
 105 545 119 754 119 960 c 256
 119 1101 114 1178 97 1310 c 256
 91 1361 135 1453 225 1447 c 256
 308 1442 391 1439 472 1439 c 256
 624 1439 793 1451 911 1478 c 256
 976 1493 1042 1451 1057 1386 c 256
EndSplineSet
EndChar

StartChar: Eth
Encoding: 208 208 17
Width: 1341
GlyphClass: 2
Flags: HW
LayerCount: 2
Fore
SplineSet
-14 699 m 256
 -19 755 25 805 81 810 c 256
 305 828 507 824 667 810 c 256
 723 805 767 754 762 698 c 256
 757 642 706 598 650 603 c 256
 502 615 309 619 97 603 c 256
 41 598 -9 643 -14 699 c 256
EndSplineSet
Refer: 11 68 N 1 0 0 1 150 0 2
EndChar

StartChar: F
Encoding: 70 70 18
Width: 1092
GlyphClass: 2
Flags: HW
LayerCount: 2
Fore
SplineSet
39 706 m 256
 31 772 79 834 145 842 c 256
 259 856 373 863 489 863 c 256
 613 863 736 855 858 840 c 256
 924 832 972 770 964 704 c 256
 956 638 894 590 828 598 c 256
 715 611 601 619 489 619 c 256
 385 619 279 612 175 600 c 256
 109 592 47 640 39 706 c 256
1051 1365 m 256
 1066 1300 1024 1234 959 1219 c 256
 809 1184 630 1173 466 1173 c 256
 427 1173 387 1175 349 1176 c 257
 366 982 371 802 371 583 c 256
 371 373 360 171 339 -13 c 256
 331 -79 270 -130 204 -122 c 256
 138 -114 88 -53 96 13 c 256
 115 185 125 383 125 583 c 256
 125 851 120 1054 92 1289 c 256
 86 1339 130 1432 220 1426 c 256
 301 1421 384 1419 466 1419 c 256
 618 1419 787 1430 905 1457 c 256
 970 1472 1036 1430 1051 1365 c 256
EndSplineSet
EndChar

StartChar: G
Encoding: 71 71 19
Width: 1349
GlyphClass: 2
Flags: HW
LayerCount: 2
Fore
SplineSet
525 649 m 256
 525 716 581 771 648 771 c 258
 1184 771 l 258
 1252 771 1302 712 1306 658 c 256
 1309 617 1311 576 1311 537 c 256
 1311 199 1159 -107 716 -107 c 256
 343 -107 37 153 37 639 c 256
 37 1065 265 1469 763 1469 c 256
 887 1469 1010 1428 1110 1354 c 256
 1164 1314 1176 1237 1136 1183 c 256
 1096 1129 1018 1118 964 1158 c 256
 908 1200 835 1223 763 1223 c 256
 437 1223 283 991 283 639 c 256
 283 271 471 137 716 137 c 256
 1002 137 1062 270 1064 527 c 257
 648 527 l 258
 581 527 525 582 525 649 c 256
EndSplineSet
EndChar

StartChar: H
Encoding: 72 72 20
Width: 1319
GlyphClass: 2
Flags: HW
LayerCount: 2
Fore
SplineSet
1002 1438 m 256
 1069 1441 1126 1389 1129 1322 c 258
 1188 -16 l 258
 1191 -83 1139 -140 1072 -143 c 256
 1005 -146 947 -93 944 -26 c 258
 885 1310 l 258
 882 1377 935 1435 1002 1438 c 256
1241 648 m 256
 1238 581 1181 529 1114 532 c 256
 851 544 427 553 200 553 c 256
 133 553 78 609 78 676 c 256
 78 743 133 799 200 799 c 256
 433 799 857 788 1124 776 c 256
 1191 773 1244 715 1241 648 c 256
273 1438 m 256
 340 1437 395 1382 394 1315 c 256
 390 870 374 420 330 -12 c 256
 323 -78 262 -129 196 -122 c 256
 130 -115 79 -54 86 12 c 256
 128 432 146 876 150 1317 c 256
 151 1384 206 1439 273 1438 c 256
EndSplineSet
EndChar

StartChar: I
Encoding: 73 73 28
Width: 435
GlyphClass: 2
Flags: HW
LayerCount: 2
Fore
SplineSet
197 -122 m 256
 130 -120 76 -64 78 3 c 258
 113 1364 l 258
 115 1431 171 1485 238 1483 c 256
 305 1481 359 1425 357 1358 c 258
 322 -3 l 258
 320 -70 264 -124 197 -122 c 256
EndSplineSet
EndChar

StartChar: J
Encoding: 74 74 33
Width: 680
GlyphClass: 2
Flags: HW
LayerCount: 2
Fore
SplineSet
51 1317 m 256
 51 1384 106 1439 173 1439 c 258
 550 1439 l 258
 617 1439 673 1384 673 1317 c 256
 673 1250 617 1195 550 1195 c 258
 173 1195 l 258
 106 1195 51 1250 51 1317 c 256
394 1436 m 256
 460 1444 523 1397 531 1331 c 256
 577 985 597 671 597 300 c 256
 597 92 497 -107 233 -107 c 256
 206 -107 178 -106 150 -104 c 256
 84 -98 32 -39 38 28 c 256
 44 95 104 146 170 140 c 256
 190 138 212 137 233 137 c 256
 337 137 353 152 353 300 c 256
 353 661 333 963 289 1299 c 256
 281 1365 328 1428 394 1436 c 256
EndSplineSet
EndChar

StartChar: K
Encoding: 75 75 34
Width: 1217
GlyphClass: 2
Flags: HW
LayerCount: 2
Fore
SplineSet
197 -122 m 256
 130 -120 76 -64 78 3 c 258
 113 1363 l 258
 115 1430 171 1484 238 1482 c 256
 305 1480 359 1424 357 1357 c 258
 322 -3 l 258
 320 -70 264 -124 197 -122 c 256
1059 1460 m 256
 1113 1420 1125 1342 1085 1288 c 256
 898 1036 639 842 393 691 c 257
 595 474 875 263 1123 103 c 256
 1179 67 1196 -10 1160 -66 c 256
 1124 -122 1047 -139 991 -103 c 256
 688 92 338 357 107 643 c 256
 69 691 70 786 142 826 c 256
 413 980 700 1182 887 1434 c 256
 927 1488 1005 1500 1059 1460 c 256
EndSplineSet
EndChar

StartChar: L
Encoding: 76 76 35
Width: 1166
GlyphClass: 2
Flags: HW
LayerCount: 2
Fore
SplineSet
210 1438 m 256
 277 1443 335 1391 340 1324 c 256
 351 1154 357 990 357 830 c 256
 357 605 347 385 332 164 c 257
 1009 144 l 258
 1076 142 1130 86 1128 19 c 256
 1126 -48 1070 -102 1003 -100 c 258
 197 -77 l 258
 134 -75 72 -18 78 54 c 256
 98 316 111 571 111 830 c 256
 111 986 107 1144 96 1308 c 256
 91 1375 143 1433 210 1438 c 256
EndSplineSet
EndChar

StartChar: M
Encoding: 77 77 36
Width: 1599
GlyphClass: 2
Flags: HW
LayerCount: 2
Fore
SplineSet
177 -122 m 256
 111 -115 61 -53 68 13 c 258
 205 1313 l 258
 212 1383 281 1433 350 1420 c 256
 399 1411 436 1368 445 1333 c 256
 505 1112 642 817 737 642 c 256
 758 605 773 588 787 588 c 256
 801 588 814 600 833 632 c 256
 948 820 1076 1169 1110 1340 c 256
 1124 1409 1196 1454 1264 1434 c 256
 1320 1418 1350 1360 1352 1321 c 256
 1370 813 1425 481 1528 40 c 256
 1544 -25 1502 -91 1437 -107 c 256
 1372 -123 1306 -81 1290 -16 c 256
 1227 254 1182 485 1154 756 c 257
 1123 673 1076 571 1033 499 c 256
 981 411 914 307 787 307 c 256
 647 307 579 428 532 516 c 256
 490 592 436 701 396 801 c 257
 312 -13 l 258
 305 -79 243 -129 177 -122 c 256
EndSplineSet
EndChar

StartChar: N
Encoding: 78 78 37
Width: 1307
GlyphClass: 2
Flags: HW
LayerCount: 2
Fore
SplineSet
194 -122 m 256
 127 -119 75 -61 78 6 c 256
 100 450 117 867 123 1318 c 256
 124 1389 186 1444 256 1438 c 256
 291 1435 326 1412 342 1390 c 256
 571 1089 783 768 974 449 c 257
 985 1362 l 258
 986 1429 1041 1484 1108 1483 c 256
 1175 1482 1230 1427 1229 1360 c 258
 1214 2 l 258
 1213 -35 1194 -76 1160 -98 c 256
 1102 -137 1019 -117 985 -55 c 256
 798 281 589 623 360 948 c 257
 352 628 338 317 322 -6 c 256
 319 -73 261 -125 194 -122 c 256
EndSplineSet
EndChar

StartChar: O
Encoding: 79 79 39
Width: 1485
GlyphClass: 2
Flags: HW
LayerCount: 2
Fore
SplineSet
713 137 m 256
 988 137 1203 353 1203 684 c 256
 1203 992 1029 1223 799 1223 c 256
 513 1223 283 949 283 613 c 256
 283 317 465 137 713 137 c 256
713 -107 m 256
 321 -107 37 201 37 613 c 256
 37 1049 343 1469 799 1469 c 256
 1221 1469 1447 1064 1447 684 c 256
 1447 239 1136 -107 713 -107 c 256
EndSplineSet
EndChar

StartChar: OE
Encoding: 338 338 40
Width: 2327
GlyphClass: 2
Flags: HW
LayerCount: 2
Fore
SplineSet
1147 750 m 256
 1156 816 1220 862 1286 853 c 256
 1388 838 1546 827 1701 827 c 256
 1802 827 1901 831 1986 842 c 256
 2052 850 2115 802 2123 736 c 256
 2131 670 2084 608 2018 600 c 256
 1918 587 1810 581 1701 581 c 256
 1534 581 1368 594 1250 611 c 256
 1184 620 1138 684 1147 750 c 256
1199 132 m 256
 1214 197 1281 241 1346 226 c 256
 1511 189 1683 171 1849 171 c 256
 1953 171 2054 178 2149 192 c 256
 2215 202 2278 155 2288 89 c 256
 2298 23 2251 -40 2185 -50 c 256
 2078 -66 1965 -75 1849 -75 c 256
 1665 -75 1475 -55 1292 -14 c 256
 1227 1 1184 67 1199 132 c 256
696 137 m 256
 1056 137 1167 478 1167 1065 c 256
 1167 1149 1165 1238 1161 1324 c 256
 1157 1406 1235 1458 1299 1450 c 256
 1531 1419 1724 1395 1889 1395 c 256
 1974 1395 2050 1401 2121 1418 c 256
 2186 1433 2253 1390 2268 1325 c 256
 2283 1260 2240 1193 2175 1178 c 256
 2080 1157 1986 1149 1889 1149 c 256
 1741 1149 1585 1167 1410 1189 c 257
 1411 1149 1413 1106 1413 1065 c 256
 1413 506 1304 -107 696 -107 c 256
 314 -107 37 235 37 643 c 256
 37 1025 279 1469 699 1469 c 256
 883 1469 1025 1371 1112 1253 c 256
 1152 1199 1139 1122 1085 1082 c 256
 1031 1042 954 1055 914 1109 c 256
 863 1179 793 1223 699 1223 c 256
 483 1223 283 957 283 643 c 256
 283 337 478 137 696 137 c 256
EndSplineSet
EndChar

StartChar: Oslash
Encoding: 216 216 45
Width: 1494
GlyphClass: 2
Flags: HW
LayerCount: 2
Fore
SplineSet
96 -93 m 256
 66 -73 58 -30 77 -1 c 256
 431 529 884 1000 1326 1402 c 256
 1352 1426 1396 1424 1420 1398 c 256
 1444 1372 1442 1328 1416 1304 c 256
 978 908 534 446 188 -74 c 256
 168 -104 124 -112 96 -93 c 256
EndSplineSet
Refer: 39 79 N 1 0 0 1 0 0 2
EndChar

StartChar: P
Encoding: 80 80 47
Width: 1269
GlyphClass: 2
Flags: HW
LayerCount: 2
Fore
SplineSet
79 1075 m 256
 29 1119 24 1198 68 1248 c 256
 197 1395 434 1469 636 1469 c 256
 975 1469 1231 1195 1231 862 c 256
 1231 495 866 287 560 287 c 256
 478 287 333 293 232 333 c 256
 170 357 139 430 164 492 c 256
 189 554 260 585 322 561 c 256
 353 549 502 531 560 531 c 256
 786 531 987 687 987 862 c 256
 987 1067 835 1223 636 1223 c 256
 490 1223 309 1151 252 1086 c 256
 208 1036 129 1031 79 1075 c 256
356 1361 m 256
 423 1356 474 1297 469 1230 c 258
 380 -8 l 258
 375 -75 317 -127 250 -122 c 256
 183 -117 131 -59 136 8 c 258
 225 1248 l 258
 230 1315 289 1366 356 1361 c 256
EndSplineSet
EndChar

StartChar: Q
Encoding: 81 81 48
Width: 1485
GlyphClass: 2
Flags: HW
LayerCount: 2
Fore
SplineSet
812 538 m 256
 866 577 943 564 982 510 c 256
 1112 331 1225 201 1389 57 c 256
 1439 13 1444 -66 1400 -116 c 256
 1356 -166 1277 -171 1227 -127 c 256
 1049 29 920 179 784 368 c 256
 745 422 758 499 812 538 c 256
EndSplineSet
Refer: 39 79 N 1 0 0 1 0 0 2
EndChar

StartChar: R
Encoding: 82 82 49
Width: 1270
GlyphClass: 2
Flags: HW
LayerCount: 2
Fore
SplineSet
79 1075 m 256
 29 1119 24 1198 68 1248 c 256
 194 1392 418 1469 622 1469 c 256
 966 1469 1199 1188 1199 862 c 256
 1199 526 893 285 560 285 c 256
 446 285 326 313 211 376 c 256
 153 408 130 484 163 542 c 256
 196 600 271 622 329 590 c 256
 406 547 486 529 560 529 c 256
 785 529 955 692 955 862 c 256
 955 1074 816 1223 622 1223 c 256
 478 1223 312 1154 252 1086 c 256
 208 1036 129 1031 79 1075 c 256
164 544 m 256
 198 602 274 624 332 590 c 258
 1172 106 l 258
 1230 72 1250 -4 1216 -62 c 256
 1182 -120 1106 -140 1048 -106 c 258
 208 376 l 258
 150 410 130 486 164 544 c 256
360 1366 m 256
 427 1362 479 1304 475 1237 c 258
 404 -7 l 258
 400 -74 342 -126 275 -122 c 256
 208 -118 156 -60 160 7 c 258
 231 1251 l 258
 235 1318 293 1370 360 1366 c 256
EndSplineSet
EndChar

StartChar: S
Encoding: 83 83 50
Width: 1182
GlyphClass: 2
Flags: HW
LayerCount: 2
Fore
SplineSet
1068 1200 m 256
 1035 1142 959 1121 901 1154 c 256
 819 1200 721 1223 619 1223 c 256
 416 1223 287 1116 287 996 c 256
 287 904 384 855 618 784 c 256
 807 726 1145 647 1145 343 c 256
 1145 20 828 -107 578 -107 c 256
 403 -107 228 -70 101 1 c 256
 43 34 20 109 53 167 c 256
 86 225 162 248 220 215 c 256
 294 174 441 137 578 137 c 256
 782 137 899 228 899 322 c 256
 899 413 793 474 546 548 c 256
 361 604 43 684 43 996 c 256
 43 1314 352 1469 619 1469 c 256
 759 1469 899 1434 1021 1366 c 256
 1079 1333 1101 1258 1068 1200 c 256
EndSplineSet
EndChar

StartChar: T
Encoding: 84 84 51
Width: 1423
GlyphClass: 2
Flags: HW
LayerCount: 2
Fore
SplineSet
712 -119 m 256
 645 -121 588 -68 586 -1 c 256
 580 183 575 367 575 551 c 256
 575 805 582 1051 594 1301 c 256
 597 1368 655 1420 722 1417 c 256
 789 1414 841 1356 838 1289 c 256
 826 1043 821 801 821 551 c 256
 821 369 824 189 830 7 c 256
 832 -60 779 -117 712 -119 c 256
38 1318 m 256
 39 1385 95 1439 162 1438 c 258
 1265 1419 l 258
 1332 1418 1386 1362 1385 1295 c 256
 1384 1228 1328 1174 1261 1175 c 258
 158 1194 l 258
 91 1195 37 1251 38 1318 c 256
EndSplineSet
EndChar

StartChar: U
Encoding: 85 85 60
Width: 1310
GlyphClass: 2
Flags: HW
LayerCount: 2
Fore
SplineSet
300 1454 m 256
 365 1440 408 1373 394 1308 c 256
 353 1119 323 938 323 734 c 256
 323 358 396 137 631 137 c 256
 926 137 987 621 987 1095 c 256
 987 1180 984 1269 980 1356 c 256
 977 1423 1029 1480 1096 1483 c 256
 1163 1486 1220 1433 1224 1366 c 256
 1229 1279 1233 1188 1233 1095 c 256
 1233 715 1220 -107 631 -107 c 256
 148 -107 77 382 77 734 c 256
 77 964 111 1163 154 1360 c 256
 168 1425 235 1468 300 1454 c 256
EndSplineSet
EndChar

StartChar: V
Encoding: 86 86 65
Width: 1368
GlyphClass: 2
Flags: HW
LayerCount: 2
Fore
SplineSet
120 1432 m 256
 183 1454 254 1419 276 1356 c 258
 618 367 l 257
 1098 1369 l 258
 1127 1429 1201 1455 1261 1426 c 256
 1321 1397 1347 1323 1318 1263 c 258
 710 -8 l 258
 700 -30 676 -55 649 -67 c 256
 585 -95 507 -63 484 4 c 258
 44 1276 l 258
 22 1339 57 1410 120 1432 c 256
EndSplineSet
EndChar

StartChar: W
Encoding: 87 87 66
Width: 2006
GlyphClass: 2
Flags: HW
LayerCount: 2
Fore
SplineSet
125 1466 m 256
 189 1486 258 1448 278 1384 c 258
 572 406 l 257
 917 1226 l 258
 944 1290 1024 1321 1086 1288 c 256
 1115 1273 1137 1245 1146 1219 c 258
 1415 426 l 257
 1730 1356 l 258
 1752 1419 1823 1454 1886 1432 c 256
 1949 1410 1984 1339 1962 1276 c 258
 1531 5 l 258
 1521 -25 1495 -54 1463 -68 c 256
 1399 -96 1321 -62 1299 5 c 258
 1018 834 l 257
 666 -2 l 258
 655 -28 628 -57 597 -69 c 256
 532 -95 456 -58 436 10 c 258
 42 1314 l 258
 22 1378 61 1446 125 1466 c 256
EndSplineSet
EndChar

StartChar: X
Encoding: 88 88 67
Width: 1267
GlyphClass: 2
Flags: HW
LayerCount: 2
Fore
SplineSet
91 -101 m 256
 36 -64 22 14 59 69 c 258
 969 1407 l 258
 1006 1462 1084 1476 1139 1439 c 256
 1194 1402 1208 1324 1171 1269 c 258
 261 -69 l 258
 224 -124 146 -138 91 -101 c 256
132 1377 m 256
 186 1415 264 1402 303 1348 c 258
 1207 67 l 258
 1245 13 1232 -65 1178 -104 c 256
 1124 -143 1045 -129 1007 -75 c 258
 103 1206 l 258
 64 1260 78 1339 132 1377 c 256
EndSplineSet
EndChar

StartChar: Y
Encoding: 89 89 68
Width: 1267
GlyphClass: 2
Flags: HW
LayerCount: 2
Fore
SplineSet
89 1386 m 256
 143 1425 221 1412 260 1358 c 258
 623 847 l 257
 1006 1407 l 258
 1043 1462 1121 1476 1176 1439 c 256
 1231 1402 1245 1324 1208 1269 c 258
 726 564 l 258
 720 556 712 546 704 539 c 256
 650 494 566 504 526 562 c 258
 60 1216 l 258
 21 1270 35 1347 89 1386 c 256
638 -122 m 256
 571 -123 515 -69 514 -2 c 258
 503 631 l 258
 502 698 556 754 623 755 c 256
 690 756 746 702 747 635 c 258
 758 2 l 258
 759 -65 705 -121 638 -122 c 256
EndSplineSet
EndChar

StartChar: Z
Encoding: 90 90 70
Width: 1422
GlyphClass: 2
Flags: HW
LayerCount: 2
Fore
SplineSet
41 1240 m 256
 25 1304 66 1373 130 1389 c 256
 446 1468 911 1480 1192 1415 c 256
 1296 1392 1330 1277 1261 1208 c 256
 948 894 671 537 445 192 c 257
 710 215 976 227 1262 227 c 256
 1329 227 1385 171 1385 104 c 256
 1385 37 1329 -19 1262 -19 c 256
 894 -19 557 -37 219 -75 c 256
 113 -87 53 32 101 111 c 256
 322 474 596 853 918 1202 c 257
 696 1220 388 1201 190 1151 c 256
 126 1135 57 1176 41 1240 c 256
EndSplineSet
EndChar

StartChar: a
Encoding: 97 97 71
Width: 1269
GlyphClass: 2
Flags: HW
LayerCount: 2
Fore
SplineSet
521 137 m 256
 704 137 796 300 828 536 c 258
 892 1002 l 258
 901 1068 963 1116 1029 1107 c 256
 1095 1098 1143 1036 1134 970 c 258
 1070 502 l 258
 1034 248 904 -107 521 -107 c 256
 199 -107 37 161 37 419 c 256
 37 716 245 1123 650 1123 c 256
 768 1123 858 1080 912 1044 c 256
 967 1007 983 929 946 874 c 256
 909 819 831 803 776 840 c 256
 750 858 708 879 650 879 c 256
 441 879 283 638 283 419 c 256
 283 247 365 137 521 137 c 256
1029 1107 m 256
 1095 1098 1143 1036 1134 970 c 258
 1062 447 l 258
 1055 395 1051 347 1051 293 c 256
 1051 211 1060 167 1115 167 c 256
 1176 167 1232 112 1232 45 c 256
 1232 -22 1176 -77 1109 -77 c 256
 885 -77 807 127 807 293 c 256
 807 361 812 420 820 479 c 258
 892 1002 l 258
 901 1068 963 1116 1029 1107 c 256
EndSplineSet
EndChar

StartChar: acute
Encoding: 180 180 74
Width: 522
GlyphClass: 2
Flags: HW
LayerCount: 2
Fore
SplineSet
403 1533 m 256
 431 1511 436 1467 414 1440 c 256
 339 1346 276 1263 221 1142 c 256
 207 1110 165 1094 133 1108 c 256
 101 1122 86 1163 100 1196 c 256
 161 1331 235 1428 310 1522 c 256
 332 1550 376 1555 403 1533 c 256
EndSplineSet
EndChar

StartChar: ae
Encoding: 230 230 76
Width: 1885
GlyphClass: 2
Flags: HW
LayerCount: 2
Fore
SplineSet
529 -107 m 256
 228 -107 37 151 37 419 c 256
 37 709 235 1123 604 1123 c 256
 719 1123 830 1080 914 1006 c 256
 964 962 969 883 925 833 c 256
 881 783 802 778 752 822 c 256
 714 856 655 879 604 879 c 256
 449 879 283 645 283 419 c 256
 283 257 388 137 529 137 c 256
 719 137 810 308 846 497 c 256
 870 621 900 840 917 970 c 256
 925 1036 988 1084 1054 1076 c 256
 1120 1068 1167 1006 1159 940 c 256
 1142 806 1112 587 1086 451 c 256
 1046 244 911 -107 529 -107 c 256
1816 784 m 256
 1815 422 1339 337 1153 337 c 256
 1087 337 1029 343 962 351 c 256
 896 359 848 421 856 487 c 256
 864 553 926 601 992 593 c 256
 1054 585 1097 583 1153 583 c 256
 1349 583 1571 698 1571 784 c 256
 1571 825 1521 879 1457 879 c 256
 1264 879 1089 658 1089 419 c 256
 1089 217 1196 137 1372 137 c 256
 1474 137 1588 177 1656 238 c 256
 1706 283 1785 280 1830 230 c 256
 1875 180 1872 101 1822 56 c 256
 1698 -57 1528 -107 1372 -107 c 256
 1088 -107 845 79 845 419 c 256
 845 746 1078 1123 1457 1123 c 256
 1635 1123 1816 987 1816 784 c 256
EndSplineSet
EndChar

StartChar: ampersand
Encoding: 38 38 78
Width: 1374
GlyphClass: 2
Flags: HW
LayerCount: 2
Fore
SplineSet
659 1483 m 256
 853 1483 1075 1351 1075 1095 c 256
 1075 787 810 679 646 612 c 256
 456 535 366 452 366 330 c 256
 366 189 481 137 639 137 c 256
 805 137 966 220 1007 298 c 256
 1038 357 1113 379 1172 348 c 256
 1231 317 1254 241 1223 182 c 256
 1116 -20 859 -107 639 -107 c 256
 391 -107 120 40 120 349 c 256
 120 648 383 770 550 838 c 256
 740 916 831 967 831 1095 c 256
 831 1181 761 1239 659 1239 c 256
 555 1239 469 1177 469 1063 c 256
 469 794 935 349 1215 126 c 256
 1267 85 1276 6 1235 -46 c 256
 1194 -98 1115 -107 1063 -66 c 256
 793 147 225 612 225 1063 c 256
 225 1339 455 1483 659 1483 c 256
EndSplineSet
EndChar

StartChar: asciicircum
Encoding: 94 94 80
Width: 718
GlyphClass: 2
Flags: HW
LayerCount: 2
Fore
SplineSet
145 1113 m 256
 115 1131 106 1174 124 1204 c 258
 290 1473 l 258
 310 1506 376 1507 398 1479 c 258
 590 1238 l 258
 612 1211 607 1167 579 1145 c 256
 552 1123 508 1128 486 1156 c 258
 352 1323 l 257
 236 1134 l 258
 218 1104 175 1095 145 1113 c 256
EndSplineSet
EndChar

StartChar: asciitilde
Encoding: 126 126 81
Width: 870
GlyphClass: 2
Flags: HW
LayerCount: 2
Fore
SplineSet
95 1088 m 256
 61 1099 42 1139 52 1172 c 256
 84 1268 157 1357 279 1357 c 256
 369 1357 436 1315 492 1277 c 256
 526 1254 556 1239 591 1239 c 256
 659 1239 692 1296 711 1344 c 256
 724 1378 766 1393 798 1379 c 256
 831 1365 847 1324 833 1292 c 256
 783 1178 695 1105 591 1105 c 256
 527 1105 468 1128 411 1171 c 256
 372 1200 337 1224 286 1224 c 256
 221 1224 190 1168 178 1132 c 256
 167 1098 128 1077 95 1088 c 256
EndSplineSet
EndChar

StartChar: asterisk
Encoding: 42 42 82
Width: 1108
GlyphClass: 2
Flags: HW
LayerCount: 2
Fore
SplineSet
983 604 m 256
 946 561 881 554 838 591 c 256
 729 682 614 759 498 826 c 256
 377 897 250 956 120 1005 c 256
 68 1025 40 1086 60 1138 c 256
 80 1190 140 1219 192 1199 c 256
 333 1147 470 1083 602 1007 c 256
 728 934 851 850 970 750 c 256
 1013 713 1019 646 983 604 c 256
123 604 m 256
 87 646 93 713 136 750 c 256
 255 850 378 934 504 1007 c 256
 636 1083 773 1147 914 1199 c 256
 966 1219 1026 1190 1046 1138 c 256
 1066 1086 1038 1025 986 1005 c 256
 856 956 730 897 609 826 c 256
 493 759 378 682 269 591 c 256
 226 554 160 561 123 604 c 256
499 1447 m 256
 554 1457 609 1419 619 1363 c 256
 647 1210 658 1061 658 915 c 256
 658 763 644 613 619 465 c 256
 609 409 556 370 500 380 c 256
 444 390 405 443 415 499 c 256
 438 637 450 774 450 915 c 256
 450 1049 439 1186 415 1327 c 256
 405 1383 443 1437 499 1447 c 256
EndSplineSet
EndChar

StartChar: at
Encoding: 64 64 83
Width: 2213
GlyphClass: 2
Flags: HW
LayerCount: 2
Fore
SplineSet
1724 -260 m 256
 1759 -317 1741 -393 1684 -428 c 256
 1522 -529 1333 -587 1129 -587 c 256
 560 -587 77 -189 77 400 c 256
 77 978 574 1517 1162 1517 c 256
 1686 1517 2135 1106 2135 564 c 256
 2135 336 2024 -97 1674 -97 c 256
 1424 -97 1309 174 1309 362 c 256
 1309 396 1311 434 1316 470 c 256
 1325 536 1387 584 1453 575 c 256
 1519 566 1567 504 1558 438 c 256
 1555 414 1555 386 1553 362 c 256
 1535 211 1602 149 1665 149 c 256
 1768 149 1891 346 1891 564 c 256
 1891 964 1560 1273 1162 1273 c 256
 724 1273 323 848 323 400 c 256
 323 -37 672 -343 1129 -343 c 256
 1285 -343 1432 -297 1556 -220 c 256
 1613 -185 1689 -203 1724 -260 c 256
1356 748 m 257
 1289 784 1219 801 1152 801 c 256
 972 801 791 648 791 372 c 256
 791 229 878 137 1021 137 c 256
 1199 137 1290 299 1316 472 c 258
 1356 748 l 257
1610 793 m 258
 1558 436 l 258
 1528 227 1389 -107 1021 -107 c 256
 742 -107 545 105 545 372 c 256
 545 762 820 1047 1152 1047 c 256
 1292 1047 1434 1001 1560 910 c 256
 1597 883 1616 835 1610 793 c 258
EndSplineSet
EndChar

StartChar: b
Encoding: 98 98 85
Width: 1163
GlyphClass: 2
Flags: HW
LayerCount: 2
Fore
SplineSet
246 1483 m 256
 313 1481 366 1424 364 1357 c 258
 322 41 l 258
 320 -26 263 -79 196 -77 c 256
 129 -75 76 -18 78 49 c 258
 120 1365 l 258
 122 1432 179 1485 246 1483 c 256
182 613 m 256
 121 640 93 714 120 775 c 256
 218 994 399 1123 618 1123 c 256
 994 1123 1125 770 1125 495 c 256
 1125 166 862 -107 515 -107 c 256
 458 -107 399 -100 343 -85 c 256
 279 -68 239 0 256 64 c 256
 273 128 341 168 405 151 c 256
 440 142 478 137 515 137 c 256
 728 137 881 300 881 495 c 256
 881 728 788 879 618 879 c 256
 502 879 412 826 344 675 c 256
 317 614 243 586 182 613 c 256
EndSplineSet
EndChar

StartChar: backslash
Encoding: 92 92 86
Width: 1105
GlyphClass: 2
Flags: HW
LayerCount: 2
Fore
SplineSet
107 1414 m 256
 161 1454 238 1443 278 1389 c 256
 592 967 845 600 1041 40 c 256
 1063 -23 1029 -94 966 -116 c 256
 903 -138 831 -103 809 -40 c 256
 623 490 394 823 82 1243 c 256
 42 1297 53 1374 107 1414 c 256
EndSplineSet
EndChar

StartChar: bar
Encoding: 124 124 87
Width: 417
GlyphClass: 2
Flags: HW
LayerCount: 2
Fore
SplineSet
217 1581 m 256
 284 1581 339 1526 339 1459 c 256
 339 1039 330 366 323 -2 c 256
 321 -69 265 -124 198 -122 c 256
 131 -120 76 -65 78 2 c 256
 85 368 95 1041 95 1459 c 256
 95 1526 150 1581 217 1581 c 256
EndSplineSet
EndChar

StartChar: braceleft
Encoding: 123 123 88
Width: 695
GlyphClass: 2
Flags: HW
LayerCount: 2
Fore
SplineSet
-23 752 m 256
 -23 819 33 875 100 875 c 256
 282 875 19 1533 495 1533 c 256
 562 1533 618 1478 618 1411 c 256
 618 1344 562 1289 495 1289 c 256
 281 1289 588 629 100 629 c 256
 33 629 -23 685 -23 752 c 256
617 93 m 256
 617 26 562 -29 495 -29 c 256
 19 -29 271 629 100 629 c 256
 33 629 -22 685 -22 752 c 256
 -22 819 33 875 100 875 c 256
 584 875 265 215 495 215 c 256
 562 215 617 160 617 93 c 256
EndSplineSet
EndChar

StartChar: braceright
Encoding: 125 125 89
Width: 695
GlyphClass: 2
Flags: HW
LayerCount: 2
Fore
SplineSet
78 1411 m 256
 78 1478 133 1533 200 1533 c 256
 676 1533 424 875 595 875 c 256
 662 875 717 819 717 752 c 256
 717 685 662 629 595 629 c 256
 111 629 430 1289 200 1289 c 256
 133 1289 78 1344 78 1411 c 256
718 752 m 256
 718 685 662 629 595 629 c 256
 413 629 676 -29 200 -29 c 256
 133 -29 77 26 77 93 c 256
 77 160 133 215 200 215 c 256
 414 215 107 875 595 875 c 256
 662 875 718 819 718 752 c 256
EndSplineSet
PairPos2: "'kern' Horizontal Kerning in Arabic lookup 2 per glyph data 0" uni0622 dx=300 dy=0 dh=300 dv=0 dx=0 dy=0 dh=0 dv=0
EndChar

StartChar: bracketleft
Encoding: 91 91 90
Width: 715
GlyphClass: 2
Flags: HW
LayerCount: 2
Fore
SplineSet
637 1331 m 256
 643 1264 592 1205 525 1199 c 256
 492 1197 460 1195 426 1194 c 256
 396 1193 366 1194 338 1195 c 257
 344 1120 347 1046 347 972 c 256
 347 824 341 681 332 542 c 256
 324 411 323 390 323 266 c 256
 323 186 377 173 516 167 c 256
 583 164 635 107 632 40 c 256
 629 -27 571 -80 504 -77 c 256
 285 -67 77 4 77 266 c 256
 77 388 78 425 86 556 c 256
 94 693 101 834 101 972 c 256
 101 1084 96 1194 83 1306 c 256
 77 1360 124 1450 213 1443 c 256
 261 1439 309 1439 361 1439 c 256
 413 1439 460 1440 505 1443 c 256
 572 1449 631 1398 637 1331 c 256
EndSplineSet
EndChar

StartChar: bracketright
Encoding: 93 93 91
Width: 726
GlyphClass: 2
Flags: HW
LayerCount: 2
Fore
SplineSet
79 1362 m 256
 89 1428 154 1474 220 1464 c 256
 310 1450 411 1440 512 1438 c 256
 592 1436 645 1357 630 1290 c 256
 596 1134 595 1064 595 875 c 256
 595 787 605 695 620 598 c 256
 635 497 649 391 649 285 c 256
 649 -12 398 -77 207 -77 c 256
 140 -77 85 -22 85 45 c 256
 85 112 140 167 207 167 c 256
 371 167 403 184 403 285 c 256
 403 371 393 463 378 560 c 256
 363 661 349 767 349 875 c 256
 349 1008 350 1093 366 1202 c 257
 304 1206 238 1213 180 1222 c 256
 114 1232 69 1296 79 1362 c 256
EndSplineSet
PairPos2: "'kern' Horizontal Kerning in Arabic lookup 2 per glyph data 0" uni0622 dx=300 dy=0 dh=300 dv=0 dx=0 dy=0 dh=0 dv=0
EndChar

StartChar: brokenbar
Encoding: 166 166 92
Width: 419
GlyphClass: 2
Flags: HW
LayerCount: 2
Fore
SplineSet
204 1483 m 256
 271 1483 327 1428 327 1361 c 256
 327 1215 326 1057 323 893 c 256
 321 826 265 771 198 773 c 256
 131 775 76 830 78 897 c 256
 81 1059 81 1217 81 1361 c 256
 81 1428 137 1483 204 1483 c 256
221 619 m 256
 288 617 343 562 341 495 c 256
 337 314 331 141 323 -7 c 256
 319 -74 262 -126 195 -122 c 256
 128 -118 75 -60 79 7 c 256
 87 151 93 320 97 499 c 256
 99 566 154 621 221 619 c 256
EndSplineSet
EndChar

StartChar: c
Encoding: 99 99 93
Width: 1031
GlyphClass: 2
Flags: HW
LayerCount: 2
Fore
SplineSet
948 827 m 256
 904 777 825 770 775 814 c 256
 726 856 676 879 611 879 c 256
 439 879 283 640 283 411 c 256
 283 251 340 137 528 137 c 256
 644 137 725 168 808 218 c 256
 865 252 942 234 976 176 c 256
 1010 118 991 42 934 8 c 256
 825 -58 692 -107 528 -107 c 256
 170 -107 37 179 37 411 c 256
 37 698 223 1123 611 1123 c 256
 740 1123 850 1074 935 1000 c 256
 985 956 992 877 948 827 c 256
EndSplineSet
EndChar

StartChar: cedilla
Encoding: 184 184 95
Width: 717
GlyphClass: 2
Flags: HW
LayerCount: 2
Fore
SplineSet
232 77 m 256
 274 129 352 137 404 95 c 256
 505 14 679 -163 679 -361 c 256
 679 -552 503 -623 319 -623 c 256
 245 -623 178 -614 126 -599 c 256
 62 -581 24 -512 42 -448 c 256
 60 -384 130 -345 194 -363 c 256
 219 -370 271 -379 319 -379 c 256
 387 -379 430 -365 430 -333 c 256
 430 -279 311 -144 250 -95 c 256
 198 -53 190 25 232 77 c 256
EndSplineSet
EndChar

StartChar: cent
Encoding: 162 162 96
Width: 1031
GlyphClass: 2
Flags: HW
LayerCount: 2
Fore
SplineSet
547 -487 m 256
 480 -487 425 -432 425 -365 c 258
 425 10 l 258
 425 77 480 132 547 132 c 256
 614 132 669 77 669 10 c 258
 669 -365 l 258
 669 -432 614 -487 547 -487 c 256
547 879 m 256
 480 879 425 934 425 1001 c 258
 425 1316 l 258
 425 1383 480 1439 547 1439 c 256
 614 1439 669 1383 669 1316 c 258
 669 1001 l 258
 669 934 614 879 547 879 c 256
EndSplineSet
Refer: 93 99 N 1 0 0 1 0 0 2
EndChar

StartChar: comma
Encoding: 44 44 98
Width: 478
GlyphClass: 2
Flags: HW
LayerCount: 2
Fore
SplineSet
50 -313 m 256
 -8 -279 -28 -204 6 -146 c 258
 236 250 l 258
 270 308 346 329 404 295 c 256
 462 261 482 186 448 128 c 258
 218 -268 l 258
 184 -326 108 -347 50 -313 c 256
EndSplineSet
EndChar

StartChar: currency
Encoding: 164 164 100
Width: 1109
GlyphClass: 2
Flags: HW
LayerCount: 2
Fore
SplineSet
1039 -48 m 256
 989 -92 910 -85 866 -35 c 258
 748 101 l 258
 704 151 710 230 760 274 c 256
 810 318 889 312 933 262 c 258
 1052 125 l 258
 1096 75 1089 -4 1039 -48 c 256
346 758 m 256
 297 713 218 716 173 765 c 258
 60 887 l 258
 15 936 18 1015 67 1060 c 256
 116 1105 195 1102 240 1053 c 258
 353 931 l 258
 398 882 395 803 346 758 c 256
1040 1062 m 256
 1090 1018 1095 939 1051 889 c 258
 950 775 l 258
 906 725 827 720 777 764 c 256
 727 808 722 888 766 938 c 258
 867 1051 l 258
 911 1101 990 1106 1040 1062 c 256
332 246 m 256
 382 202 387 124 342 74 c 258
 242 -38 l 258
 198 -88 118 -91 68 -46 c 256
 18 -1 16 78 60 128 c 258
 160 238 l 258
 205 288 282 290 332 246 c 256
EndSplineSet
Refer: 149 111 N 1 0 0 1 0 0 2
EndChar

StartChar: d
Encoding: 100 100 101
Width: 1197
GlyphClass: 2
Flags: HW
LayerCount: 2
Fore
SplineSet
973 1483 m 256
 1040 1481 1094 1425 1092 1358 c 258
 1074 510 l 257
 1074 204 1090 150 1112 123 c 256
 1155 72 1146 -7 1095 -50 c 256
 1044 -93 964 -85 922 -33 c 256
 830 80 829 223 829 512 c 257
 848 1364 l 258
 850 1431 906 1485 973 1483 c 256
918 782 m 256
 869 736 792 739 746 788 c 256
 682 857 621 877 567 877 c 256
 415 877 283 691 283 465 c 256
 283 245 381 137 537 137 c 256
 682 137 784 248 834 396 c 256
 855 459 926 494 989 473 c 256
 1052 452 1088 381 1067 318 c 256
 1001 118 828 -107 537 -107 c 256
 213 -107 37 163 37 465 c 256
 37 749 207 1121 567 1121 c 256
 693 1121 820 1065 924 954 c 256
 970 905 967 828 918 782 c 256
EndSplineSet
EndChar

StartChar: degree
Encoding: 176 176 102
Width: 830
GlyphClass: 2
Flags: HW
LayerCount: 2
Fore
SplineSet
604 1398 m 256
 604 1497 516 1594 414 1594 c 256
 324 1594 226 1495 226 1391 c 256
 226 1299 310 1214 400 1214 c 256
 512 1214 604 1304 604 1398 c 256
696 1398 m 256
 696 1246 558 1124 400 1124 c 256
 258 1124 134 1247 134 1391 c 256
 134 1545 268 1684 414 1684 c 256
 572 1684 696 1545 696 1398 c 256
EndSplineSet
EndChar

StartChar: dieresis
Encoding: 168 168 103
Width: 688
GlyphClass: 2
Flags: HW
LayerCount: 2
Fore
SplineSet
599 1210 m 256
 599 1148 546 1108 493 1108 c 256
 431 1108 388 1159 388 1209 c 256
 388 1269 429 1319 484 1319 c 256
 548 1319 599 1270 599 1210 c 256
300 1224 m 256
 300 1158 250 1108 184 1108 c 256
 126 1108 89 1164 89 1214 c 256
 89 1272 136 1319 194 1319 c 256
 246 1319 300 1282 300 1224 c 256
EndSplineSet
EndChar

StartChar: dollar
Encoding: 36 36 105
Width: 1182
GlyphClass: 2
Flags: HW
LayerCount: 2
Fore
SplineSet
575 1685 m 256
 611 1685 641 1655 641 1619 c 258
 641 -240 l 258
 641 -276 611 -306 575 -306 c 256
 539 -306 509 -276 509 -240 c 258
 509 1619 l 258
 509 1655 539 1685 575 1685 c 256
EndSplineSet
Refer: 50 83 N 1 0 0 1 0 0 2
EndChar

StartChar: dotlessi
Encoding: 305 305 106
Width: 415
GlyphClass: 2
Flags: HW
LayerCount: 2
Fore
SplineSet
220 1093 m 256
 287 1090 340 1033 337 966 c 256
 326 736 323 208 323 0 c 256
 323 -67 267 -122 200 -122 c 256
 133 -122 78 -67 78 0 c 256
 78 212 82 736 93 976 c 256
 96 1043 153 1096 220 1093 c 256
EndSplineSet
EndChar

StartChar: e
Encoding: 101 101 107
Width: 1131
GlyphClass: 2
Flags: HW
LayerCount: 2
Fore
SplineSet
703 879 m 256
 505 879 337 675 337 440 c 256
 337 193 441 137 620 137 c 256
 733 137 836 165 898 222 c 256
 948 267 1027 264 1072 214 c 256
 1117 164 1114 85 1064 40 c 256
 934 -77 765 -107 620 -107 c 256
 339 -107 93 63 93 440 c 256
 93 771 329 1123 703 1123 c 256
 864 1123 1061 1019 1061 805 c 256
 1061 615 904 489 830 445 c 256
 627 324 394 251 158 235 c 256
 91 230 33 281 28 348 c 256
 23 415 75 474 142 479 c 256
 340 493 535 553 706 655 c 256
 780 699 817 747 817 797 c 256
 817 851 770 879 703 879 c 256
EndSplineSet
EndChar

StartChar: eight
Encoding: 56 56 112
Width: 1079
GlyphClass: 2
Flags: HW
LayerCount: 2
Fore
SplineSet
498 768 m 256
 664 701 929 561 929 295 c 256
 929 60 722 -107 488 -107 c 256
 246 -107 42 68 42 324 c 256
 42 730 576 1058 870 1186 c 256
 932 1212 1006 1185 1032 1123 c 256
 1058 1061 1032 982 968 962 c 256
 678 862 287 532 287 324 c 256
 287 212 362 137 488 137 c 256
 614 137 683 218 683 295 c 256
 683 371 572 475 408 540 c 256
 254 601 37 771 37 1024 c 256
 37 1274 239 1469 509 1469 c 256
 771 1469 925 1293 1010 1072 c 256
 1034 1010 1002 939 940 915 c 256
 878 891 805 924 782 986 c 256
 714 1163 636 1223 506 1223 c 256
 353 1223 283 1132 283 1024 c 256
 283 927 397 808 498 768 c 256
EndSplineSet
EndChar

StartChar: equal
Encoding: 61 61 114
Width: 1037
GlyphClass: 2
Flags: HW
LayerCount: 2
Fore
SplineSet
76 883 m 256
 80 928 122 964 168 960 c 256
 278 951 467 946 557 946 c 256
 665 946 779 952 870 960 c 256
 915 964 958 928 962 882 c 256
 966 836 930 794 885 790 c 256
 789 782 671 776 557 776 c 256
 463 776 272 779 152 790 c 256
 107 794 72 837 76 883 c 256
76 487 m 256
 86 533 132 564 176 555 c 256
 215 547 396 542 498 542 c 256
 602 542 743 546 871 556 c 256
 917 560 958 524 962 477 c 256
 966 431 930 390 883 386 c 256
 751 376 608 370 498 370 c 256
 388 370 220 372 144 387 c 256
 99 397 67 443 76 487 c 256
EndSplineSet
EndChar

StartChar: eth
Encoding: 240 240 115
Width: 1089
GlyphClass: 2
Flags: HW
LayerCount: 2
Fore
SplineSet
146 909 m 256
 96 953 92 1032 137 1082 c 256
 265 1223 623 1464 805 1523 c 256
 869 1543 939 1508 959 1444 c 256
 979 1380 944 1309 880 1289 c 256
 778 1256 395 1003 319 918 c 256
 274 868 196 865 146 909 c 256
536 -107 m 256
 182 -107 27 162 27 427 c 256
 27 723 253 977 565 977 c 256
 632 977 687 921 687 854 c 256
 687 787 632 731 565 731 c 256
 397 731 273 599 273 427 c 256
 273 246 338 137 536 137 c 256
 708 137 817 233 817 525 c 256
 817 735 694 1121 214 1306 c 256
 152 1330 119 1402 143 1464 c 256
 167 1526 238 1558 300 1534 c 256
 888 1309 1061 819 1061 525 c 256
 1061 157 872 -107 536 -107 c 256
EndSplineSet
EndChar

StartChar: exclam
Encoding: 33 33 116
Width: 583
GlyphClass: 2
Flags: HW
LayerCount: 2
Fore
SplineSet
234 1482 m 256
 300 1491 362 1443 371 1377 c 256
 408 1105 418 913 418 622 c 256
 418 583 418 541 417 497 c 256
 415 430 361 379 294 379 c 256
 226 379 170 434 172 501 c 256
 173 541 173 583 173 622 c 256
 173 909 164 1089 129 1345 c 256
 120 1411 168 1473 234 1482 c 256
455 85 m 256
 455 22 402 -77 298 -77 c 256
 237 -77 127 -37 127 84 c 256
 127 175 202 251 294 251 c 256
 395 251 455 159 455 85 c 256
EndSplineSet
EndChar

StartChar: f
Encoding: 102 102 118
Width: 773
GlyphClass: 2
Flags: HW
LayerCount: 2
Fore
SplineSet
519 1731 m 256
 599 1731 659 1686 703 1636 c 256
 747 1586 744 1507 694 1463 c 256
 659 1431 622 1423 576 1440 c 256
 564 1450 545 1458 536 1458 c 256
 514 1458 491 1371 485 1298 c 256
 455 960 446 346 446 -4 c 256
 446 -71 390 -126 323 -126 c 256
 256 -126 201 -71 201 -4 c 256
 201 350 209 964 241 1319 c 256
 254 1472 308 1731 519 1731 c 256
38 820 m 256
 33 887 84 946 151 951 c 256
 209 956 262 957 312 957 c 256
 419 957 520 950 627 937 c 256
 693 929 743 868 735 802 c 256
 727 736 665 687 599 695 c 256
 501 706 409 711 312 711 c 256
 262 711 217 710 169 707 c 256
 102 702 43 753 38 820 c 256
EndSplineSet
EndChar

StartChar: five
Encoding: 53 53 119
Width: 1113
GlyphClass: 2
Flags: HW
LayerCount: 2
Fore
SplineSet
1063 1363 m 256
 1077 1298 1034 1231 969 1217 c 256
 886 1199 775 1193 637 1193 c 256
 541 1193 443 1196 365 1204 c 257
 342 983 l 257
 399 1007 459 1019 549 1019 c 256
 784 1019 1075 865 1075 470 c 256
 1075 107 797 -107 496 -107 c 256
 352 -107 204 -60 84 36 c 256
 32 77 22 156 64 208 c 256
 106 260 184 269 236 228 c 256
 312 168 404 137 496 137 c 256
 683 137 831 251 831 470 c 256
 831 690 700 773 518 773 c 256
 437 773 350 744 281 682 c 256
 262 666 229 651 197 652 c 256
 126 654 70 716 77 786 c 258
 133 1353 l 258
 139 1414 203 1477 279 1461 c 256
 346 1448 497 1439 637 1439 c 256
 765 1439 868 1447 917 1457 c 256
 982 1471 1049 1428 1063 1363 c 256
EndSplineSet
EndChar

StartChar: four
Encoding: 52 52 120
Width: 1268
GlyphClass: 2
Flags: HW
LayerCount: 2
Fore
SplineSet
768 1430 m 256
 830 1405 861 1332 836 1270 c 256
 740 1031 533 675 380 439 c 257
 614 429 889 454 1079 500 c 256
 1143 516 1211 474 1227 410 c 256
 1243 346 1201 278 1137 262 c 256
 852 192 447 168 143 211 c 256
 131 213 110 220 96 228 c 256
 36 265 19 348 61 405 c 256
 203 596 500 1094 608 1362 c 256
 633 1424 706 1455 768 1430 c 256
833 779 m 256
 899 773 949 711 943 645 c 258
 872 -12 l 258
 864 -78 805 -128 739 -122 c 256
 673 -116 620 -54 628 12 c 258
 699 669 l 258
 705 735 767 785 833 779 c 256
EndSplineSet
EndChar

StartChar: g
Encoding: 103 103 121
Width: 1177
GlyphClass: 2
Flags: HW
LayerCount: 2
Fore
SplineSet
879 890 m 256
 844 833 767 814 710 849 c 256
 685 865 633 879 593 879 c 256
 435 879 291 661 291 420 c 256
 291 204 395 137 524 137 c 256
 711 137 810 306 851 502 c 256
 864 567 931 610 996 597 c 256
 1061 584 1104 517 1091 452 c 256
 1046 232 897 -107 524 -107 c 256
 261 -107 47 90 47 420 c 256
 47 707 213 1123 593 1123 c 256
 673 1123 761 1105 838 1059 c 256
 895 1024 914 947 879 890 c 256
968 1093 m 256
 1035 1096 1093 1043 1096 976 c 256
 1098 925 1099 842 1099 764 c 256
 1099 337 1102 4 1010 -236 c 256
 926 -457 706 -563 503 -563 c 256
 343 -563 176 -499 65 -363 c 256
 23 -311 31 -233 83 -191 c 256
 135 -149 213 -157 255 -209 c 256
 312 -279 405 -317 503 -317 c 256
 632 -317 742 -255 782 -150 c 256
 846 18 855 337 855 764 c 256
 855 840 854 923 852 966 c 256
 849 1033 901 1090 968 1093 c 256
EndSplineSet
EndChar

StartChar: germandbls
Encoding: 223 223 122
Width: 1124
GlyphClass: 2
Flags: HW
LayerCount: 2
Fore
SplineSet
561 1469 m 256
 821 1469 955 1240 955 1060 c 256
 955 905 901 806 801 726 c 256
 759 692 734 659 734 630 c 256
 734 600 760 582 794 565 c 256
 899 512 1087 406 1087 182 c 256
 1087 -40 830 -109 672 -109 c 256
 594 -109 509 -97 433 -54 c 256
 375 -21 353 55 386 113 c 256
 419 171 473 184 536 162 c 256
 572 147 628 134 674 134 c 256
 746 134 840 156 840 204 c 256
 840 255 775 299 683 347 c 256
 600 390 489 469 489 619 c 256
 489 754 570 855 647 918 c 256
 693 956 709 993 709 1060 c 256
 709 1142 651 1223 561 1223 c 256
 494 1223 431 1184 407 996 c 256
 370 706 347 368 322 -4 c 256
 317 -71 259 -123 192 -118 c 256
 125 -113 73 -55 78 12 c 256
 103 384 126 726 165 1026 c 256
 201 1304 349 1469 561 1469 c 256
EndSplineSet
EndChar

StartChar: grave
Encoding: 96 96 123
Width: 539
GlyphClass: 2
Flags: HW
LayerCount: 2
Fore
SplineSet
140 1534 m 256
 167 1556 210 1551 232 1523 c 256
 298 1439 372 1303 420 1196 c 256
 434 1164 418 1122 386 1108 c 256
 354 1094 313 1110 299 1142 c 256
 254 1241 180 1374 128 1441 c 256
 106 1469 112 1512 140 1534 c 256
EndSplineSet
EndChar

StartChar: greater
Encoding: 62 62 124
Width: 645
GlyphClass: 2
Flags: HW
LayerCount: 2
Fore
SplineSet
116 1119 m 256
 155 1143 209 1129 233 1090 c 256
 302 976 385 877 481 794 c 256
 519 761 512 691 480 664 c 256
 385 585 302 491 234 372 c 256
 212 332 158 317 118 340 c 256
 78 363 63 416 86 456 c 256
 146 562 220 650 300 732 c 257
 221 814 148 901 87 1002 c 256
 63 1041 77 1095 116 1119 c 256
EndSplineSet
EndChar

StartChar: h
Encoding: 104 104 129
Width: 1126
GlyphClass: 2
Flags: HW
LayerCount: 2
Fore
SplineSet
306 1508 m 256
 373 1503 424 1445 419 1378 c 258
 322 -8 l 258
 317 -75 259 -127 192 -122 c 256
 125 -117 73 -59 78 8 c 258
 175 1394 l 258
 180 1461 239 1513 306 1508 c 256
197 294 m 256
 133 312 94 381 112 445 c 256
 198 755 335 1123 654 1123 c 256
 973 1123 1037 825 1037 626 c 256
 1037 552 1031 477 1022 410 c 256
 1015 348 1009 284 1009 227 c 256
 1009 154 1019 93 1038 50 c 256
 1065 -11 1038 -85 976 -112 c 256
 914 -139 841 -111 814 -50 c 256
 775 39 765 136 765 227 c 256
 765 300 771 372 780 440 c 256
 787 501 793 566 793 626 c 256
 793 817 755 877 654 877 c 256
 567 877 444 719 348 379 c 256
 330 315 261 276 197 294 c 256
EndSplineSet
EndChar

StartChar: hyphen
Encoding: 45 45 130
Width: 1037
GlyphClass: 2
Flags: HW
LayerCount: 2
Fore
SplineSet
76 429 m 256
 72 475 106 518 152 522 c 256
 409 545 631 546 877 546 c 256
 924 546 962 507 962 461 c 256
 962 415 924 376 877 376 c 256
 633 376 417 373 168 352 c 256
 122 348 80 384 76 429 c 256
EndSplineSet
EndChar

StartChar: k
Encoding: 107 107 137
Width: 1019
GlyphClass: 2
Flags: HW
LayerCount: 2
Fore
SplineSet
965 -62 m 256
 931 -120 855 -140 797 -106 c 256
 559 34 313 256 138 456 c 256
 81 520 116 616 175 646 c 256
 366 742 554 897 679 1049 c 256
 721 1100 801 1109 852 1066 c 256
 903 1023 911 944 869 893 c 256
 751 750 594 615 424 509 c 257
 570 359 757 202 921 106 c 256
 979 72 999 -4 965 -62 c 256
266 1483 m 256
 333 1480 385 1423 382 1356 c 258
 322 -2 l 258
 319 -69 261 -121 194 -118 c 256
 127 -115 75 -57 78 10 c 258
 138 1366 l 258
 141 1433 199 1486 266 1483 c 256
EndSplineSet
EndChar

StartChar: l
Encoding: 108 108 138
Width: 419
GlyphClass: 2
Flags: HW
LayerCount: 2
Fore
SplineSet
224 1472 m 256
 291 1469 344 1411 341 1344 c 256
 325 1006 323 393 323 0 c 256
 323 -67 267 -122 200 -122 c 256
 133 -122 78 -67 78 0 c 256
 78 395 81 1008 97 1356 c 256
 100 1423 157 1475 224 1472 c 256
EndSplineSet
EndChar

StartChar: less
Encoding: 60 60 139
Width: 645
GlyphClass: 2
Flags: HW
LayerCount: 2
Fore
SplineSet
529 340 m 256
 490 316 436 330 412 369 c 256
 343 483 260 582 164 665 c 256
 126 698 134 767 166 794 c 256
 261 873 343 969 411 1087 c 256
 434 1127 487 1142 527 1119 c 256
 567 1096 582 1043 559 1003 c 256
 498 896 425 810 345 728 c 257
 424 646 497 558 558 457 c 256
 582 418 568 364 529 340 c 256
EndSplineSet
EndChar

StartChar: logicalnot
Encoding: 172 172 140
Width: 975
GlyphClass: 2
Flags: HW
LayerCount: 2
Fore
SplineSet
27 661 m 256
 27 728 83 783 150 783 c 258
 795 783 l 258
 869 783 917 714 917 661 c 258
 917 388 l 258
 917 321 862 265 795 265 c 256
 728 265 673 321 673 388 c 258
 673 539 l 257
 150 539 l 258
 83 539 27 594 27 661 c 256
EndSplineSet
EndChar

StartChar: m
Encoding: 109 109 141
Width: 1582
GlyphClass: 2
Flags: HW
LayerCount: 2
Fore
SplineSet
193 1108 m 256
 258 1122 325 1079 339 1014 c 256
 358 924 371 809 371 678 c 256
 371 625 368 573 364 516 c 258
 322 -2 l 258
 316 -69 257 -120 190 -114 c 256
 123 -108 72 -49 78 18 c 258
 120 534 l 258
 124 583 125 633 125 678 c 256
 125 793 114 894 99 962 c 256
 85 1027 128 1094 193 1108 c 256
232 484 m 256
 166 492 118 554 126 620 c 256
 164 913 335 1123 550 1123 c 256
 916 1123 929 742 929 549 c 256
 929 375 917 161 903 -10 c 256
 897 -76 838 -128 771 -122 c 256
 704 -116 653 -56 659 10 c 256
 673 175 685 387 685 549 c 256
 685 794 656 879 550 879 c 256
 517 879 398 823 368 590 c 256
 360 524 298 476 232 484 c 256
801 400 m 256
 734 404 681 461 685 528 c 256
 699 797 860 1123 1142 1123 c 256
 1432 1123 1499 833 1499 651 c 256
 1499 580 1496 492 1492 404 c 256
 1488 317 1486 231 1486 169 c 256
 1486 116 1490 71 1501 32 c 256
 1518 -32 1479 -101 1415 -118 c 256
 1351 -135 1282 -96 1265 -32 c 256
 1247 33 1240 100 1240 169 c 256
 1240 241 1244 329 1248 416 c 256
 1252 502 1255 586 1255 651 c 256
 1255 821 1204 879 1142 879 c 256
 1082 879 941 741 929 516 c 256
 925 449 868 396 801 400 c 256
EndSplineSet
EndChar

StartChar: mu
Encoding: 181 181 143
Width: 1099
GlyphClass: 2
Flags: HW
LayerCount: 2
Fore
SplineSet
260 -569 m 256
 194 -576 133 -526 126 -460 c 256
 102 -218 77 84 77 367 c 256
 77 610 110 879 158 1048 c 256
 177 1112 246 1151 310 1132 c 256
 374 1113 413 1046 394 982 c 256
 356 849 323 586 323 367 c 256
 323 98 346 -196 370 -434 c 256
 377 -500 326 -562 260 -569 c 256
306 1134 m 256
 370 1118 411 1049 395 985 c 256
 365 871 327 673 327 535 c 256
 327 261 358 137 511 137 c 256
 715 137 762 600 763 1015 c 256
 763 1082 819 1137 886 1137 c 256
 953 1137 1008 1082 1008 1015 c 256
 1007 728 1049 -107 511 -107 c 256
 104 -107 83 305 83 535 c 256
 83 711 125 917 157 1045 c 256
 173 1109 242 1150 306 1134 c 256
893 1137 m 256
 960 1133 1011 1074 1007 1007 c 256
 999 883 999 710 999 587 c 256
 999 407 1004 229 1021 60 c 256
 1028 -6 978 -67 912 -74 c 256
 846 -81 784 -30 777 36 c 256
 758 219 755 403 755 587 c 256
 755 710 755 887 763 1023 c 256
 767 1090 826 1141 893 1137 c 256
EndSplineSet
EndChar

StartChar: multiply
Encoding: 215 215 144
Width: 872
GlyphClass: 2
Flags: HW
LayerCount: 2
Fore
SplineSet
56 979 m 256
 92 1036 168 1054 225 1018 c 256
 361 933 510 806 626 690 c 256
 714 602 783 522 822 445 c 256
 852 385 827 310 767 280 c 256
 707 250 632 275 602 335 c 256
 587 366 530 442 454 518 c 256
 350 622 207 739 95 810 c 256
 38 846 20 922 56 979 c 256
116 304 m 256
 64 345 55 424 96 476 c 256
 197 604 301 718 412 829 c 256
 473 890 535 950 600 1009 c 256
 650 1054 729 1050 774 1000 c 256
 819 950 816 872 766 827 c 256
 703 770 641 714 584 657 c 256
 479 552 383 444 288 324 c 256
 247 272 168 263 116 304 c 256
EndSplineSet
EndChar

StartChar: n
Encoding: 110 110 145
Width: 1126
GlyphClass: 2
Flags: HW
LayerCount: 2
Fore
SplineSet
135 1098 m 256
 186 1141 264 1133 307 1082 c 256
 370 1005 375 882 375 746 c 256
 375 519 345 215 322 -12 c 256
 315 -78 254 -129 188 -122 c 256
 122 -115 71 -54 78 12 c 256
 101 237 131 539 131 746 c 256
 131 840 125 916 107 942 c 256
 77 986 87 1058 135 1098 c 256
205 294 m 256
 141 311 101 380 119 444 c 256
 200 744 339 1123 681 1123 c 256
 1002 1123 1035 787 1035 609 c 256
 1035 546 1030 478 1022 410 c 256
 1015 347 1011 282 1011 221 c 256
 1011 151 1019 93 1038 50 c 256
 1065 -11 1038 -85 976 -112 c 256
 914 -139 841 -111 814 -50 c 256
 775 39 765 133 765 221 c 256
 765 294 771 369 780 440 c 256
 787 500 791 558 791 609 c 256
 791 817 752 877 681 877 c 256
 563 877 444 706 355 380 c 256
 337 316 269 277 205 294 c 256
EndSplineSet
EndChar

StartChar: nine
Encoding: 57 57 146
Width: 1208
GlyphClass: 2
Flags: HW
LayerCount: 2
Fore
SplineSet
556 1435 m 256
 835 1434 1081 1211 1081 795 c 256
 1081 454 907 42 538 -118 c 256
 476 -144 403 -115 377 -53 c 256
 351 9 379 82 441 108 c 256
 688 214 837 524 837 795 c 256
 837 1111 687 1190 556 1191 c 256
 387 1191 283 1056 283 886 c 256
 283 673 406 605 575 605 c 256
 738 605 884 672 963 748 c 256
 1011 795 1091 792 1137 744 c 256
 1183 696 1181 617 1133 570 c 256
 1004 446 802 359 575 359 c 256
 318 359 37 517 37 886 c 256
 37 1158 225 1435 556 1435 c 256
EndSplineSet
EndChar

StartChar: numbersign
Encoding: 35 35 148
Width: 1734
GlyphClass: 2
Flags: HW
LayerCount: 2
Fore
SplineSet
38 501 m 256
 40 568 98 620 165 618 c 258
 1515 567 l 258
 1582 565 1634 507 1632 440 c 256
 1630 373 1572 321 1505 323 c 258
 155 374 l 258
 88 376 36 434 38 501 c 256
130 918 m 256
 128 985 181 1042 248 1044 c 258
 1570 1083 l 258
 1637 1085 1694 1032 1696 965 c 256
 1698 898 1645 841 1578 839 c 258
 256 800 l 258
 189 798 132 851 130 918 c 256
1030 -120 m 256
 965 -108 920 -42 932 23 c 258
 1192 1384 l 258
 1204 1449 1271 1494 1336 1482 c 256
 1401 1470 1446 1403 1434 1338 c 258
 1174 -23 l 258
 1162 -88 1095 -132 1030 -120 c 256
353 -118 m 256
 289 -98 250 -29 270 35 c 258
 678 1396 l 258
 698 1460 766 1498 830 1478 c 256
 894 1458 932 1390 912 1326 c 258
 506 -35 l 258
 486 -99 417 -138 353 -118 c 256
EndSplineSet
EndChar

StartChar: o
Encoding: 111 111 149
Width: 1109
GlyphClass: 2
Flags: HW
LayerCount: 2
Fore
SplineSet
567 879 m 256
 398 879 283 715 283 486 c 256
 283 277 403 137 540 137 c 256
 690 137 827 314 827 538 c 256
 827 732 717 879 567 879 c 256
567 1123 m 256
 907 1123 1071 804 1071 538 c 256
 1071 246 890 -107 540 -107 c 256
 217 -107 37 199 37 486 c 256
 37 777 202 1123 567 1123 c 256
EndSplineSet
EndChar

StartChar: one
Encoding: 49 49 155
Width: 715
GlyphClass: 2
Flags: HW
LayerCount: 2
Fore
SplineSet
505 -122 m 256
 438 -121 383 -66 384 1 c 258
 393 1317 l 258
 394 1384 449 1439 516 1438 c 256
 583 1437 638 1382 637 1315 c 258
 628 -1 l 258
 627 -68 572 -123 505 -122 c 256
598 1406 m 256
 647 1361 650 1282 605 1233 c 256
 493 1112 363 1011 214 938 c 256
 154 908 80 934 50 994 c 256
 20 1054 46 1128 106 1158 c 256
 226 1217 331 1297 425 1399 c 256
 470 1448 549 1451 598 1406 c 256
EndSplineSet
EndChar

StartChar: onehalf
Encoding: 189 189 156
Width: 2060
GlyphClass: 2
Flags: HW
LayerCount: 2
Fore
SplineSet
426 -18 m 256
 393 14 390 71 422 104 c 256
 777 480 1222 1065 1438 1455 c 256
 1461 1495 1514 1510 1554 1488 c 256
 1594 1465 1608 1413 1586 1373 c 256
 1358 963 914 374 548 -14 c 256
 516 -48 459 -50 426 -18 c 256
380 436 m 256
 333 439 299 480 302 526 c 258
 360 1420 l 257
 308 1384 255 1348 204 1317 c 256
 164 1293 108 1308 86 1346 c 256
 63 1386 77 1439 117 1462 c 256
 202 1511 289 1580 362 1649 c 256
 373 1659 401 1672 421 1672 c 258
 456 1672 l 258
 504 1672 543 1630 540 1582 c 258
 470 514 l 258
 467 467 426 433 380 436 c 256
1293 284 m 256
 1247 284 1208 323 1208 370 c 256
 1208 584 1357 790 1597 790 c 256
 1813 790 1946 618 1946 424 c 256
 1946 209 1818 51 1656 -86 c 258
 1481 -236 l 257
 1561 -233 1638 -233 1716 -235 c 256
 1778 -237 1843 -238 1905 -242 c 256
 1951 -244 1987 -285 1985 -332 c 256
 1983 -378 1942 -414 1895 -412 c 256
 1797 -407 1698 -404 1604 -404 c 256
 1486 -404 1372 -409 1258 -420 c 256
 1191 -426 1126 -332 1192 -272 c 258
 1479 -11 l 258
 1651 146 1774 287 1774 424 c 256
 1774 549 1691 620 1586 620 c 256
 1456 620 1378 507 1378 370 c 256
 1378 323 1339 284 1293 284 c 256
EndSplineSet
EndChar

StartChar: onequarter
Encoding: 188 188 157
Width: 2006
GlyphClass: 2
Flags: HW
LayerCount: 2
Fore
SplineSet
380 436 m 256
 333 439 299 480 302 526 c 258
 360 1420 l 257
 308 1384 255 1348 204 1317 c 256
 164 1293 108 1308 86 1346 c 256
 63 1386 77 1439 117 1462 c 256
 202 1511 289 1580 362 1649 c 256
 373 1659 401 1672 421 1672 c 258
 456 1672 l 258
 504 1672 543 1630 540 1582 c 258
 470 514 l 258
 467 467 426 433 380 436 c 256
1553 764 m 256
 1596 746 1618 697 1600 653 c 256
 1521 456 1348 164 1224 -30 c 257
 1428 -35 1666 -21 1826 19 c 256
 1870 29 1918 1 1928 -43 c 256
 1938 -87 1910 -135 1866 -145 c 256
 1638 -200 1301 -220 1059 -186 c 256
 1052 -185 1033 -180 1026 -175 c 256
 986 -151 972 -92 1002 -52 c 256
 1116 102 1356 501 1442 717 c 256
 1460 760 1509 782 1553 764 c 256
1611 342 m 256
 1656 338 1692 294 1688 249 c 258
 1626 -376 l 258
 1622 -421 1579 -456 1534 -452 c 256
 1489 -448 1454 -405 1458 -360 c 258
 1518 265 l 258
 1522 310 1566 346 1611 342 c 256
426 -18 m 256
 393 14 390 71 422 104 c 256
 776 480 1222 1065 1438 1455 c 256
 1461 1495 1514 1510 1554 1488 c 256
 1594 1465 1608 1413 1586 1373 c 256
 1358 963 914 374 548 -14 c 256
 516 -48 459 -50 426 -18 c 256
EndSplineSet
EndChar

StartChar: ordfeminine
Encoding: 170 170 158
Width: 936
GlyphClass: 2
Flags: HW
LayerCount: 2
Fore
SplineSet
394 942 m 256
 530 942 592 1099 592 1247 c 256
 592 1373 532 1414 437 1414 c 256
 319 1414 226 1304 226 1156 c 256
 226 1022 300 942 394 942 c 256
394 850 m 256
 236 850 134 990 134 1156 c 256
 134 1340 255 1504 437 1504 c 256
 574 1504 684 1421 684 1247 c 256
 684 1095 618 850 394 850 c 256
717 1500 m 256
 739 1489 749 1461 738 1439 c 256
 715 1390 678 1248 678 1134 c 256
 678 1016 714 942 756 942 c 256
 781 942 802 921 802 896 c 256
 802 871 781 850 756 850 c 256
 610 850 586 1032 586 1134 c 256
 586 1266 623 1412 656 1479 c 256
 667 1501 695 1511 717 1500 c 256
EndSplineSet
EndChar

StartChar: oslash
Encoding: 248 248 160
Width: 1144
GlyphClass: 2
Flags: HW
LayerCount: 2
Fore
SplineSet
87 -146 m 256
 57 -126 48 -85 67 -55 c 256
 309 320 713 839 999 1110 c 256
 1024 1134 1068 1133 1092 1107 c 256
 1116 1081 1115 1038 1090 1014 c 256
 811 748 410 234 178 -125 c 256
 158 -155 116 -165 87 -146 c 256
EndSplineSet
Refer: 149 111 N 1 0 0 1 26 0 2
EndChar

StartChar: p
Encoding: 112 112 162
Width: 1187
GlyphClass: 2
Flags: HW
LayerCount: 2
Fore
SplineSet
313 15 m 256
 313 82 369 137 436 137 c 256
 803 137 905 378 905 568 c 256
 905 806 789 879 698 879 c 256
 578 879 367 715 350 286 c 256
 348 219 290 167 223 169 c 256
 156 171 104 229 106 296 c 256
 125 779 376 1123 698 1123 c 256
 957 1123 1149 894 1149 568 c 256
 1149 284 959 -107 436 -107 c 256
 369 -107 313 -52 313 15 c 256
188 -555 m 256
 121 -552 68 -495 71 -428 c 258
 103 260 l 258
 111 390 117 503 117 603 c 256
 117 737 98 859 70 916 c 256
 40 976 66 1051 126 1081 c 256
 186 1111 260 1086 290 1026 c 256
 350 905 363 755 363 603 c 256
 363 493 355 376 347 246 c 258
 315 -438 l 258
 312 -505 255 -558 188 -555 c 256
EndSplineSet
EndChar

StartChar: paragraph
Encoding: 182 182 163
Width: 1319
GlyphClass: 2
Flags: HW
LayerCount: 2
Fore
SplineSet
620 1092 m 256
 660 1092 692 1060 692 1020 c 258
 692 -382 l 258
 692 -422 660 -454 620 -454 c 256
 580 -454 548 -422 548 -382 c 258
 548 1020 l 258
 548 1060 580 1092 620 1092 c 256
923 1032 m 256
 963 1032 991 1000 991 960 c 258
 991 -442 l 258
 991 -482 963 -514 923 -514 c 256
 883 -514 855 -482 855 -442 c 258
 855 960 l 258
 855 1000 883 1032 923 1032 c 256
1240 1054 m 256
 1190 1010 1110 1016 1066 1066 c 256
 983 1161 871 1223 715 1223 c 256
 480 1223 283 1036 283 811 c 256
 283 600 499 431 750 431 c 256
 813 431 876 442 936 464 c 256
 998 487 1071 456 1094 394 c 256
 1117 332 1086 259 1024 236 c 256
 936 202 843 185 750 185 c 256
 411 185 37 420 37 811 c 256
 37 1182 354 1469 715 1469 c 256
 945 1469 1129 1369 1252 1228 c 256
 1296 1178 1290 1098 1240 1054 c 256
EndSplineSet
EndChar

StartChar: parenleft
Encoding: 40 40 164
Width: 606
GlyphClass: 2
Flags: HW
LayerCount: 2
Fore
SplineSet
414 1522 m 256
 474 1492 500 1418 470 1358 c 256
 349 1109 323 958 323 682 c 256
 323 422 388 271 516 8 c 256
 546 -52 520 -126 460 -156 c 256
 400 -186 326 -160 296 -100 c 256
 168 163 77 372 77 682 c 256
 77 976 115 1189 250 1466 c 256
 280 1526 354 1552 414 1522 c 256
EndSplineSet
EndChar

StartChar: parenright
Encoding: 41 41 165
Width: 606
GlyphClass: 2
Flags: HW
LayerCount: 2
Fore
SplineSet
192 -156 m 256
 132 -126 106 -52 136 8 c 256
 257 257 283 408 283 684 c 256
 283 944 218 1095 90 1358 c 256
 60 1418 86 1492 146 1522 c 256
 206 1552 280 1526 310 1466 c 256
 438 1203 529 994 529 684 c 256
 529 390 491 177 356 -100 c 256
 326 -160 252 -186 192 -156 c 256
EndSplineSet
PairPos2: "'kern' Horizontal Kerning in Arabic lookup 2 per glyph data 0" uni0622 dx=320 dy=0 dh=320 dv=0 dx=0 dy=0 dh=0 dv=0
EndChar

StartChar: period
Encoding: 46 46 167
Width: 478
GlyphClass: 2
Flags: HW
LayerCount: 2
Fore
SplineSet
47 87 m 256
 47 165 118 243 206 243 c 256
 313 243 353 148 353 94 c 256
 353 28 300 -69 201 -69 c 256
 82 -69 47 32 47 87 c 256
EndSplineSet
EndChar

StartChar: plus
Encoding: 43 43 169
Width: 1033
GlyphClass: 2
Flags: HW
LayerCount: 2
Fore
SplineSet
440 1173 m 256
 505 1188 572 1145 587 1080 c 256
 622 925 639 730 639 566 c 256
 639 443 632 337 603 252 c 256
 581 189 509 155 446 177 c 256
 383 199 349 271 371 334 c 256
 381 363 393 457 393 566 c 256
 393 714 376 897 347 1026 c 256
 332 1091 375 1158 440 1173 c 256
39 626 m 256
 31 692 79 754 145 762 c 256
 307 782 462 789 618 789 c 256
 704 789 790 787 878 783 c 256
 945 780 998 723 995 656 c 256
 992 589 935 536 868 539 c 256
 784 543 700 545 618 545 c 256
 470 545 327 538 175 520 c 256
 109 512 47 560 39 626 c 256
EndSplineSet
EndChar

StartChar: q
Encoding: 113 113 171
Width: 1163
GlyphClass: 2
Flags: HW
LayerCount: 2
Fore
SplineSet
856 789 m 256
 804 748 725 757 684 809 c 256
 652 850 605 879 532 879 c 256
 390 879 283 713 283 484 c 256
 283 246 355 137 506 137 c 256
 660 137 754 250 813 440 c 256
 833 504 902 540 966 520 c 256
 1030 500 1067 430 1047 366 c 256
 977 144 820 -109 506 -109 c 256
 151 -109 37 212 37 484 c 256
 37 751 170 1123 532 1123 c 256
 679 1123 800 1056 876 961 c 256
 917 909 908 830 856 789 c 256
972 1099 m 256
 1039 1094 1090 1035 1085 968 c 256
 1063 673 1051 381 1051 87 c 256
 1051 -81 1055 -250 1062 -420 c 256
 1065 -487 1013 -544 946 -547 c 256
 879 -550 821 -497 818 -430 c 256
 811 -258 807 -85 807 87 c 256
 807 387 819 687 841 986 c 256
 846 1053 905 1104 972 1099 c 256
EndSplineSet
EndChar

StartChar: question
Encoding: 63 63 172
Width: 1155
GlyphClass: 2
Flags: HW
LayerCount: 2
Fore
SplineSet
353 814 m 256
 294 784 218 808 188 867 c 256
 149 943 127 1021 127 1097 c 256
 127 1339 338 1483 581 1483 c 256
 835 1483 1027 1304 1027 1058 c 256
 1027 868 865 782 762 696 c 256
 676 624 652 590 652 522 c 256
 652 512 653 500 658 486 c 256
 675 436 638 365 574 345 c 256
 510 325 440 361 420 425 c 256
 412 453 408 490 408 522 c 256
 408 673 518 771 625 860 c 256
 744 958 783 998 783 1079 c 256
 783 1164 717 1239 574 1239 c 256
 440 1239 373 1174 373 1097 c 256
 373 1062 381 1027 406 979 c 256
 436 920 412 844 353 814 c 256
697 89 m 256
 697 -2 622 -77 530 -77 c 256
 441 -77 363 -7 363 89 c 256
 363 182 437 257 530 257 c 256
 625 257 697 178 697 89 c 256
EndSplineSet
EndChar

StartChar: quoteleft
Encoding: 8216 8216 178
Width: 644
GlyphClass: 2
Flags: HW
LayerCount: 2
Fore
SplineSet
335 1368 m 256
 272 1368 226 1329 226 1225 c 256
 226 1084 289 948 382 858 c 256
 400 840 402 812 384 794 c 256
 366 776 338 774 320 792 c 256
 211 898 134 1058 134 1225 c 256
 134 1361 214 1460 335 1460 c 256
 457 1460 510 1353 510 1261 c 256
 510 1169 451 1056 335 1056 c 256
 296 1056 238 1072 209 1124 c 256
 197 1146 206 1174 228 1186 c 256
 250 1198 277 1190 289 1168 c 256
 294 1158 316 1148 335 1148 c 256
 379 1148 418 1197 418 1261 c 256
 418 1327 389 1368 335 1368 c 256
EndSplineSet
EndChar

StartChar: quotesingle
Encoding: 39 39 182
Width: 331
GlyphClass: 2
Flags: HW
LayerCount: 2
Fore
SplineSet
155 864 m 256
 130 866 112 890 114 915 c 256
 121 977 126 1051 126 1126 c 256
 126 1203 121 1285 114 1357 c 256
 112 1382 131 1404 156 1406 c 256
 181 1408 204 1390 206 1365 c 256
 213 1289 216 1207 216 1126 c 256
 216 1047 213 971 206 905 c 256
 204 880 180 862 155 864 c 256
EndSplineSet
EndChar

StartChar: r
Encoding: 114 114 183
Width: 905
GlyphClass: 2
Flags: HW
LayerCount: 2
Fore
SplineSet
866 1014 m 256
 878 949 833 882 768 870 c 256
 419 802 376 494 336 -10 c 256
 330 -77 271 -128 204 -122 c 256
 137 -116 86 -57 92 10 c 256
 130 472 169 1006 722 1112 c 256
 787 1124 854 1079 866 1014 c 256
202 -122 m 256
 136 -115 85 -54 92 12 c 256
 106 150 119 348 119 532 c 256
 119 701 104 862 82 936 c 256
 63 1000 102 1069 166 1088 c 256
 230 1107 299 1070 318 1006 c 256
 354 884 363 713 363 532 c 256
 363 338 352 136 336 -12 c 256
 329 -78 268 -129 202 -122 c 256
EndSplineSet
EndChar

StartChar: s
Encoding: 115 115 185
Width: 980
GlyphClass: 2
Flags: HW
LayerCount: 2
Fore
SplineSet
844 698 m 256
 780 678 712 714 691 778 c 256
 672 838 614 879 507 879 c 256
 404 879 330 817 330 761 c 257
 332 687 404 649 556 611 c 256
 680 580 943 505 943 239 c 256
 943 -13 674 -107 488 -107 c 256
 316 -107 146 -47 58 73 c 256
 21 128 36 206 92 243 c 256
 147 279 207 250 261 210 c 256
 303 172 394 137 488 137 c 256
 638 137 697 185 697 236 c 256
 697 296 640 340 496 373 c 256
 374 401 85 470 85 760 c 256
 85 980 304 1125 507 1125 c 256
 692 1125 870 1028 925 852 c 256
 945 788 908 718 844 698 c 256
EndSplineSet
EndChar

StartChar: section
Encoding: 167 167 186
Width: 916
GlyphClass: 2
Flags: HW
LayerCount: 2
Fore
SplineSet
591 872 m 256
 591 805 536 749 469 749 c 256
 385 749 282 714 282 668 c 256
 282 616 366 597 456 587 c 256
 602 572 889 481 889 209 c 256
 889 -45 610 -107 457 -107 c 256
 296 -107 167 -47 74 27 c 256
 22 68 13 147 54 199 c 256
 95 251 174 260 226 219 c 256
 287 171 358 137 457 137 c 256
 567 137 643 172 643 227 c 256
 643 291 556 330 430 343 c 256
 294 357 35 419 35 673 c 256
 35 909 303 995 469 995 c 256
 536 995 591 939 591 872 c 256
786 1039 m 256
 721 1025 654 1067 640 1132 c 256
 630 1179 576 1223 472 1223 c 256
 359 1223 281 1161 281 1104 c 256
 281 1044 316 1012 482 994 c 256
 621 980 889 918 889 662 c 256
 889 395 581 343 443 343 c 256
 376 343 321 398 321 465 c 256
 321 532 376 587 443 587 c 256
 529 587 642 614 642 665 c 256
 642 717 555 740 456 750 c 256
 312 765 37 813 37 1104 c 256
 37 1342 285 1469 472 1469 c 256
 632 1469 834 1395 880 1186 c 256
 894 1121 851 1053 786 1039 c 256
EndSplineSet
EndChar

StartChar: seven
Encoding: 55 55 188
Width: 1080
GlyphClass: 2
Flags: HW
LayerCount: 2
Fore
SplineSet
38 1257 m 256
 33 1324 85 1382 152 1387 c 258
 906 1436 l 258
 976 1441 1037 1383 1036 1312 c 256
 1036 1293 1030 1272 1024 1260 c 256
 851 914 736 428 663 -20 c 256
 652 -86 588 -131 522 -120 c 256
 456 -109 411 -46 422 20 c 256
 485 409 577 828 721 1179 c 257
 168 1143 l 258
 101 1138 43 1190 38 1257 c 256
EndSplineSet
EndChar

StartChar: six
Encoding: 54 54 189
Width: 1099
GlyphClass: 2
Flags: HW
LayerCount: 2
Fore
SplineSet
548 137 m 256
 706 137 819 258 817 415 c 256
 813 621 700 689 576 689 c 256
 444 689 296 579 274 542 c 256
 239 485 163 467 106 502 c 256
 49 537 31 613 66 670 c 256
 142 793 342 933 576 933 c 256
 822 933 1055 751 1061 419 c 256
 1067 132 846 -107 548 -107 c 256
 193 -107 37 183 37 475 c 256
 37 899 125 1439 619 1439 c 256
 699 1439 786 1426 879 1398 c 256
 943 1378 981 1310 962 1246 c 256
 943 1182 873 1144 809 1164 c 256
 734 1186 671 1195 619 1195 c 256
 385 1195 283 931 283 475 c 256
 283 253 366 137 548 137 c 256
EndSplineSet
EndChar

StartChar: slash
Encoding: 47 47 190
Width: 965
GlyphClass: 2
Flags: HW
LayerCount: 2
Fore
SplineSet
137 -105 m 256
 80 -71 61 5 95 63 c 256
 361 505 551 933 645 1386 c 256
 659 1451 725 1495 790 1481 c 256
 855 1467 899 1401 885 1336 c 256
 783 849 581 395 305 -63 c 256
 271 -121 194 -139 137 -105 c 256
EndSplineSet
EndChar

StartChar: sterling
Encoding: 163 163 192
Width: 1454
GlyphClass: 2
Flags: HW
LayerCount: 2
Fore
SplineSet
230 708 m 256
 246 772 315 813 379 797 c 256
 437 782 506 775 578 775 c 256
 682 775 789 790 876 806 c 256
 941 818 1008 773 1020 708 c 256
 1032 643 987 576 922 564 c 256
 822 544 702 531 578 531 c 256
 492 531 403 538 319 559 c 256
 255 575 214 644 230 708 c 256
1306 378 m 256
 1378 378 1427 316 1427 254 c 256
 1417 -30 1028 -107 828 -107 c 256
 654 -107 503 -62 392 -17 c 257
 346 -42 291 -55 225 -55 c 256
 129 -55 27 -6 27 110 c 256
 27 219 142 267 219 267 c 256
 247 267 279 265 312 259 c 257
 355 337 377 485 377 687 c 258
 377 939 l 258
 377 1168 385 1469 622 1469 c 256
 766 1469 850 1381 850 1241 c 256
 850 1129 816 1071 766 1071 c 256
 742 1071 722 1076 710 1083 c 256
 702 1109 685 1122 662 1122 c 256
 628 1122 621 1025 621 939 c 258
 621 687 l 258
 621 527 613 337 555 187 c 257
 633 161 728 137 828 137 c 256
 1052 137 1164 179 1184 278 c 256
 1197 337 1248 378 1306 378 c 256
EndSplineSet
EndChar

StartChar: t
Encoding: 116 116 193
Width: 775
GlyphClass: 2
Flags: HW
LayerCount: 2
Fore
SplineSet
736 804 m 256
 728 738 666 691 600 699 c 256
 534 707 463 711 388 711 c 256
 317 711 245 707 175 699 c 256
 109 691 47 739 39 805 c 256
 31 871 79 933 145 941 c 256
 225 951 307 955 388 955 c 256
 471 955 552 951 630 941 c 256
 696 933 744 870 736 804 c 256
416 1337 m 256
 482 1329 531 1268 523 1202 c 256
 490 918 465 640 465 355 c 256
 465 245 472 137 538 137 c 256
 552 137 571 138 590 142 c 256
 655 154 720 109 732 44 c 256
 744 -21 699 -86 634 -98 c 256
 599 -104 568 -107 538 -107 c 256
 254 -107 221 196 221 355 c 256
 221 654 248 944 281 1230 c 256
 289 1296 350 1345 416 1337 c 256
EndSplineSet
EndChar

StartChar: thorn
Encoding: 254 254 194
Width: 1166
GlyphClass: 2
Flags: HW
LayerCount: 2
Fore
SplineSet
236 1483 m 256
 303 1481 358 1426 356 1359 c 258
 322 -367 l 258
 320 -434 265 -489 198 -487 c 256
 131 -485 76 -430 78 -363 c 258
 112 1363 l 258
 114 1430 169 1485 236 1483 c 256
EndSplineSet
Refer: 149 111 N 1 0 0 1 57 0 2
EndChar

StartChar: three
Encoding: 51 51 195
Width: 1078
GlyphClass: 2
Flags: HW
LayerCount: 2
Fore
SplineSet
198 947 m 256
 133 962 90 1029 105 1094 c 256
 157 1324 351 1469 581 1469 c 256
 795 1469 993 1305 993 1008 c 256
 993 654 590 580 378 550 c 256
 312 541 249 588 240 654 c 256
 231 720 279 783 345 792 c 256
 597 826 747 887 747 1008 c 256
 747 1156 666 1223 570 1223 c 256
 454 1223 371 1158 345 1040 c 256
 330 975 263 932 198 947 c 256
65 204 m 256
 108 255 187 264 238 221 c 256
 303 168 394 137 484 137 c 256
 662 137 795 244 795 390 c 257
 790 520 701 567 531 567 c 256
 484 567 432 559 382 550 c 256
 316 538 252 585 240 650 c 256
 228 715 274 780 340 792 c 256
 392 801 459 812 532 812 c 256
 756 812 1031 724 1041 414 c 257
 1041 113 778 -107 484 -107 c 256
 342 -107 197 -64 82 31 c 256
 31 74 22 153 65 204 c 256
EndSplineSet
EndChar

StartChar: threequarters
Encoding: 190 190 196
Width: 2156
GlyphClass: 2
Flags: HW
LayerCount: 2
Fore
SplineSet
195 1268 m 256
 150 1278 121 1325 131 1370 c 256
 169 1543 330 1644 479 1644 c 256
 633 1644 780 1525 780 1307 c 256
 780 1037 482 966 326 931 c 256
 281 921 234 950 224 995 c 256
 214 1040 243 1087 288 1097 c 256
 473 1139 610 1199 610 1320 c 256
 610 1420 546 1474 474 1474 c 256
 387 1474 315 1412 297 1332 c 256
 287 1287 240 1258 195 1268 c 256
810 828 m 257
 809 590 610 452 402 452 c 256
 298 452 190 487 106 556 c 256
 70 584 65 641 94 676 c 256
 123 712 179 716 214 688 c 256
 264 646 334 624 402 624 c 256
 537 624 640 690 640 814 c 257
 639 898 569 954 464 954 c 256
 422 954 375 945 328 932 c 256
 284 920 237 949 225 993 c 256
 213 1037 242 1084 286 1096 c 256
 334 1109 394 1126 464 1126 c 256
 632 1126 803 1022 810 828 c 257
576 -18 m 256
 543 14 540 71 572 104 c 256
 926 480 1372 1065 1588 1455 c 256
 1611 1495 1664 1510 1704 1488 c 256
 1744 1465 1758 1413 1736 1373 c 256
 1508 963 1064 374 698 -14 c 256
 666 -48 609 -50 576 -18 c 256
1703 764 m 256
 1746 746 1768 697 1750 653 c 256
 1671 456 1498 164 1374 -30 c 257
 1578 -35 1816 -21 1976 19 c 256
 2020 29 2068 1 2078 -43 c 256
 2088 -87 2060 -135 2016 -145 c 256
 1788 -200 1451 -220 1209 -186 c 256
 1202 -185 1183 -180 1176 -175 c 256
 1136 -151 1122 -92 1152 -52 c 256
 1266 102 1506 501 1592 717 c 256
 1610 760 1659 782 1703 764 c 256
1761 342 m 256
 1806 338 1842 294 1838 249 c 258
 1776 -376 l 258
 1772 -421 1729 -456 1684 -452 c 256
 1639 -448 1604 -405 1608 -360 c 258
 1668 265 l 258
 1672 310 1716 346 1761 342 c 256
EndSplineSet
EndChar

StartChar: two
Encoding: 50 50 197
Width: 1171
GlyphClass: 2
Flags: HW
LayerCount: 2
Fore
SplineSet
208 781 m 256
 141 781 85 837 85 904 c 256
 85 1188 284 1469 609 1469 c 256
 893 1469 1075 1249 1075 1021 c 256
 1075 737 850 509 620 299 c 258
 495 185 l 257
 539 188 582 189 626 189 c 256
 755 189 885 184 1016 178 c 256
 1083 175 1136 117 1133 50 c 256
 1130 -17 1073 -69 1006 -66 c 256
 877 -60 749 -55 626 -55 c 256
 471 -55 322 -62 172 -77 c 256
 138 -80 102 -68 76 -44 c 256
 25 4 26 87 78 135 c 258
 454 479 l 258
 686 691 831 877 831 1021 c 256
 831 1119 755 1223 609 1223 c 256
 448 1223 331 1086 331 904 c 256
 331 837 275 781 208 781 c 256
EndSplineSet
EndChar

StartChar: u
Encoding: 117 117 198
Width: 1103
GlyphClass: 2
Flags: HW
LayerCount: 2
Fore
SplineSet
274 1091 m 256
 339 1077 382 1009 368 944 c 256
 346 846 323 618 323 392 c 256
 323 196 366 137 454 137 c 256
 603 137 681 234 733 607 c 256
 742 673 805 720 871 711 c 256
 937 702 984 639 975 573 c 256
 925 208 809 -107 454 -107 c 256
 142 -107 77 192 77 392 c 256
 77 636 100 868 128 998 c 256
 142 1063 209 1105 274 1091 c 256
870 1093 m 256
 937 1089 989 1031 985 964 c 256
 979 857 977 749 977 639 c 256
 977 439 979 286 1023 69 c 256
 1036 4 992 -62 927 -75 c 256
 862 -88 796 -44 783 21 c 256
 735 260 731 437 731 639 c 256
 731 753 735 867 741 978 c 256
 745 1045 803 1097 870 1093 c 256
EndSplineSet
EndChar

StartChar: underscore
Encoding: 95 95 203
Width: 600
GlyphClass: 2
Flags: HW
LayerCount: 2
Fore
SplineSet
723 45 m 256
 723 -22 667 -77 600 -77 c 258
 0 -77 l 258
 -67 -77 -123 -22 -123 45 c 256
 -123 112 -67 167 0 167 c 258
 600 167 l 258
 667 167 723 112 723 45 c 256
EndSplineSet
EndChar

StartChar: uni00B2
Encoding: 178 178 206
Width: 718
GlyphClass: 2
Flags: HW
LayerCount: 2
Fore
SplineSet
180 1252 m 256
 155 1252 134 1273 134 1298 c 256
 134 1412 214 1522 343 1522 c 256
 457 1522 534 1433 534 1327 c 256
 534 1196 455 1116 370 1034 c 258
 306 973 l 257
 536 986 l 258
 561 988 582 967 584 942 c 256
 586 917 565 896 540 894 c 258
 190 876 l 258
 178 875 166 879 157 887 c 256
 137 905 137 936 156 954 c 258
 306 1100 l 258
 395 1186 442 1234 442 1327 c 256
 442 1389 403 1432 343 1432 c 256
 274 1432 226 1374 226 1298 c 256
 226 1273 205 1252 180 1252 c 256
EndSplineSet
EndChar

StartChar: uni00B3
Encoding: 179 179 207
Width: 664
GlyphClass: 2
Flags: HW
LayerCount: 2
Fore
SplineSet
199 1303 m 256
 175 1308 159 1334 164 1358 c 256
 181 1434 247 1504 343 1504 c 256
 441 1504 514 1420 514 1326 c 256
 514 1188 350 1149 267 1132 c 256
 243 1127 218 1144 213 1168 c 256
 208 1192 225 1217 249 1222 c 256
 347 1243 422 1278 422 1326 c 256
 422 1374 385 1414 343 1414 c 256
 297 1414 263 1380 254 1338 c 256
 249 1314 223 1298 199 1303 c 256
214 1166 m 256
 208 1190 223 1215 247 1221 c 256
 274 1227 307 1234 343 1234 c 256
 433 1234 525 1184 530 1077 c 256
 530 948 422 874 310 874 c 256
 254 874 197 892 152 928 c 256
 133 944 128 974 144 993 c 256
 160 1012 190 1016 209 1000 c 256
 236 978 274 966 310 966 c 256
 386 966 437 1009 438 1075 c 256
 436 1116 405 1144 343 1144 c 256
 319 1144 292 1139 269 1133 c 256
 245 1127 220 1142 214 1166 c 256
EndSplineSet
EndChar

StartChar: uni00B9
Encoding: 185 185 208
Width: 526
GlyphClass: 2
Flags: HW
LayerCount: 2
Fore
SplineSet
323 788 m 256
 298 790 278 811 280 836 c 258
 314 1361 l 257
 270 1331 227 1307 177 1287 c 256
 154 1278 127 1289 118 1312 c 256
 109 1335 121 1362 144 1371 c 256
 216 1399 279 1443 335 1493 c 256
 343 1499 354 1504 365 1504 c 256
 391 1504 414 1482 412 1456 c 258
 372 830 l 258
 370 805 348 786 323 788 c 256
EndSplineSet
EndChar

StartChar: uni0237
Encoding: 567 567 209
Width: 404
GlyphClass: 2
Flags: HW
LayerCount: 2
Fore
SplineSet
201 1093 m 256
 268 1093 323 1038 323 971 c 256
 323 664 322 417 315 220 c 256
 299 -198 264 -537 -50 -537 c 256
 -117 -537 -172 -481 -172 -414 c 256
 -172 -347 -117 -291 -50 -291 c 256
 38 -291 58 -136 71 230 c 256
 78 421 79 664 79 971 c 256
 79 1038 134 1093 201 1093 c 256
EndSplineSet
EndChar

StartChar: uni060C
Encoding: 1548 1548 210
Width: 644
GlyphClass: 2
Flags: HW
LayerCount: 2
Fore
SplineSet
335 -30 m 256
 214 -30 134 68 134 204 c 256
 134 371 211 530 320 636 c 256
 338 654 366 654 384 636 c 256
 402 618 400 590 382 572 c 256
 289 482 226 345 226 204 c 256
 226 100 272 60 335 60 c 256
 389 60 418 102 418 168 c 256
 418 232 379 282 335 282 c 256
 316 282 294 272 289 262 c 256
 277 240 250 231 228 243 c 256
 206 255 197 282 209 304 c 256
 238 356 296 372 335 372 c 256
 451 372 510 260 510 168 c 256
 510 76 457 -30 335 -30 c 256
EndSplineSet
EndChar

StartChar: uni061F
Encoding: 1567 1567 213
Width: 1105
GlyphClass: 2
Flags: HW
LayerCount: 2
Fore
SplineSet
756 803 m 256
 698 837 679 913 712 970 c 256
 719 983 733 1032 733 1066 c 256
 733 1148 682 1193 617 1193 c 256
 459 1193 373 1062 373 992 c 256
 373 946 428 897 503 836 c 256
 606 752 713 647 714 476 c 256
 714 407 662 352 595 352 c 256
 523 352 472 403 470 470 c 256
 468 525 447 571 343 650 c 256
 267 709 127 814 127 983 c 256
 127 1190 313 1439 617 1439 c 256
 824 1439 977 1270 977 1066 c 256
 977 984 960 908 924 846 c 256
 890 788 814 769 756 803 c 256
421 89 m 256
 421 178 491 257 587 257 c 256
 680 257 755 182 755 89 c 256
 755 -6 676 -77 587 -77 c 256
 496 -77 421 -3 421 89 c 256
EndSplineSet
EndChar

StartChar: uni0660
Encoding: 1632 1632 265
Width: 737
GlyphClass: 2
Flags: HW
LayerCount: 2
Fore
SplineSet
248 395 m 256
 248 332 309 268 380 268 c 256
 429 268 488 324 488 404 c 256
 488 472 447 510 392 510 c 256
 305 510 248 450 248 395 c 256
72 395 m 256
 72 568 227 688 392 688 c 256
 553 688 666 556 666 404 c 256
 666 246 551 92 380 92 c 256
 211 92 72 230 72 395 c 256
EndSplineSet
EndChar

StartChar: uni0661
Encoding: 1633 1633 266
Width: 580
GlyphClass: 2
Flags: HW
LayerCount: 2
Fore
SplineSet
140 1287 m 256
 203 1309 274 1274 296 1211 c 256
 442 787 523 497 523 0 c 256
 523 -67 467 -122 400 -122 c 256
 333 -122 278 -67 278 0 c 256
 278 471 208 709 64 1131 c 256
 42 1194 77 1265 140 1287 c 256
EndSplineSet
EndChar

StartChar: uni0662
Encoding: 1634 1634 267
Width: 1014
GlyphClass: 2
Flags: HW
LayerCount: 2
Fore
SplineSet
854 1319 m 256
 921 1319 977 1263 977 1196 c 256
 977 912 896 547 578 547 c 256
 248 547 124 966 66 1122 c 256
 43 1184 75 1256 137 1279 c 256
 199 1302 270 1270 295 1208 c 256
 413 910 470 791 568 791 c 256
 666 791 731 894 731 1196 c 256
 731 1263 787 1319 854 1319 c 256
132 1278 m 256
 194 1304 267 1274 293 1212 c 256
 439 860 574 472 574 0 c 256
 574 -67 518 -122 451 -122 c 256
 384 -122 329 -67 329 0 c 256
 329 426 209 776 67 1118 c 256
 41 1180 70 1252 132 1278 c 256
EndSplineSet
EndChar

StartChar: uni0663
Encoding: 1635 1635 268
Width: 1285
GlyphClass: 2
Flags: HW
LayerCount: 2
Fore
SplineSet
1103 1338 m 256
 1169 1344 1229 1293 1235 1226 c 256
 1241 1160 1244 1099 1244 1040 c 256
 1244 818 1195 545 940 545 c 256
 631 545 590 892 590 1166 c 256
 590 1233 631 1288 698 1288 c 256
 765 1288 820 1233 820 1166 c 256
 820 874 850 791 920 791 c 256
 980 791 1002 867 1002 993 c 256
 1002 1054 997 1127 991 1206 c 256
 985 1273 1037 1332 1103 1338 c 256
698 1289 m 256
 765 1289 818 1233 820 1166 c 256
 824 899 825 545 509 545 c 256
 235 545 173 805 64 1120 c 256
 42 1183 77 1254 140 1276 c 256
 203 1298 274 1263 296 1200 c 256
 423 834 450 791 504 791 c 256
 573 791 590 856 590 1166 c 256
 590 1233 631 1289 698 1289 c 256
140 1276 m 256
 203 1298 274 1263 296 1200 c 256
 436 799 532 455 532 0 c 256
 532 -67 476 -122 409 -122 c 256
 342 -122 287 -67 287 0 c 256
 287 419 201 725 64 1120 c 256
 42 1183 77 1254 140 1276 c 256
EndSplineSet
EndChar

StartChar: uni0664
Encoding: 1636 1636 269
Width: 1037
GlyphClass: 2
Flags: HW
LayerCount: 2
Fore
SplineSet
773 1182 m 256
 773 1115 717 1059 650 1059 c 256
 458 1059 307 987 307 905 c 256
 307 815 431 726 544 698 c 256
 608 682 650 614 634 550 c 256
 618 486 550 444 486 460 c 256
 327 500 61 652 61 905 c 256
 61 1233 468 1305 650 1305 c 256
 717 1305 773 1249 773 1182 c 256
628 624 m 256
 653 562 622 491 560 466 c 256
 413 408 283 310 283 234 c 256
 283 152 400 137 560 137 c 256
 663 137 769 157 829 183 c 256
 891 209 964 180 990 118 c 256
 1016 56 987 -17 925 -43 c 256
 821 -87 692 -107 526 -107 c 256
 324 -107 37 -63 37 211 c 256
 37 464 303 626 470 692 c 256
 532 717 603 686 628 624 c 256
EndSplineSet
EndChar

StartChar: uni0665
Encoding: 1637 1637 270
Width: 1150
GlyphClass: 2
Flags: HW
LayerCount: 2
Fore
SplineSet
583 -107 m 256
 299 -107 37 43 37 348 c 256
 37 704 369 994 537 1130 c 256
 589 1172 667 1164 709 1112 c 256
 751 1060 744 982 692 940 c 256
 525 804 283 550 283 348 c 256
 283 221 367 137 583 137 c 256
 788 137 867 208 867 332 c 256
 867 592 513 893 241 1086 c 256
 187 1125 173 1203 212 1257 c 256
 251 1311 329 1325 383 1286 c 256
 637 1105 1113 772 1113 332 c 256
 1113 24 846 -107 583 -107 c 256
EndSplineSet
EndChar

StartChar: uni0666
Encoding: 1638 1638 271
Width: 1136
GlyphClass: 2
Flags: HW
LayerCount: 2
Fore
SplineSet
40 1136 m 256
 29 1202 74 1265 140 1276 c 256
 232 1292 322 1299 412 1299 c 256
 677 1299 925 1191 925 856 c 256
 925 417 941 323 1067 51 c 256
 1095 -10 1069 -83 1008 -111 c 256
 947 -139 873 -112 845 -51 c 256
 707 245 679 415 679 856 c 256
 679 1023 629 1053 412 1053 c 256
 334 1053 256 1048 180 1036 c 256
 114 1025 51 1070 40 1136 c 256
EndSplineSet
EndChar

StartChar: uni0667
Encoding: 1639 1639 272
Width: 1158
GlyphClass: 2
Flags: HW
LayerCount: 2
Fore
SplineSet
95 1270 m 256
 152 1306 228 1288 264 1231 c 256
 404 1010 515 816 591 564 c 257
 660 822 762 1027 892 1258 c 256
 925 1316 1001 1337 1059 1304 c 256
 1117 1271 1137 1194 1104 1136 c 256
 892 762 771 487 719 -12 c 256
 713 -65 672 -110 619 -120 c 256
 550 -132 482 -82 475 -12 c 256
 424 483 286 737 56 1101 c 256
 20 1158 38 1234 95 1270 c 256
EndSplineSet
EndChar

StartChar: uni0668
Encoding: 1640 1640 273
Width: 1168
GlyphClass: 2
Flags: HW
LayerCount: 2
Fore
SplineSet
1072 -118 m 256
 1015 -153 939 -135 904 -78 c 256
 762 152 653 349 580 603 c 257
 509 353 405 164 264 -64 c 256
 229 -121 153 -139 96 -104 c 256
 39 -69 21 7 56 64 c 256
 289 439 404 679 456 1178 c 256
 462 1231 503 1276 556 1286 c 256
 625 1298 693 1248 700 1178 c 256
 751 682 879 426 1112 50 c 256
 1147 -7 1129 -83 1072 -118 c 256
EndSplineSet
EndChar

StartChar: uni0669
Encoding: 1641 1641 274
Width: 1022
GlyphClass: 2
Flags: HW
LayerCount: 2
Fore
SplineSet
451 1321 m 256
 771 1321 838 1004 846 776 c 256
 858 439 881 191 951 57 c 256
 982 -2 958 -78 899 -109 c 256
 840 -140 764 -116 734 -57 c 256
 626 153 614 431 601 767 c 256
 592 1007 541 1077 442 1077 c 256
 351 1077 283 969 283 823 c 256
 283 726 330 687 484 687 c 256
 524 687 576 692 588 693 c 256
 654 701 716 653 724 587 c 256
 732 521 684 459 618 451 c 256
 596 448 542 443 484 443 c 256
 282 443 37 538 37 823 c 256
 37 1023 152 1321 451 1321 c 256
EndSplineSet
EndChar

StartChar: uni066B
Encoding: 1643 1643 276
Width: 454
GlyphClass: 2
Flags: HW
LayerCount: 2
Fore
SplineSet
402 617 m 256
 464 591 493 518 467 456 c 258
 85 -431 l 258
 59 -493 -14 -522 -76 -496 c 256
 -138 -470 -167 -397 -141 -335 c 258
 241 552 l 258
 267 614 340 643 402 617 c 256
EndSplineSet
EndChar

StartChar: uni06F4
Encoding: 1780 1780 296
Width: 1118
GlyphClass: 2
Flags: HW
LayerCount: 2
Fore
SplineSet
940 1275 m 256
 958 1211 918 1143 854 1125 c 256
 661 1073 582 928 582 688 c 256
 582 621 526 566 459 566 c 256
 392 566 337 621 337 688 c 256
 337 986 461 1271 790 1361 c 256
 854 1379 922 1339 940 1275 c 256
1060 616 m 256
 1067 550 1016 488 950 481 c 256
 904 476 862 475 824 475 c 256
 676 475 560 509 464 557 c 257
 515 380 531 198 531 0 c 256
 531 -67 475 -122 408 -122 c 256
 341 -122 286 -67 286 0 c 256
 286 342 240 610 77 864 c 256
 49 908 52 982 102 1024 c 256
 156 1069 239 1059 280 1001 c 256
 390 847 520 721 824 721 c 256
 858 721 892 722 926 725 c 256
 992 732 1053 682 1060 616 c 256
EndSplineSet
EndChar

StartChar: uni06F5
Encoding: 1781 1781 297
Width: 1155
GlyphClass: 2
Flags: HW
LayerCount: 2
Fore
SplineSet
264 1237 m 256
 301 1292 379 1308 434 1271 c 256
 618 1148 1117 788 1117 342 c 256
 1117 108 994 -111 772 -111 c 256
 647 -111 548 -30 477 58 c 256
 435 110 443 188 495 230 c 256
 547 272 626 264 668 212 c 256
 707 163 750 134 780 134 c 256
 823 134 873 176 873 342 c 256
 873 610 486 942 298 1067 c 256
 243 1104 227 1182 264 1237 c 256
638 238 m 256
 694 202 711 125 675 69 c 256
 605 -39 497 -109 378 -109 c 256
 180 -109 37 69 37 317 c 256
 37 717 360 994 591 1122 c 256
 649 1155 724 1132 757 1074 c 256
 790 1016 767 941 709 908 c 256
 510 798 283 573 283 317 c 256
 283 159 345 135 378 135 c 256
 401 135 433 145 469 201 c 256
 505 257 582 274 638 238 c 256
EndSplineSet
EndChar

StartChar: uni06F6
Encoding: 1782 1782 298
Width: 976
GlyphClass: 2
Flags: HW
LayerCount: 2
Fore
SplineSet
781 1063 m 256
 741 1009 664 998 610 1038 c 256
 571 1067 535 1077 501 1077 c 256
 397 1077 283 965 283 839 c 256
 283 743 364 677 528 677 c 256
 615 677 689 699 768 733 c 256
 830 759 903 730 929 668 c 256
 955 606 926 533 864 507 c 256
 769 467 659 433 528 433 c 256
 314 433 37 543 37 839 c 256
 37 1095 247 1321 501 1321 c 256
 587 1321 677 1293 756 1234 c 256
 810 1194 821 1117 781 1063 c 256
926 675 m 256
 956 615 931 540 871 510 c 256
 597 372 430 192 293 -59 c 256
 261 -117 186 -139 128 -107 c 256
 70 -75 47 1 79 59 c 256
 233 342 441 568 761 730 c 256
 821 760 896 735 926 675 c 256
EndSplineSet
EndChar

StartChar: uniE000
Encoding: 57344 57344 304
Width: 509
GlyphClass: 2
Flags: HW
LayerCount: 2
Fore
SplineSet
81 141 m 256
 81 205 138 266 212 266 c 256
 297 266 338 175 338 141 c 256
 338 108 312 3 209 3 c 256
 105 3 81 106 81 141 c 256
EndSplineSet
EndChar

StartChar: uniE001
Encoding: 57345 57345 305
Width: 660
GlyphClass: 2
Flags: HW
LayerCount: 2
Fore
SplineSet
39 41 m 256
 6 85 18 147 60 178 c 256
 144 240 254 281 380 281 c 256
 490 281 643 237 638 94 c 256
 638 30 591 -14 537 -14 c 256
 489 -14 453 14 445 54 c 256
 445 76 420 85 380 85 c 256
 296 85 228 58 176 20 c 256
 130 -13 70 0 39 41 c 256
EndSplineSet
EndChar

StartChar: uniE002
Encoding: 57346 57346 306
Width: 696
GlyphClass: 2
Flags: HW
LayerCount: 2
Fore
SplineSet
402 562 m 256
 516 562 647 504 647 371 c 256
 647 205 476 62 348 24 c 256
 296 9 242 39 227 90 c 256
 212 141 240 184 294 212 c 256
 334 229 437 301 437 338 c 256
 437 361 419 370 385 370 c 256
 320 370 166 315 142 302 c 256
 90 278 38 280 6 323 c 256
 -25 366 -17 428 27 460 c 256
 103 515 260 562 402 562 c 256
EndSplineSet
EndChar

StartChar: uniE003
Encoding: 57347 57347 307
Width: 696
GlyphClass: 2
Flags: HW
LayerCount: 2
Fore
SplineSet
421 44 m 256
 376 74 363 135 393 180 c 256
 399 190 405 205 405 230 c 256
 405 274 376 308 308 308 c 256
 257 308 220 266 220 234 c 256
 220 183 241 162 299 108 c 256
 338 72 342 9 306 -30 c 256
 270 -69 206 -72 167 -36 c 256
 111 14 24 95 24 234 c 256
 24 392 163 504 308 504 c 256
 458 504 601 400 601 230 c 256
 601 171 587 116 557 72 c 256
 527 27 466 14 421 44 c 256
EndSplineSet
EndChar

StartChar: uniE007
Encoding: 57351 57351 311
Width: 1067
GlyphClass: 2
Flags: HW
LayerCount: 2
Fore
SplineSet
81 1367 m 256
 56 1414 74 1474 121 1499 c 258
 715 1816 l 258
 762 1841 822 1823 847 1776 c 256
 872 1729 854 1669 807 1644 c 258
 213 1327 l 258
 166 1302 106 1320 81 1367 c 256
EndSplineSet
EndChar

StartChar: uniE008
Encoding: 57352 57352 312
Width: 250
GlyphClass: 2
Flags: HW
LayerCount: 2
Fore
SplineSet
-123 45 m 256
 -123 112 -67 167 0 167 c 258
 250 167 l 258
 317 167 373 112 373 45 c 256
 373 -22 317 -77 250 -77 c 258
 0 -77 l 258
 -67 -77 -123 -22 -123 45 c 256
EndSplineSet
EndChar

StartChar: uniE009
Encoding: 57353 57353 313
Width: 150
GlyphClass: 2
Flags: HW
LayerCount: 2
Fore
SplineSet
-123 45 m 256
 -123 112 -67 167 0 167 c 258
 150 167 l 258
 217 167 273 112 273 45 c 256
 273 -22 217 -77 150 -77 c 258
 0 -77 l 258
 -67 -77 -123 -22 -123 45 c 256
EndSplineSet
EndChar

StartChar: uniE00C
Encoding: 57356 57356 316
Width: 1069
GlyphClass: 2
Flags: HW
LayerCount: 2
Fore
SplineSet
541 849 m 256
 360 849 269 720 269 508 c 256
 269 296 360 167 541 167 c 256
 722 167 813 296 813 508 c 256
 813 720 722 849 541 849 c 256
541 1093 m 256
 898 1093 1059 792 1059 508 c 256
 1059 224 898 -77 541 -77 c 256
 184 -77 25 224 25 508 c 256
 25 792 184 1093 541 1093 c 256
EndSplineSet
EndChar

StartChar: uniE00D
Encoding: 57357 57357 317
Width: 950
GlyphClass: 2
Flags: HW
LayerCount: 2
Fore
SplineSet
147 -123 m 256
 80 -123 25 -67 25 0 c 258
 25 584 l 258
 25 834 166 1093 482 1093 c 256
 798 1093 939 834 939 584 c 258
 939 0 l 258
 939 -67 884 -123 817 -123 c 256
 750 -123 695 -67 695 0 c 258
 695 584 l 258
 695 758 626 849 482 849 c 256
 338 849 269 758 269 584 c 258
 269 0 l 258
 269 -67 214 -123 147 -123 c 256
EndSplineSet
EndChar

StartChar: uniE00E
Encoding: 57358 57358 318
Width: 850
GlyphClass: 2
Flags: HW
LayerCount: 2
Fore
SplineSet
147 -123 m 256
 80 -123 25 -67 25 0 c 258
 25 598 l 258
 25 837 143 1093 432 1093 c 256
 721 1093 839 837 839 598 c 258
 839 0 l 258
 839 -67 784 -123 717 -123 c 256
 650 -123 595 -67 595 0 c 258
 595 598 l 258
 595 783 531 849 432 849 c 256
 333 849 269 783 269 598 c 258
 269 0 l 258
 269 -67 214 -123 147 -123 c 256
EndSplineSet
EndChar

StartChar: uniE012
Encoding: 57362 57362 321
Width: 0
GlyphClass: 2
Flags: H
LayerCount: 2
Fore
SplineSet
426 1721 m 256
 426 1696 405 1675 380 1675 c 256
 250 1675 126 1610 126 1552 c 256
 126 1519 155 1494 234 1473 c 256
 311 1453 402 1415 402 1315 c 256
 402 1194 222 1120 14 1120 c 256
 -11 1120 -32 1141 -32 1166 c 256
 -32 1191 -11 1212 14 1212 c 256
 224 1212 310 1278 310 1315 c 256
 310 1343 287 1365 210 1385 c 256
 137 1404 34 1439 34 1542 c 256
 34 1706 238 1766 380 1766 c 256
 405 1766 426 1746 426 1721 c 256
EndSplineSet
EndChar

StartChar: uniE014
Encoding: 57364 57364 323
Width: 1693
GlyphClass: 2
Flags: HW
LayerCount: 2
Fore
SplineSet
283 616 m 256
 283 394 533 167 752 167 c 256
 1173 167 1411 387 1411 760 c 256
 1411 994 1194 1239 831 1239 c 256
 565 1239 283 1009 283 616 c 256
37 616 m 256
 37 1135 423 1483 831 1483 c 256
 1306 1483 1655 1150 1655 760 c 256
 1655 243 1277 -77 752 -77 c 256
 403 -77 37 236 37 616 c 256
EndSplineSet
EndChar

StartChar: uniE015
Encoding: 57365 57365 324
Width: 1693
GlyphClass: 2
Flags: HW
LayerCount: 2
Fore
SplineSet
1058 896 m 256
 1032 866 987 864 957 890 c 256
 928 916 896 929 854 929 c 256
 731 929 628 807 628 674 c 256
 628 562 678 493 804 493 c 256
 875 493 926 513 977 543 c 256
 1011 564 1055 552 1076 518 c 256
 1097 484 1086 441 1052 420 c 256
 986 379 904 350 804 350 c 256
 595 350 484 500 484 674 c 256
 484 871 634 1072 854 1072 c 256
 931 1072 1000 1044 1052 998 c 256
 1082 972 1084 926 1058 896 c 256
EndSplineSet
EndChar

StartChar: uniE016
Encoding: 57366 57366 325
Width: 1667
GlyphClass: 2
Flags: HW
LayerCount: 2
Fore
SplineSet
561 831 m 256
 530 855 523 899 547 930 c 256
 606 1010 701 1056 798 1056 c 256
 937 1056 1097 959 1097 792 c 256
 1097 695 1039 614 951 578 c 257
 995 538 1048 505 1100 476 c 256
 1134 457 1146 412 1127 378 c 256
 1108 344 1064 331 1030 350 c 256
 932 404 828 476 752 569 c 256
 744 579 738 595 736 609 c 256
 733 650 766 686 808 686 c 256
 912 686 953 736 953 792 c 256
 953 852 885 912 798 912 c 256
 746 912 693 886 662 845 c 256
 638 814 592 807 561 831 c 256
712 938 m 256
 751 936 781 903 779 864 c 256
 773 710 759 546 744 399 c 256
 740 360 704 331 665 335 c 256
 626 339 598 376 602 415 c 256
 617 560 630 720 636 870 c 256
 638 909 673 940 712 938 c 256
EndSplineSet
EndChar

StartChar: uniE01D
Encoding: 57373 57373 332
Width: 1478
GlyphClass: 2
Flags: HW
LayerCount: 2
Fore
SplineSet
1097 144 m 256
 1169 144 1230 203 1230 253 c 256
 1230 307 1181 356 1109 356 c 256
 1039 356 1012 327 1012 263 c 256
 1012 186 1062 144 1097 144 c 256
1097 -32 m 256
 936 -32 834 116 834 263 c 256
 834 423 955 532 1109 532 c 256
 1261 532 1406 423 1406 253 c 256
 1406 79 1245 -32 1097 -32 c 256
248 1188 m 256
 248 1117 307 1056 357 1056 c 256
 412 1056 458 1103 458 1175 c 256
 458 1245 430 1272 367 1272 c 256
 289 1272 248 1222 248 1188 c 256
72 1188 m 256
 72 1350 221 1450 367 1450 c 256
 528 1450 636 1329 636 1175 c 256
 636 1023 526 880 357 880 c 256
 183 880 72 1039 72 1188 c 256
EndSplineSet
EndChar

StartChar: uniE01E
Encoding: 57374 57374 333
Width: 1857
GlyphClass: 2
Flags: HW
LayerCount: 2
Fore
SplineSet
1423 1169 m 256
 1785 1169 1819 679 1819 399 c 256
 1819 6 1435 -77 1005 -77 c 258
 775 -77 l 258
 708 -77 653 -22 653 45 c 256
 653 112 708 167 775 167 c 258
 1005 167 l 258
 1461 167 1575 250 1575 399 c 256
 1575 749 1503 923 1409 923 c 256
 1322 923 1277 806 1277 675 c 256
 1277 575 1323 537 1440 537 c 256
 1492 537 1541 550 1585 568 c 256
 1647 594 1720 563 1746 501 c 256
 1772 439 1741 366 1679 340 c 256
 1611 312 1530 293 1440 293 c 256
 1224 293 1033 412 1033 665 c 256
 1033 843 1119 1169 1423 1169 c 256
654 60 m 256
 662 126 724 174 790 166 c 256
 1093 130 1323 -1 1323 -234 c 256
 1323 -493 1037 -633 703 -633 c 256
 261 -633 57 -384 57 -62 c 256
 57 104 103 283 168 461 c 256
 190 524 262 556 325 534 c 256
 388 512 420 440 398 377 c 256
 339 215 303 60 303 -62 c 256
 303 -262 369 -387 703 -387 c 256
 1011 -387 1079 -280 1079 -234 c 256
 1079 -192 1041 -110 760 -76 c 256
 694 -68 646 -6 654 60 c 256
EndSplineSet
EndChar

StartChar: uniE021
Encoding: 57377 57377 336
Width: 2243
GlyphClass: 2
Flags: HW
LayerCount: 2
Fore
SplineSet
690 -714 m 256
 898 -714 1295 -655 1295 -325 c 256
 1295 -102 1140 -40 942 -4 c 256
 845 14 766 40 766 92 c 256
 766 194 890 306 1120 366 c 257
 1208 113 1368 -77 1712 -77 c 258
 2243 -77 l 258
 2310 -77 2365 -22 2365 45 c 256
 2365 112 2310 167 2243 167 c 258
 1712 167 l 258
 1457 167 1393 271 1322 541 c 256
 1307 599 1247 640 1184 630 c 256
 891 581 521 429 521 85 c 256
 521 -154 762 -224 896 -244 c 256
 982 -258 1049 -275 1049 -325 c 256
 1049 -385 922 -469 690 -469 c 256
 400 -469 303 -389 303 -151 c 256
 303 -45 326 85 364 219 c 256
 382 283 343 352 279 370 c 256
 215 388 146 349 128 285 c 256
 88 139 57 -9 57 -151 c 256
 57 -541 326 -714 690 -714 c 256
EndSplineSet
EndChar

StartChar: uniE022
Encoding: 57378 57378 337
Width: 1712
GlyphClass: 2
Flags: HW
LayerCount: 2
Fore
SplineSet
690 -714 m 256
 898 -714 1295 -655 1295 -325 c 256
 1295 -102 1140 -40 942 -4 c 256
 845 14 766 40 766 92 c 256
 766 194 890 306 1120 366 c 257
 1208 113 1367 -77 1711 -77 c 257
 1712 -77 l 257
 1779 -77 1834 -22 1834 45 c 256
 1834 112 1779 167 1712 167 c 257
 1711 167 l 257
 1457 167 1391 272 1322 541 c 256
 1307 599 1247 640 1184 630 c 256
 891 581 521 429 521 85 c 256
 521 -154 762 -224 896 -244 c 256
 982 -258 1049 -275 1049 -325 c 256
 1049 -385 922 -469 690 -469 c 256
 400 -469 303 -389 303 -151 c 256
 303 -45 326 85 364 219 c 256
 382 283 343 352 279 370 c 256
 215 388 146 349 128 285 c 256
 88 139 57 -9 57 -151 c 256
 57 -541 326 -714 690 -714 c 256
EndSplineSet
EndChar

StartChar: uniE030
Encoding: 57392 57392 345
Width: 0
GlyphClass: 2
Flags: H
LayerCount: 2
Fore
SplineSet
144 1764 m 256
 169 1768 192 1751 196 1726 c 256
 211 1634 220 1539 220 1441 c 256
 220 1421 219 1398 218 1380 c 257
 261 1430 319 1468 393 1468 c 256
 481 1468 560 1403 560 1309 c 256
 560 1143 369 1112 258 1112 c 256
 223 1112 188 1112 154 1116 c 256
 100 1122 48 1133 -4 1147 c 256
 -28 1153 -42 1179 -36 1203 c 256
 -30 1227 -4 1241 20 1235 c 256
 51 1227 81 1220 113 1215 c 257
 123 1293 128 1369 128 1441 c 256
 128 1533 121 1624 106 1712 c 256
 102 1737 119 1760 144 1764 c 256
214 1204 m 257
 228 1203 244 1202 258 1202 c 256
 377 1202 470 1239 470 1309 c 256
 470 1347 439 1376 393 1376 c 256
 314 1376 252 1302 214 1204 c 257
EndSplineSet
EndChar

StartChar: uniE031
Encoding: 57393 57393 346
Width: 883
GlyphClass: 2
Flags: HW
LayerCount: 2
Fore
SplineSet
703 560 m 256
 667 527 610 528 577 564 c 256
 541 602 505 616 457 616 c 256
 377 616 274 524 274 414 c 256
 274 346 295 290 445 290 c 256
 508 290 628 299 712 309 c 256
 760 315 805 280 811 232 c 256
 817 184 782 139 734 133 c 256
 642 121 522 112 445 112 c 256
 217 112 98 252 98 414 c 256
 98 620 269 792 457 792 c 256
 547 792 637 760 707 686 c 256
 740 650 739 593 703 560 c 256
810 238 m 256
 819 191 787 143 740 134 c 256
 557 99 379 30 206 -76 c 256
 165 -101 109 -87 84 -46 c 256
 59 -5 73 51 114 76 c 256
 305 192 501 269 706 308 c 256
 753 317 801 285 810 238 c 256
EndSplineSet
EndChar

StartChar: uniE032
Encoding: 57394 57394 347
Width: 522
GlyphClass: 2
Flags: HW
LayerCount: 2
Fore
SplineSet
-134 1322 m 256
 -196 1346 -228 1419 -204 1481 c 256
 -137 1655 -14 1803 179 1803 c 256
 271 1803 360 1769 446 1716 c 256
 502 1682 540 1661 580 1661 c 256
 620 1661 645 1684 647 1736 c 256
 656 1812 698 1858 765 1858 c 256
 832 1858 888 1803 888 1736 c 256
 888 1559 776 1415 602 1415 c 256
 479 1415 384 1466 316 1508 c 256
 255 1545 211 1559 179 1559 c 256
 120 1559 72 1517 24 1393 c 256
 0 1331 -72 1298 -134 1322 c 256
264 1267 m 256
 330 1275 393 1228 401 1162 c 256
 431 940 447 708 447 468 c 256
 447 310 439 151 426 -9 c 256
 420 -75 361 -127 294 -121 c 256
 227 -115 176 -55 182 11 c 256
 195 165 201 318 201 468 c 256
 201 696 187 920 159 1130 c 256
 151 1196 198 1259 264 1267 c 256
EndSplineSet
EndChar

StartChar: uniE033
Encoding: 57395 57395 348
Width: 445
GlyphClass: 2
Flags: HW
LayerCount: 2
Fore
SplineSet
184 1287 m 256
 250 1295 313 1248 321 1182 c 256
 353 941 367 798 367 531 c 256
 367 363 360 161 346 -9 c 256
 340 -75 281 -127 214 -121 c 256
 147 -115 96 -55 102 11 c 256
 115 171 123 369 123 531 c 256
 123 790 111 911 79 1150 c 256
 71 1216 118 1279 184 1287 c 256
EndSplineSet
EndChar

StartChar: uniE034
Encoding: 57396 57396 349
Width: 1252
GlyphClass: 2
Flags: HW
LayerCount: 2
Fore
SplineSet
693 -715 m 256
 408 -715 37 -576 37 -201 c 256
 37 224 489 438 740 531 c 257
 626 587 496 643 432 643 c 256
 374 643 335 611 304 525 c 256
 281 463 211 428 148 450 c 256
 85 472 50 543 72 606 c 256
 141 802 270 887 433 887 c 256
 623 887 995 692 1116 626 c 256
 1165 598 1215 567 1215 508 c 256
 1215 448 1168 397 1106 384 c 256
 965 356 283 163 283 -201 c 256
 283 -364 448 -471 693 -471 c 256
 811 -471 928 -443 1030 -388 c 256
 1089 -357 1165 -379 1196 -438 c 256
 1227 -497 1205 -573 1146 -604 c 256
 1006 -677 849 -715 693 -715 c 256
EndSplineSet
EndChar

StartChar: uniE035
Encoding: 57397 57397 350
Width: 900
GlyphClass: 2
Flags: HW
LayerCount: 2
Fore
SplineSet
324 853 m 256
 368 903 448 907 498 863 c 256
 635 741 863 527 863 245 c 256
 863 1 617 -107 397 -107 c 256
 311 -107 217 -94 121 -61 c 256
 58 -40 23 31 44 94 c 256
 65 157 136 192 199 171 c 256
 269 148 337 137 397 137 c 256
 542 137 617 187 617 258 c 256
 617 387 469 559 334 679 c 256
 284 723 280 803 324 853 c 256
EndSplineSet
EndChar

StartChar: uniE036
Encoding: 57398 57398 351
Width: 807
GlyphClass: 2
Flags: HW
LayerCount: 2
Fore
SplineSet
511 602 m 256
 575 619 643 579 660 515 c 256
 704 351 729 205 729 71 c 256
 729 -270 551 -502 185 -577 c 256
 120 -590 53 -547 40 -482 c 256
 27 -417 70 -350 135 -337 c 256
 407 -280 485 -170 485 71 c 256
 485 173 464 301 424 453 c 256
 407 517 447 585 511 602 c 256
EndSplineSet
EndChar

StartChar: uniE037
Encoding: 57399 57399 352
Width: 2260
GlyphClass: 2
Flags: HW
LayerCount: 2
Fore
SplineSet
303 472 m 256
 365 446 396 374 370 312 c 256
 317 184 283 51 283 -58 c 256
 283 -223 364 -351 644 -351 c 256
 903 -351 997 -219 997 -23 c 256
 997 83 972 211 924 339 c 256
 901 401 933 474 995 497 c 256
 1057 520 1130 487 1153 425 c 256
 1209 275 1243 123 1243 -23 c 256
 1243 -337 1031 -595 644 -595 c 256
 254 -595 37 -357 37 -58 c 256
 37 97 81 258 142 406 c 256
 168 468 241 498 303 472 c 256
993 496 m 256
 1055 520 1127 489 1152 427 c 256
 1249 181 1294 143 1366 143 c 256
 1445 143 1490 189 1522 436 c 256
 1530 502 1593 549 1659 541 c 256
 1725 533 1772 470 1764 404 c 256
 1726 119 1623 -103 1362 -103 c 256
 1146 -103 1029 69 924 337 c 256
 900 399 931 472 993 496 c 256
1660 541 m 256
 1726 532 1773 469 1764 403 c 256
 1756 345 1753 323 1753 275 c 256
 1753 185 1785 139 1863 139 c 256
 1937 139 1977 182 1977 298 c 256
 1977 384 1962 462 1942 535 c 256
 1925 599 1964 668 2028 685 c 256
 2092 702 2161 663 2178 599 c 256
 2200 516 2223 416 2223 298 c 256
 2223 100 2109 -107 1867 -107 c 256
 1639 -107 1509 70 1509 275 c 256
 1509 335 1514 379 1522 437 c 256
 1531 503 1594 550 1660 541 c 256
EndSplineSet
EndChar

StartChar: uniE038
Encoding: 57400 57400 353
Width: 2305
GlyphClass: 2
Flags: HW
LayerCount: 2
Fore
SplineSet
2267 378 m 256
 2267 26 1898 -107 1650 -107 c 256
 1242 -107 1040 75 938 319 c 256
 912 381 942 453 1004 479 c 256
 1066 505 1138 475 1164 413 c 256
 1234 243 1359 137 1650 137 c 256
 1856 137 2023 246 2023 362 c 256
 2023 436 1965 487 1860 487 c 256
 1702 487 1560 358 1438 99 c 256
 1409 38 1337 11 1276 40 c 256
 1215 69 1189 142 1218 203 c 256
 1352 486 1553 733 1873 733 c 256
 2065 733 2267 608 2267 378 c 256
1013 483 m 256
 1077 504 1147 468 1168 404 c 256
 1216 257 1241 119 1241 -7 c 256
 1241 -364 1003 -595 589 -595 c 256
 336 -595 37 -457 37 -117 c 256
 37 80 125 283 230 447 c 256
 266 503 344 520 400 484 c 256
 456 448 474 371 438 315 c 256
 349 175 283 6 283 -117 c 256
 283 -271 400 -351 589 -351 c 256
 903 -351 997 -232 997 -7 c 256
 997 85 976 199 934 328 c 256
 913 392 949 462 1013 483 c 256
EndSplineSet
EndChar

StartChar: uniE039
Encoding: 57401 57401 354
Width: 1511
GlyphClass: 2
Flags: HW
LayerCount: 2
Fore
SplineSet
1473 449 m 256
 1473 40 1050 -107 574 -107 c 256
 441 -107 297 -97 144 -76 c 256
 78 -67 31 -5 39 61 c 256
 47 127 110 175 176 166 c 256
 319 147 453 137 574 137 c 256
 1048 137 1229 276 1229 436 c 256
 1229 522 1170 581 1073 581 c 256
 887 581 624 336 484 -112 c 256
 468 -163 416 -197 364 -184 c 256
 312 -171 279 -115 292 -63 c 256
 383 300 693 825 1087 825 c 256
 1299 825 1473 668 1473 449 c 256
358 -181 m 256
 306 -165 278 -109 294 -57 c 256
 370 177 407 554 407 892 c 256
 407 993 403 1097 394 1201 c 256
 388 1267 439 1327 506 1333 c 256
 573 1339 632 1287 638 1221 c 256
 647 1109 651 999 651 892 c 256
 651 532 565 139 482 -118 c 256
 466 -170 410 -197 358 -181 c 256
EndSplineSet
EndChar

StartChar: uniE03A
Encoding: 57402 57402 355
Width: 1275
GlyphClass: 2
Flags: HW
LayerCount: 2
Fore
SplineSet
936 912 m 256
 887 867 810 869 764 918 c 256
 732 952 689 971 632 971 c 256
 522 971 405 870 405 745 c 256
 405 642 478 579 687 579 c 256
 725 579 767 582 810 585 c 256
 834 587 856 588 880 589 c 256
 947 592 1005 539 1008 472 c 256
 1011 405 959 348 892 345 c 256
 872 344 848 343 826 341 c 256
 783 338 737 335 687 335 c 256
 446 335 161 436 161 745 c 256
 161 1018 394 1217 632 1217 c 256
 753 1217 864 1168 942 1084 c 256
 988 1035 985 957 936 912 c 256
1009 467 m 256
 1009 400 953 345 886 345 c 256
 614 345 283 109 283 -172 c 256
 283 -370 448 -477 717 -477 c 256
 841 -477 968 -446 1059 -400 c 256
 1118 -370 1194 -394 1224 -453 c 256
 1254 -512 1230 -588 1171 -618 c 256
 1039 -686 879 -721 717 -721 c 256
 400 -721 37 -568 37 -172 c 256
 37 295 518 589 886 589 c 256
 953 589 1009 534 1009 467 c 256
EndSplineSet
EndChar

StartChar: uniE03B
Encoding: 57403 57403 356
Width: 668
GlyphClass: 2
Flags: HW
LayerCount: 2
Fore
SplineSet
-123 45 m 256
 -123 112 -67 167 0 167 c 258
 668 167 l 258
 735 167 791 112 791 45 c 256
 791 -22 735 -77 668 -77 c 258
 0 -77 l 258
 -67 -77 -123 -22 -123 45 c 256
EndSplineSet
EndChar

StartChar: uniE03C
Encoding: 57404 57404 357
Width: 1276
GlyphClass: 2
Flags: HW
LayerCount: 2
Fore
SplineSet
1038 1333 m 256
 1105 1338 1164 1287 1169 1220 c 256
 1197 830 1219 500 1219 148 c 256
 1219 -213 1081 -547 619 -547 c 256
 275 -547 37 -329 37 -15 c 256
 37 140 87 298 145 413 c 256
 175 473 250 498 310 468 c 256
 370 438 395 363 365 303 c 256
 323 218 283 86 283 -15 c 256
 283 -185 383 -301 619 -301 c 256
 909 -301 973 -165 973 148 c 256
 973 488 953 812 925 1202 c 256
 920 1269 971 1328 1038 1333 c 256
EndSplineSet
EndChar

StartChar: uniE03D
Encoding: 57405 57405 358
Width: 1177
GlyphClass: 2
Flags: HW
LayerCount: 2
Fore
SplineSet
724 695 m 256
 964 695 1139 503 1139 221 c 256
 1139 9 978 -107 796 -107 c 256
 685 -107 583 -92 508 -72 c 256
 434 -51 388 -40 355 -40 c 256
 308 -40 282 -66 282 -166 c 256
 282 -183 282 -198 283 -213 c 258
 313 -798 l 258
 316 -865 264 -923 197 -926 c 256
 130 -929 72 -877 69 -810 c 258
 39 -225 l 258
 38 -202 38 -183 38 -166 c 256
 38 41 133 203 332 203 c 256
 404 203 475 188 546 172 c 256
 631 152 717 137 796 137 c 256
 865 137 895 161 895 221 c 256
 895 388 814 451 734 451 c 256
 633 451 562 302 542 176 c 256
 531 110 468 65 402 76 c 256
 336 87 289 150 300 216 c 256
 318 322 393 695 724 695 c 256
EndSplineSet
EndChar

StartChar: uniE03E
Encoding: 57406 57406 359
Width: 865
GlyphClass: 2
Flags: HW
LayerCount: 2
Fore
SplineSet
429 -107 m 256
 212 -107 37 16 37 242 c 256
 37 437 164 664 350 823 c 256
 400 867 478 859 522 809 c 256
 566 759 558 681 508 637 c 256
 366 516 283 348 283 257 c 256
 283 189 329 137 429 137 c 256
 536 137 583 186 583 263 c 256
 583 370 467 557 255 740 c 256
 205 784 198 863 242 913 c 256
 286 963 365 970 415 926 c 256
 649 724 827 478 827 257 c 256
 827 18 649 -107 429 -107 c 256
EndSplineSet
EndChar

StartChar: uniE03F
Encoding: 57407 57407 360
Width: 878
GlyphClass: 2
Flags: HW
LayerCount: 2
Fore
SplineSet
444 769 m 256
 804 769 841 298 841 108 c 256
 841 -320 542 -514 182 -582 c 256
 117 -594 52 -549 40 -484 c 256
 28 -419 73 -352 138 -340 c 256
 447 -282 595 -170 595 108 c 256
 595 394 531 523 443 523 c 256
 377 523 320 440 320 287 c 256
 320 184 367 137 452 137 c 256
 484 137 526 143 576 155 c 256
 640 171 708 130 724 66 c 256
 740 2 698 -67 634 -83 c 256
 570 -99 510 -107 452 -107 c 256
 231 -107 88 43 88 260 c 256
 88 488 188 769 444 769 c 256
EndSplineSet
EndChar

StartChar: uniE040
Encoding: 57408 57408 361
Width: 0
GlyphClass: 2
Flags: H
LayerCount: 2
Fore
SplineSet
178 1891 m 256
 180 1866 160 1844 135 1842 c 256
 27 1834 -110 1703 -110 1561 c 256
 -110 1534 -105 1506 -94 1478 c 256
 -85 1455 -96 1429 -119 1420 c 256
 -142 1411 -169 1423 -178 1446 c 256
 -194 1484 -200 1522 -200 1561 c 256
 -200 1753 -31 1922 129 1934 c 256
 154 1936 176 1916 178 1891 c 256
191 1724 m 256
 325 1724 326 1555 326 1488 c 256
 326 1270 178 1194 -32 1182 c 256
 -57 1180 -78 1201 -80 1226 c 256
 -82 1251 -63 1272 -38 1274 c 256
 156 1284 234 1332 234 1488 c 256
 234 1587 226 1632 187 1632 c 256
 145 1632 102 1570 102 1512 c 256
 102 1448 229 1428 355 1428 c 256
 380 1428 400 1408 400 1383 c 256
 400 1358 380 1338 355 1338 c 256
 265 1338 12 1341 12 1510 c 256
 12 1596 67 1724 191 1724 c 256
EndSplineSet
EndChar

StartChar: uniE041
Encoding: 57409 57409 362
Width: 0
GlyphClass: 2
Flags: H
LayerCount: 2
Fore
SplineSet
-28 1326 m 256
 -36 1349 -23 1376 0 1384 c 258
 405 1528 l 258
 428 1536 455 1523 463 1500 c 256
 471 1477 458 1450 435 1442 c 258
 30 1298 l 258
 7 1290 -20 1303 -28 1326 c 256
EndSplineSet
EndChar

StartChar: uniE042
Encoding: 57410 57410 363
Width: 0
GlyphClass: 2
Flags: H
LayerCount: 2
Fore
SplineSet
191 1724 m 256
 325 1724 326 1555 326 1488 c 256
 326 1270 178 1194 -32 1182 c 256
 -57 1180 -78 1201 -80 1226 c 256
 -82 1251 -63 1272 -38 1274 c 256
 156 1284 234 1332 234 1488 c 256
 234 1587 226 1632 187 1632 c 256
 145 1632 102 1570 102 1512 c 256
 102 1448 229 1428 355 1428 c 256
 380 1428 400 1408 400 1383 c 256
 400 1358 380 1338 355 1338 c 256
 265 1338 12 1341 12 1510 c 256
 12 1596 67 1724 191 1724 c 256
EndSplineSet
EndChar

StartChar: uniE043
Encoding: 57411 57411 364
Width: 0
GlyphClass: 2
Flags: H
LayerCount: 2
Fore
SplineSet
400 1602 m 256
 422 1612 450 1600 460 1578 c 256
 482 1529 508 1450 508 1374 c 256
 508 1276 446 1218 364 1218 c 256
 310 1218 266 1248 238 1292 c 257
 208 1246 163 1218 110 1218 c 256
 37 1218 -30 1269 -30 1360 c 256
 -30 1428 2 1496 40 1546 c 256
 55 1566 84 1569 104 1554 c 256
 124 1539 127 1510 112 1490 c 256
 84 1454 62 1398 62 1360 c 256
 62 1326 77 1310 110 1310 c 256
 143 1310 190 1345 194 1444 c 256
 195 1465 211 1485 233 1488 c 256
 259 1491 282 1470 284 1444 c 256
 289 1342 332 1308 366 1308 c 256
 398 1308 418 1325 418 1374 c 256
 418 1428 394 1501 376 1542 c 256
 366 1564 378 1592 400 1602 c 256
EndSplineSet
EndChar

StartChar: uniE044
Encoding: 57412 57412 365
Width: 0
GlyphClass: 2
Flags: H
LayerCount: 2
Fore
SplineSet
176 1544 m 256
 132 1544 82 1500 82 1434 c 256
 82 1389 122 1342 175 1342 c 256
 221 1342 268 1382 268 1452 c 256
 268 1498 232 1544 176 1544 c 256
176 1634 m 256
 286 1634 358 1544 358 1452 c 256
 358 1338 277 1252 175 1252 c 256
 68 1252 -8 1341 -8 1434 c 256
 -8 1546 76 1634 176 1634 c 256
EndSplineSet
EndChar

StartChar: uniE045
Encoding: 57413 57413 366
Width: 0
GlyphClass: 2
Flags: H
LayerCount: 2
Fore
SplineSet
591 1458 m 256
 613 1447 623 1418 612 1396 c 256
 577 1324 519 1242 419 1242 c 256
 375 1242 329 1259 280 1292 c 256
 246 1316 218 1324 194 1324 c 256
 148 1324 102 1293 69 1236 c 256
 57 1214 28 1206 6 1218 c 256
 -16 1230 -23 1258 -11 1280 c 256
 32 1355 104 1414 194 1414 c 256
 242 1414 288 1396 332 1366 c 256
 369 1341 399 1334 419 1334 c 256
 461 1334 499 1370 530 1436 c 256
 541 1458 569 1469 591 1458 c 256
EndSplineSet
EndChar

StartChar: uniE046
Encoding: 57414 57414 367
Width: 0
GlyphClass: 2
Flags: H
LayerCount: 2
Fore
SplineSet
379 1550 m 256
 359 1535 331 1540 316 1560 c 256
 288 1597 259 1608 228 1608 c 256
 165 1608 96 1547 96 1463 c 256
 96 1394 134 1368 221 1368 c 256
 275 1368 338 1381 404 1404 c 256
 429 1412 456 1398 463 1372 c 256
 469 1350 456 1326 434 1318 c 258
 29 1177 l 258
 6 1169 -21 1182 -29 1205 c 256
 -37 1228 -24 1255 -1 1263 c 258
 112 1302 l 257
 48 1327 4 1381 4 1463 c 256
 4 1595 111 1700 228 1700 c 256
 287 1700 346 1671 388 1614 c 256
 403 1594 399 1565 379 1550 c 256
EndSplineSet
EndChar

StartChar: uniE047
Encoding: 57415 57415 368
Width: 0
GlyphClass: 2
Flags: H
LayerCount: 2
Fore
SplineSet
198 1004 m 257
 198 1119 112 1377 -6 1491 c 256
 -24 1509 -25 1538 -7 1556 c 256
 11 1574 40 1575 58 1557 c 256
 143 1475 205 1348 243 1231 c 257
 281 1347 343 1475 428 1557 c 256
 446 1575 475 1574 493 1556 c 256
 511 1538 510 1509 492 1491 c 256
 374 1377 288 1120 288 1004 c 256
 288 973 266 958 243 958 c 256
 220 958 198 973 198 1004 c 257
EndSplineSet
EndChar

StartChar: uniE048
Encoding: 57416 57416 369
Width: 1726
GlyphClass: 2
Flags: HW
LayerCount: 2
Fore
SplineSet
1447 734 m 256
 1505 768 1580 746 1614 688 c 256
 1661 606 1689 493 1689 383 c 256
 1689 -79 1100 -107 843 -107 c 256
 561 -107 37 -77 37 373 c 256
 37 462 51 563 90 641 c 256
 120 701 195 726 255 696 c 256
 314 666 334 607 310 531 c 256
 302 514 283 425 283 373 c 256
 283 199 503 137 843 137 c 256
 1164 137 1443 213 1443 383 c 256
 1443 449 1417 535 1402 566 c 256
 1374 632 1389 700 1447 734 c 256
EndSplineSet
EndChar

StartChar: uniE049
Encoding: 57417 57417 370
Width: 1439
GlyphClass: 2
Flags: HW
LayerCount: 2
Fore
SplineSet
998 765 m 256
 1374 765 1401 285 1401 91 c 256
 1401 -310 1165 -589 717 -589 c 256
 293 -589 37 -374 37 -40 c 256
 37 133 97 319 195 511 c 256
 225 570 301 594 360 564 c 256
 419 534 443 458 413 399 c 256
 325 229 283 75 283 -40 c 256
 283 -216 373 -343 717 -343 c 256
 1041 -343 1157 -200 1157 91 c 256
 1157 343 1098 521 992 521 c 256
 911 521 845 429 845 269 c 256
 845 170 898 137 996 137 c 256
 1082 137 1136 151 1186 178 c 256
 1245 210 1320 187 1352 128 c 256
 1384 69 1361 -6 1302 -38 c 256
 1214 -85 1112 -109 996 -109 c 256
 779 -109 601 14 601 260 c 256
 601 483 728 765 998 765 c 256
EndSplineSet
EndChar

StartChar: uniE04A
Encoding: 57418 57418 371
Width: 0
GlyphClass: 2
Flags: H
LayerCount: 2
Fore
SplineSet
9 1668 m 256
 34 1670 58 1653 60 1628 c 256
 68 1550 72 1479 72 1409 c 256
 72 1335 64 1260 39 1185 c 256
 31 1162 5 1148 -18 1156 c 256
 -41 1164 -55 1190 -47 1213 c 256
 -27 1276 -20 1341 -20 1409 c 256
 -20 1475 -24 1542 -32 1618 c 256
 -34 1643 -16 1666 9 1668 c 256
EndSplineSet
EndChar

StartChar: uniE04B
Encoding: 57419 57419 372
Width: 1719
GlyphClass: 2
Flags: HW
LayerCount: 2
Fore
SplineSet
1280 1155 m 256
 1624 1155 1681 730 1681 406 c 256
 1681 -59 1166 -111 829 -111 c 256
 529 -111 37 -67 37 367 c 256
 37 456 56 536 76 604 c 256
 95 668 163 707 227 688 c 256
 291 669 329 600 310 536 c 256
 294 478 283 422 283 367 c 256
 283 203 483 133 829 133 c 256
 1210 133 1437 207 1437 406 c 256
 1437 780 1359 909 1265 909 c 256
 1175 909 1117 812 1117 667 c 256
 1117 569 1147 515 1259 515 c 256
 1342 515 1438 539 1498 565 c 256
 1560 592 1633 564 1660 503 c 256
 1687 442 1660 368 1598 341 c 256
 1504 299 1382 271 1259 271 c 256
 991 271 871 453 871 658 c 256
 871 868 992 1155 1280 1155 c 256
EndSplineSet
EndChar

StartChar: uniE04C
Encoding: 57420 57420 373
Width: 1870
GlyphClass: 2
Flags: HW
LayerCount: 2
Fore
SplineSet
1820 1365 m 256
 1850 1305 1824 1231 1764 1201 c 258
 1180 914 l 257
 1335 746 1511 539 1511 303 c 256
 1511 -27 1175 -107 768 -107 c 256
 416 -107 37 -46 37 340 c 256
 37 407 48 481 72 561 c 256
 91 625 161 663 225 644 c 256
 289 625 327 555 308 491 c 256
 290 429 283 379 283 340 c 256
 283 198 384 137 768 137 c 256
 1205 137 1265 221 1265 303 c 256
 1265 447 1080 670 888 866 c 256
 888 866 875 881 870 889 c 256
 834 950 859 1030 922 1061 c 258
 1656 1421 l 258
 1716 1451 1790 1425 1820 1365 c 256
EndSplineSet
EndChar

StartChar: uniE04D
Encoding: 57421 57421 374
Width: 1384
GlyphClass: 2
Flags: HW
LayerCount: 2
Fore
SplineSet
278 518 m 256
 340 494 372 422 348 360 c 256
 306 251 283 111 283 16 c 256
 283 -185 373 -303 697 -303 c 256
 1021 -303 1101 -175 1101 23 c 256
 1101 137 1069 286 1015 411 c 256
 989 473 1018 546 1080 572 c 256
 1142 598 1215 569 1241 507 c 256
 1307 352 1347 179 1347 23 c 256
 1347 -305 1125 -547 697 -547 c 256
 285 -547 37 -331 37 16 c 256
 37 147 66 307 120 448 c 256
 144 510 216 542 278 518 c 256
EndSplineSet
EndChar

StartChar: uniE04E
Encoding: 57422 57422 375
Width: 1347
GlyphClass: 2
Flags: HW
LayerCount: 2
Fore
SplineSet
1236 569 m 256
 1198 514 1121 499 1066 537 c 256
 1026 565 985 575 944 575 c 256
 820 575 695 459 695 324 c 256
 695 225 764 205 930 202 c 256
 1153 198 1319 112 1319 -116 c 256
 1319 -407 1008 -547 671 -547 c 256
 290 -547 24 -380 24 -13 c 256
 24 81 37 186 61 302 c 256
 74 367 140 411 205 398 c 256
 270 385 314 319 301 254 c 256
 280 148 270 59 270 -13 c 256
 270 -232 360 -303 671 -303 c 256
 982 -303 1075 -190 1075 -120 c 256
 1075 -60 1031 -44 926 -42 c 256
 747 -39 451 3 451 324 c 256
 451 599 682 821 944 821 c 256
 1031 821 1122 795 1204 739 c 256
 1259 701 1274 624 1236 569 c 256
EndSplineSet
EndChar

StartChar: uniE04F
Encoding: 57423 57423 376
Width: 1959
GlyphClass: 2
Flags: HW
LayerCount: 2
Fore
SplineSet
2081 45 m 256
 2081 -22 2026 -77 1959 -77 c 258
 1958 -77 l 257
 1751 -77 1583 -7 1505 184 c 257
 1333 -21 1056 -107 711 -107 c 256
 327 -107 37 70 37 414 c 256
 37 492 52 574 79 660 c 256
 99 724 168 760 232 740 c 256
 296 720 333 650 313 586 c 256
 292 518 283 460 283 414 c 256
 283 252 387 137 711 137 c 256
 1165 137 1387 290 1446 580 c 256
 1457 635 1507 677 1564 678 c 256
 1635 679 1693 618 1688 548 c 256
 1686 518 1685 491 1685 465 c 256
 1685 216 1745 167 1958 167 c 257
 1959 167 l 258
 2026 167 2081 112 2081 45 c 256
EndSplineSet
EndChar

StartChar: uniE050
Encoding: 57424 57424 377
Width: 852
GlyphClass: 2
Flags: HW
LayerCount: 2
Fore
SplineSet
418 1169 m 256
 780 1169 815 679 815 399 c 256
 815 6 430 -77 0 -77 c 256
 -67 -77 -122 -22 -122 45 c 256
 -122 112 -67 167 0 167 c 256
 456 167 569 250 569 399 c 256
 569 749 495 923 408 923 c 256
 332 923 273 817 273 665 c 256
 273 573 325 537 435 537 c 256
 487 537 536 550 580 568 c 256
 642 594 714 563 740 501 c 256
 766 439 736 366 674 340 c 256
 606 312 525 293 435 293 c 256
 219 293 27 412 27 665 c 256
 27 843 114 1169 418 1169 c 256
EndSplineSet
EndChar

StartChar: uniE051
Encoding: 57425 57425 378
Width: 945
GlyphClass: 2
Flags: HW
LayerCount: 2
Fore
SplineSet
483 931 m 256
 733 930 875 716 875 499 c 256
 875 63 348 -77 0 -77 c 256
 -67 -77 -122 -22 -122 45 c 256
 -122 112 -67 167 0 167 c 256
 346 167 629 317 629 499 c 256
 629 624 567 684 483 685 c 256
 389 685 315 612 315 504 c 256
 315 316 580 167 944 167 c 257
 945 167 l 258
 1012 167 1067 112 1067 45 c 256
 1067 -22 1012 -77 945 -77 c 258
 944 -77 l 257
 573 -77 71 69 71 504 c 256
 71 732 243 931 483 931 c 256
EndSplineSet
EndChar

StartChar: uniE052
Encoding: 57426 57426 379
Width: 645
GlyphClass: 2
Flags: HW
LayerCount: 2
Fore
SplineSet
924 1829 m 256
 973 1814 1011 1764 998 1686 c 256
 969 1558 881 1435 710 1435 c 256
 628 1435 568 1468 511 1503 c 256
 460 1534 416 1556 367 1556 c 256
 315 1556 275 1524 244 1431 c 256
 221 1369 148 1336 86 1360 c 256
 24 1384 -3 1454 15 1518 c 256
 61 1686 190 1800 338 1800 c 256
 414 1800 482 1769 547 1733 c 256
 601 1703 650 1681 694 1681 c 256
 736 1681 755 1702 776 1747 c 256
 804 1818 870 1845 924 1829 c 256
384 1287 m 256
 450 1295 513 1248 521 1182 c 256
 553 941 567 798 567 531 c 256
 567 363 560 161 546 -9 c 256
 540 -75 481 -127 414 -121 c 256
 347 -115 296 -55 302 11 c 256
 315 171 323 369 323 531 c 256
 323 790 311 911 279 1150 c 256
 271 1216 318 1279 384 1287 c 256
EndSplineSet
EndChar

StartChar: uniE053
Encoding: 57427 57427 380
Width: 1383
GlyphClass: 2
Flags: HW
LayerCount: 2
Fore
SplineSet
942 923 m 256
 864 923 803 818 803 681 c 256
 803 582 850 537 966 537 c 256
 1018 537 1067 550 1111 568 c 256
 1173 594 1246 563 1272 501 c 256
 1298 439 1267 366 1205 340 c 256
 1137 312 1056 293 966 293 c 256
 750 293 559 412 559 665 c 256
 559 843 645 1169 949 1169 c 256
 1311 1169 1345 679 1345 398 c 256
 1345 243 1276 118 1168 41 c 256
 1036 -53 864 -77 698 -77 c 258
 697 -77 l 257
 458 -77 289 -63 176 56 c 256
 88 152 77 273 77 398 c 256
 77 659 80 936 90 1216 c 256
 92 1283 150 1335 217 1333 c 256
 284 1331 336 1273 334 1206 c 256
 324 930 323 657 323 398 c 256
 323 312 330 257 365 223 c 256
 410 179 504 167 697 167 c 257
 698 167 l 258
 840 167 960 195 1026 241 c 256
 1074 274 1101 315 1101 398 c 256
 1101 749 1044 923 942 923 c 256
EndSplineSet
EndChar

StartChar: uniE054
Encoding: 57428 57428 381
Width: 1921
GlyphClass: 2
Flags: HW
LayerCount: 2
Fore
SplineSet
1820 1365 m 256
 1850 1305 1824 1231 1764 1201 c 258
 1030 841 l 258
 970 811 896 837 866 897 c 256
 836 957 862 1031 922 1061 c 258
 1656 1421 l 258
 1716 1451 1790 1425 1820 1365 c 256
768 -107 m 256
 416 -107 37 -46 37 340 c 256
 37 407 48 481 72 561 c 256
 91 625 161 662 225 643 c 256
 289 624 327 555 308 491 c 256
 290 429 283 379 283 340 c 256
 283 198 384 137 768 137 c 256
 1205 137 1265 221 1265 303 c 256
 1265 402 1212 486 1139 584 c 256
 1065 685 975 778 888 866 c 256
 839 916 844 1000 898 1045 c 256
 946 1085 1019 1081 1063 1037 c 256
 1129 970 1191 905 1251 834 c 256
 1350 716 1436 594 1494 444 c 256
 1597 174 1617 167 1920 167 c 257
 1921 167 l 258
 1988 167 2044 112 2044 45 c 256
 2044 -22 1988 -77 1921 -77 c 258
 1920 -77 l 257
 1707 -77 1550 -69 1419 87 c 257
 1305 -69 1084 -107 768 -107 c 256
EndSplineSet
EndChar

StartChar: uniE055
Encoding: 57429 57429 382
Width: 532
GlyphClass: 2
Flags: HW
LayerCount: 2
Fore
SplineSet
256 783 m 256
 320 803 389 766 409 702 c 256
 449 574 475 458 475 349 c 256
 475 241 452 131 371 46 c 256
 283 -45 154 -77 0 -77 c 256
 -67 -77 -122 -22 -122 45 c 256
 -122 112 -67 167 0 167 c 256
 124 167 175 195 195 216 c 256
 214 235 229 271 229 349 c 256
 229 418 211 516 175 630 c 256
 155 694 192 763 256 783 c 256
EndSplineSet
EndChar

StartChar: uniE056
Encoding: 57430 57430 383
Width: 811
GlyphClass: 2
Flags: HW
LayerCount: 2
Fore
SplineSet
-123 45 m 256
 -123 112 -67 167 0 167 c 256
 29 167 56 169 79 171 c 256
 266 188 300 229 273 521 c 256
 267 591 323 653 394 654 c 256
 458 655 511 605 517 544 c 256
 552 200 537 167 810 167 c 257
 811 167 l 258
 878 167 934 112 934 45 c 256
 934 -22 878 -77 811 -77 c 258
 810 -77 l 257
 626 -77 499 -40 410 78 c 257
 322 -40 184 -77 0 -77 c 256
 -67 -77 -123 -22 -123 45 c 256
EndSplineSet
EndChar

StartChar: uniE057
Encoding: 57431 57431 384
Width: 1382
GlyphClass: 2
Flags: HW
LayerCount: 2
Fore
SplineSet
1505 45 m 256
 1505 -22 1449 -77 1382 -77 c 258
 1240 -77 l 257
 1296 -120 1323 -175 1323 -234 c 256
 1323 -493 1037 -633 703 -633 c 256
 261 -633 57 -384 57 -62 c 256
 57 104 103 283 168 461 c 256
 190 524 262 556 325 534 c 256
 388 512 420 440 398 377 c 256
 339 215 303 60 303 -62 c 256
 303 -262 369 -387 703 -387 c 256
 1011 -387 1079 -266 1079 -234 c 256
 1079 -205 1041 -110 760 -76 c 256
 703 -69 658 -22 653 36 c 256
 647 106 704 167 775 167 c 258
 1382 167 l 258
 1449 167 1505 112 1505 45 c 256
EndSplineSet
EndChar

StartChar: uniE058
Encoding: 57432 57432 385
Width: 1586
GlyphClass: 2
Flags: HW
LayerCount: 2
Fore
SplineSet
217 1333 m 256
 284 1331 336 1273 334 1206 c 256
 324 930 323 657 323 398 c 256
 323 311 330 256 362 222 c 256
 404 179 490 167 657 167 c 257
 658 167 l 258
 777 167 878 178 933 218 c 256
 964 240 981 270 981 312 c 256
 981 445 796 670 604 866 c 256
 555 916 560 1000 614 1045 c 256
 624 1053 638 1061 638 1061 c 257
 1372 1421 l 258
 1432 1451 1506 1425 1536 1365 c 256
 1566 1305 1540 1231 1480 1201 c 258
 896 914 l 257
 1048 748 1227 542 1227 312 c 256
 1227 189 1167 81 1071 18 c 256
 960 -56 817 -77 658 -77 c 258
 657 -77 l 257
 455 -77 286 -61 176 56 c 256
 87 150 77 274 77 398 c 256
 77 659 80 936 90 1216 c 256
 92 1283 150 1335 217 1333 c 256
EndSplineSet
EndChar

StartChar: uniE059
Encoding: 57433 57433 386
Width: 2206
GlyphClass: 2
Flags: HW
LayerCount: 2
Fore
SplineSet
325 534 m 256
 388 512 420 440 398 377 c 256
 339 215 303 60 303 -62 c 256
 303 -262 369 -387 703 -387 c 256
 1011 -387 1079 -266 1079 -234 c 256
 1079 -205 1041 -110 760 -76 c 256
 694 -68 646 -6 654 60 c 256
 662 126 724 174 790 166 c 256
 1093 130 1323 -1 1323 -234 c 256
 1323 -493 1037 -633 703 -633 c 256
 261 -633 57 -384 57 -62 c 256
 57 104 103 283 168 461 c 256
 190 524 262 556 325 534 c 256
653 45 m 256
 653 112 708 167 775 167 c 258
 1152 167 l 258
 1561 167 1601 246 1601 312 c 256
 1601 445 1416 670 1224 866 c 256
 1175 916 1180 1000 1234 1045 c 256
 1244 1053 1258 1061 1258 1061 c 257
 1992 1421 l 258
 2052 1451 2126 1425 2156 1365 c 256
 2186 1305 2160 1231 2100 1201 c 258
 1516 914 l 257
 1668 748 1847 542 1847 312 c 256
 1847 0 1535 -77 1152 -77 c 258
 775 -77 l 258
 708 -77 653 -22 653 45 c 256
EndSplineSet
EndChar

StartChar: uniE05A
Encoding: 57434 57434 387
Width: 1645
GlyphClass: 2
Flags: HW
LayerCount: 2
Fore
SplineSet
217 1333 m 256
 284 1331 336 1273 334 1206 c 256
 324 930 323 657 323 398 c 256
 323 311 330 256 362 222 c 256
 404 179 490 167 657 167 c 257
 658 167 l 258
 777 167 878 178 933 218 c 256
 964 240 981 270 981 312 c 256
 981 445 796 670 604 866 c 256
 555 916 560 1000 614 1045 c 256
 624 1053 638 1061 638 1061 c 257
 1372 1421 l 258
 1432 1451 1506 1425 1536 1365 c 256
 1566 1305 1540 1231 1480 1201 c 258
 896 914 l 257
 1048 748 1227 542 1227 312 c 256
 1227 189 1167 81 1071 18 c 256
 960 -56 817 -77 658 -77 c 258
 657 -77 l 257
 455 -77 286 -61 176 56 c 256
 87 150 77 274 77 398 c 256
 77 659 80 936 90 1216 c 256
 92 1283 150 1335 217 1333 c 256
606 1038 m 256
 654 1085 732 1084 779 1036 c 256
 949 863 1116 690 1202 476 c 256
 1319 181 1355 167 1644 167 c 257
 1645 167 l 258
 1712 167 1768 112 1768 45 c 256
 1768 -22 1712 -77 1645 -77 c 258
 1644 -77 l 257
 1292 -77 1117 -4 972 384 c 256
 916 532 773 695 605 866 c 256
 558 914 558 991 606 1038 c 256
EndSplineSet
EndChar

StartChar: uniE05B
Encoding: 57435 57435 388
Width: 2265
GlyphClass: 2
Flags: HW
LayerCount: 2
Fore
SplineSet
1226 1038 m 256
 1274 1085 1352 1084 1399 1036 c 256
 1569 863 1740 684 1820 470 c 256
 1940 151 1953 167 2264 167 c 257
 2265 167 l 258
 2332 167 2388 112 2388 45 c 256
 2388 -22 2332 -77 2265 -77 c 258
 2264 -77 l 257
 1912 -77 1737 -4 1592 384 c 256
 1536 532 1393 695 1225 866 c 256
 1178 914 1178 991 1226 1038 c 256
325 534 m 256
 388 512 420 440 398 377 c 256
 339 215 303 60 303 -62 c 256
 303 -262 369 -387 703 -387 c 256
 1011 -387 1079 -266 1079 -234 c 256
 1079 -205 1041 -110 760 -76 c 256
 694 -68 646 -6 654 60 c 256
 662 126 724 174 790 166 c 256
 1093 130 1323 -1 1323 -234 c 256
 1323 -493 1037 -633 703 -633 c 256
 261 -633 57 -384 57 -62 c 256
 57 104 103 283 168 461 c 256
 190 524 262 556 325 534 c 256
653 45 m 256
 653 112 708 167 775 167 c 258
 1102 167 l 258
 1521 167 1601 259 1601 312 c 256
 1601 445 1416 670 1224 866 c 256
 1175 916 1180 1000 1234 1045 c 256
 1244 1053 1258 1061 1258 1061 c 257
 1992 1421 l 258
 2052 1451 2126 1425 2156 1365 c 256
 2186 1305 2160 1231 2100 1201 c 258
 1516 914 l 257
 1668 748 1847 542 1847 312 c 256
 1847 -13 1475 -77 1102 -77 c 258
 775 -77 l 258
 708 -77 653 -22 653 45 c 256
EndSplineSet
EndChar

StartChar: uniE05C
Encoding: 57436 57436 389
Width: 2443
GlyphClass: 2
Flags: HW
LayerCount: 2
Fore
SplineSet
690 -689 m 256
 326 -689 57 -516 57 -126 c 256
 57 16 88 164 128 310 c 256
 146 374 215 413 279 395 c 256
 343 377 382 308 364 244 c 256
 326 110 303 -20 303 -126 c 256
 303 -364 400 -444 690 -444 c 256
 922 -444 1049 -360 1049 -300 c 256
 1049 -250 982 -234 896 -220 c 256
 762 -200 521 -129 521 110 c 256
 521 454 891 607 1184 656 c 256
 1247 666 1307 624 1322 566 c 256
 1405 252 1460 147 1542 147 c 256
 1634 147 1659 266 1691 505 c 256
 1699 571 1764 618 1830 609 c 256
 1896 600 1940 539 1934 471 c 256
 1913 269 1850 -97 1542 -97 c 256
 1277 -97 1182 170 1118 390 c 257
 888 330 766 223 766 117 c 256
 766 65 845 40 942 22 c 256
 1140 -14 1295 -77 1295 -300 c 256
 1295 -630 898 -689 690 -689 c 256
1832 609 m 256
 1898 599 1940 539 1934 471 c 256
 1930 437 1926 378 1926 326 c 256
 1926 201 1971 149 2044 149 c 256
 2136 149 2161 201 2161 286 c 256
 2161 383 2136 477 2104 585 c 256
 2085 649 2124 717 2188 736 c 256
 2252 755 2321 717 2340 653 c 256
 2372 543 2405 423 2405 286 c 256
 2405 84 2289 -95 2046 -95 c 256
 1770 -95 1681 168 1681 368 c 256
 1681 414 1684 462 1692 508 c 256
 1702 574 1766 619 1832 609 c 256
EndSplineSet
EndChar

StartChar: uniE05D
Encoding: 57437 57437 390
Width: 2538
GlyphClass: 2
Flags: HW
LayerCount: 2
Fore
SplineSet
690 -689 m 256
 326 -689 57 -516 57 -126 c 256
 57 16 88 164 128 310 c 256
 146 374 215 413 279 395 c 256
 343 377 382 308 364 244 c 256
 326 110 303 -20 303 -126 c 256
 303 -365 400 -444 690 -444 c 256
 922 -444 1049 -360 1049 -300 c 256
 1049 -250 982 -234 896 -220 c 256
 762 -200 521 -129 521 110 c 256
 521 454 891 607 1184 656 c 256
 1247 666 1307 624 1322 566 c 256
 1386 322 1559 147 1832 147 c 256
 2104 147 2255 257 2255 414 c 256
 2255 509 2197 567 2098 567 c 256
 1907 567 1658 209 1565 -41 c 256
 1542 -103 1470 -136 1407 -113 c 256
 1344 -90 1312 -17 1335 45 c 256
 1426 291 1689 813 2098 813 c 256
 2323 813 2501 643 2501 414 c 256
 2501 47 2142 -97 1832 -97 c 256
 1481 -97 1234 117 1124 392 c 257
 894 332 766 223 766 117 c 256
 766 65 845 40 942 22 c 256
 1140 -14 1295 -77 1295 -300 c 256
 1295 -630 898 -689 690 -689 c 256
EndSplineSet
EndChar

StartChar: uniE05E
Encoding: 57438 57438 391
Width: 2690
GlyphClass: 2
Flags: HW
LayerCount: 2
Fore
SplineSet
2255 414 m 256
 2255 509 2197 567 2098 567 c 256
 1904 567 1658 203 1611 77 c 256
 1588 15 1516 -18 1453 5 c 256
 1390 28 1357 100 1380 162 c 256
 1432 302 1692 813 2098 813 c 256
 2323 813 2501 643 2501 414 c 256
 2501 47 2142 -97 1832 -97 c 256
 1481 -97 1234 117 1124 392 c 257
 887 331 766 223 766 117 c 256
 766 65 845 40 942 22 c 256
 1140 -14 1295 -77 1295 -300 c 256
 1295 -630 898 -689 690 -689 c 256
 326 -689 57 -516 57 -126 c 256
 57 16 88 164 128 310 c 256
 146 374 215 413 279 395 c 256
 343 377 382 308 364 244 c 256
 326 110 303 -20 303 -126 c 256
 303 -365 400 -444 690 -444 c 256
 922 -444 1049 -360 1049 -300 c 256
 1049 -250 982 -234 896 -220 c 256
 762 -200 521 -129 521 110 c 256
 521 454 891 607 1184 656 c 256
 1247 666 1307 624 1322 566 c 256
 1386 322 1559 147 1832 147 c 256
 2104 147 2255 257 2255 414 c 256
2298 372 m 256
 2360 395 2432 363 2455 300 c 256
 2491 202 2519 167 2689 167 c 257
 2690 167 l 258
 2757 167 2813 112 2813 45 c 256
 2813 -22 2757 -77 2690 -77 c 258
 2689 -77 l 257
 2450 -77 2295 26 2225 214 c 256
 2202 277 2236 349 2298 372 c 256
EndSplineSet
EndChar

StartChar: uniE05F
Encoding: 57439 57439 392
Width: 531
GlyphClass: 2
Flags: HW
LayerCount: 2
Fore
SplineSet
218 1333 m 256
 285 1331 337 1273 335 1206 c 256
 327 996 323 788 323 587 c 256
 323 204 342 167 530 167 c 257
 531 167 l 258
 598 167 653 112 653 45 c 256
 653 -22 598 -77 531 -77 c 258
 530 -77 l 257
 157 -77 77 142 77 587 c 256
 77 792 83 1004 91 1216 c 256
 93 1283 151 1335 218 1333 c 256
EndSplineSet
EndChar

StartChar: uniE060
Encoding: 57440 57440 393
Width: 1332
GlyphClass: 2
Flags: HW
LayerCount: 2
Fore
SplineSet
693 -715 m 256
 408 -715 37 -576 37 -201 c 256
 37 224 489 438 740 531 c 257
 626 587 496 643 432 643 c 256
 374 643 335 611 304 525 c 256
 281 463 211 428 148 450 c 256
 85 472 50 543 72 606 c 256
 141 802 270 887 433 887 c 256
 623 887 995 692 1116 626 c 256
 1165 598 1215 567 1215 508 c 256
 1215 448 1168 397 1106 384 c 256
 965 356 283 163 283 -201 c 256
 283 -364 448 -471 693 -471 c 256
 811 -471 928 -443 1030 -388 c 256
 1089 -357 1165 -379 1196 -438 c 256
 1227 -497 1205 -573 1146 -604 c 256
 1006 -677 849 -715 693 -715 c 256
1455 45 m 256
 1455 -22 1399 -77 1332 -77 c 258
 1331 -77 l 257
 1027 -77 770 113 770 458 c 256
 770 525 825 580 892 580 c 256
 959 580 1015 525 1015 458 c 256
 1015 259 1126 167 1331 167 c 257
 1332 167 l 258
 1399 167 1455 112 1455 45 c 256
EndSplineSet
EndChar

StartChar: uniE061
Encoding: 57441 57441 394
Width: 1332
GlyphClass: 2
Flags: HW
LayerCount: 2
Fore
SplineSet
119 414 m 256
 55 431 15 499 32 563 c 256
 86 769 246 889 415 889 c 256
 575 889 728 792 876 708 c 256
 986 646 1094 586 1180 558 c 256
 1247 536 1282 458 1255 394 c 256
 1239 355 1200 326 1164 320 c 256
 1067 302 962 246 835 174 c 256
 632 59 363 -77 0 -77 c 256
 -67 -77 -122 -22 -122 45 c 256
 -122 112 -67 167 0 167 c 256
 299 167 520 277 713 388 c 256
 755 412 795 434 838 451 c 257
 811 463 782 478 754 494 c 256
 602 580 467 645 415 645 c 256
 368 645 296 611 268 501 c 256
 251 437 183 397 119 414 c 256
EndSplineSet
EndChar

StartChar: uniE062
Encoding: 57442 57442 395
Width: 1351
GlyphClass: 2
Flags: HW
LayerCount: 2
Fore
SplineSet
953 499 m 256
 1020 499 1075 444 1075 377 c 256
 1075 253 1162 167 1350 167 c 257
 1351 167 l 258
 1418 167 1474 112 1474 45 c 256
 1474 -22 1418 -77 1351 -77 c 258
 1350 -77 l 257
 1077 -77 831 85 831 377 c 256
 831 444 886 499 953 499 c 256
119 414 m 256
 55 431 15 499 32 563 c 256
 86 769 246 889 415 889 c 256
 575 889 728 792 876 708 c 256
 986 646 1094 586 1180 558 c 256
 1247 536 1282 458 1255 394 c 256
 1239 355 1200 326 1164 320 c 256
 1067 302 962 246 835 174 c 256
 632 59 363 -77 0 -77 c 256
 -67 -77 -122 -22 -122 45 c 256
 -122 112 -67 167 0 167 c 256
 299 167 520 277 713 388 c 256
 755 412 795 434 838 451 c 257
 811 463 782 478 754 494 c 256
 602 580 467 645 415 645 c 256
 368 645 296 611 268 501 c 256
 251 437 183 397 119 414 c 256
EndSplineSet
EndChar

StartChar: uniE063
Encoding: 57443 57443 396
Width: 1120
GlyphClass: 2
Flags: HW
LayerCount: 2
Fore
SplineSet
1243 45 m 256
 1243 -22 1187 -77 1120 -77 c 258
 1119 -77 l 257
 790 -76 687 204 625 380 c 256
 577 519 543 589 475 726 c 256
 445 786 470 861 530 891 c 256
 590 921 665 896 695 836 c 256
 763 700 806 610 857 460 c 256
 925 267 970 167 1119 167 c 257
 1120 167 l 258
 1187 167 1243 112 1243 45 c 256
706 515 m 256
 769 537 838 505 860 442 c 256
 877 396 891 347 891 297 c 256
 891 -8 613 -107 389 -107 c 256
 299 -107 227 -98 137 -66 c 256
 74 -44 43 30 66 92 c 256
 89 154 157 182 224 162 c 256
 283 143 327 137 389 137 c 256
 575 137 645 194 645 297 c 256
 645 319 640 338 633 358 c 256
 611 421 643 493 706 515 c 256
EndSplineSet
EndChar

StartChar: uniE064
Encoding: 57444 57444 397
Width: 917
GlyphClass: 2
Flags: HW
LayerCount: 2
Fore
SplineSet
1039 45 m 256
 1039 -22 984 -77 917 -77 c 258
 916 -77 l 257
 769 -77 649 -38 564 49 c 256
 458 159 429 303 393 456 c 256
 377 520 419 587 484 603 c 256
 549 619 615 576 631 512 c 256
 669 355 701 260 740 219 c 256
 767 191 807 167 916 167 c 257
 917 167 l 258
 984 167 1039 112 1039 45 c 256
481 602 m 256
 545 619 613 579 630 515 c 256
 674 351 699 205 699 71 c 256
 699 -227 513 -451 204 -571 c 256
 142 -595 70 -563 46 -501 c 256
 22 -439 54 -367 116 -343 c 256
 361 -249 455 -111 455 71 c 256
 455 173 434 301 394 453 c 256
 377 517 417 585 481 602 c 256
EndSplineSet
EndChar

StartChar: uniE065
Encoding: 57445 57445 398
Width: 2402
GlyphClass: 2
Flags: HW
LayerCount: 2
Fore
SplineSet
303 472 m 256
 365 446 396 374 370 312 c 256
 317 184 283 51 283 -58 c 256
 283 -223 364 -351 644 -351 c 256
 903 -351 997 -219 997 -23 c 256
 997 83 972 211 924 339 c 256
 901 401 933 474 995 497 c 256
 1057 520 1130 487 1153 425 c 256
 1209 275 1243 123 1243 -23 c 256
 1243 -337 1031 -595 644 -595 c 256
 254 -595 37 -357 37 -58 c 256
 37 97 81 258 142 406 c 256
 168 468 241 498 303 472 c 256
995 496 m 256
 1057 519 1129 487 1152 425 c 256
 1237 199 1292 143 1373 143 c 256
 1465 143 1513 184 1541 434 c 256
 1549 500 1610 549 1676 541 c 256
 1742 533 1792 472 1784 406 c 256
 1747 82 1615 -103 1382 -103 c 256
 1151 -103 1016 93 924 339 c 256
 901 401 933 473 995 496 c 256
1679 541 m 256
 1745 532 1792 469 1783 403 c 256
 1775 347 1773 313 1773 265 c 256
 1773 176 1808 139 1863 139 c 256
 1920 139 1951 185 1951 309 c 256
 1951 365 1944 428 1932 490 c 256
 1920 555 1965 622 2030 634 c 256
 2095 646 2162 601 2174 536 c 256
 2188 462 2197 385 2197 309 c 256
 2197 131 2112 -107 1866 -107 c 256
 1663 -107 1527 57 1527 265 c 256
 1527 325 1533 377 1541 437 c 256
 1550 503 1613 550 1679 541 c 256
2033 634 m 256
 2099 645 2163 599 2174 533 c 256
 2228 215 2245 167 2401 167 c 257
 2402 167 l 258
 2469 167 2525 112 2525 45 c 256
 2525 -22 2469 -77 2402 -77 c 258
 2401 -77 l 257
 2052 -76 1982 202 1932 493 c 256
 1921 559 1967 623 2033 634 c 256
EndSplineSet
EndChar

StartChar: uniE066
Encoding: 57446 57446 399
Width: 1545
GlyphClass: 2
Flags: HW
LayerCount: 2
Fore
SplineSet
1278 733 m 256
 1340 757 1411 724 1435 662 c 256
 1471 568 1507 433 1507 295 c 256
 1507 139 1425 -95 1171 -95 c 256
 897 -95 785 168 785 387 c 256
 785 428 788 467 794 506 c 256
 804 572 867 619 933 609 c 256
 999 599 1046 536 1036 470 c 256
 1032 441 1029 412 1029 387 c 256
 1029 207 1086 149 1158 149 c 256
 1226 149 1263 193 1263 295 c 256
 1263 387 1233 508 1207 576 c 256
 1183 638 1216 709 1278 733 c 256
927 610 m 256
 993 604 1043 543 1037 476 c 256
 1018 276 935 -97 583 -97 c 256
 361 -97 251 98 251 275 c 256
 251 362 257 412 270 500 c 256
 280 566 343 613 409 603 c 256
 475 593 522 530 512 464 c 256
 499 376 496 338 496 275 c 256
 496 190 540 147 606 147 c 256
 714 147 769 244 793 500 c 256
 799 567 861 616 927 610 c 256
402 604 m 256
 468 598 518 538 512 471 c 256
 488 195 355 -77 0 -77 c 256
 -67 -77 -122 -22 -122 45 c 256
 -122 112 -67 167 0 167 c 256
 187 167 249 263 269 493 c 256
 275 560 336 610 402 604 c 256
EndSplineSet
EndChar

StartChar: uniE067
Encoding: 57447 57447 400
Width: 1767
GlyphClass: 2
Flags: HW
LayerCount: 2
Fore
SplineSet
1889 45 m 256
 1889 -22 1834 -77 1767 -77 c 258
 1766 -77 l 257
 1450 -77 1356 140 1312 556 c 256
 1305 622 1355 684 1421 691 c 256
 1487 698 1549 648 1556 582 c 256
 1596 200 1615 167 1766 167 c 257
 1767 167 l 258
 1834 167 1889 112 1889 45 c 256
1427 691 m 256
 1494 695 1552 643 1556 576 c 256
 1559 526 1561 474 1561 419 c 256
 1561 223 1496 -93 1189 -93 c 256
 887 -93 817 203 817 399 c 256
 817 432 819 465 821 498 c 256
 826 565 885 617 952 612 c 256
 1019 607 1070 549 1065 482 c 256
 1063 455 1063 428 1063 399 c 256
 1063 214 1106 153 1189 153 c 256
 1278 153 1317 224 1317 419 c 256
 1317 467 1315 514 1312 562 c 256
 1308 629 1360 687 1427 691 c 256
960 611 m 256
 1026 602 1073 539 1064 473 c 256
 1035 269 965 -97 612 -97 c 256
 353 -97 277 136 277 344 c 256
 277 388 279 457 283 502 c 256
 289 569 347 621 414 615 c 256
 481 609 533 551 527 484 c 256
 524 449 521 378 521 344 c 256
 521 197 547 149 627 149 c 256
 737 149 789 271 822 507 c 256
 831 573 894 620 960 611 c 256
416 615 m 256
 482 609 533 549 527 482 c 256
 498 151 358 -77 0 -77 c 256
 -67 -77 -122 -22 -122 45 c 256
 -122 112 -67 167 0 167 c 256
 214 167 258 225 283 504 c 256
 289 571 350 621 416 615 c 256
EndSplineSet
EndChar

StartChar: uniE068
Encoding: 57448 57448 401
Width: 2424
GlyphClass: 2
Flags: HW
LayerCount: 2
Fore
SplineSet
2267 408 m 256
 2267 56 1898 -77 1650 -77 c 256
 1252 -77 1043 66 938 319 c 256
 912 381 942 453 1004 479 c 256
 1066 505 1138 475 1164 413 c 256
 1230 252 1362 167 1650 167 c 256
 1856 167 2023 289 2023 397 c 256
 2023 466 1970 517 1868 517 c 256
 1712 517 1560 388 1438 129 c 256
 1409 68 1337 41 1276 70 c 256
 1215 99 1189 172 1218 233 c 256
 1352 516 1553 763 1873 763 c 256
 2065 763 2267 638 2267 408 c 256
1013 483 m 256
 1077 504 1147 468 1168 404 c 256
 1216 257 1241 119 1241 -7 c 256
 1241 -364 1003 -595 589 -595 c 256
 336 -595 37 -457 37 -117 c 256
 37 80 125 283 230 447 c 256
 266 503 344 520 400 484 c 256
 456 448 474 371 438 315 c 256
 349 175 283 6 283 -117 c 256
 283 -271 400 -351 589 -351 c 256
 903 -351 997 -232 997 -7 c 256
 997 85 976 199 934 328 c 256
 913 392 949 462 1013 483 c 256
2026 333 m 256
 2085 365 2159 343 2191 284 c 256
 2232 209 2274 167 2423 167 c 257
 2424 167 l 258
 2491 167 2547 112 2547 45 c 256
 2547 -22 2491 -77 2424 -77 c 258
 2423 -77 l 257
 2204 -77 2056 19 1976 168 c 256
 1944 227 1967 301 2026 333 c 256
EndSplineSet
EndChar

StartChar: uniE069
Encoding: 57449 57449 402
Width: 1546
GlyphClass: 2
Flags: HW
LayerCount: 2
Fore
SplineSet
1264 434 m 256
 1264 529 1205 587 1106 587 c 256
 916 587 678 285 526 -92 c 256
 506 -142 450 -169 400 -150 c 256
 350 -131 323 -74 342 -23 c 256
 438 239 696 833 1106 833 c 256
 1331 833 1509 663 1509 434 c 256
 1509 54 1084 -77 809 -77 c 256
 398 -77 231 91 231 485 c 256
 231 552 286 607 353 607 c 256
 420 607 476 552 476 485 c 256
 476 207 509 167 809 167 c 256
 1060 167 1264 290 1264 434 c 256
353 607 m 256
 420 607 475 552 475 485 c 256
 475 105 326 -77 0 -77 c 256
 -67 -77 -122 -22 -122 45 c 256
 -122 112 -67 167 0 167 c 256
 198 167 231 192 231 485 c 256
 231 552 286 607 353 607 c 256
EndSplineSet
EndChar

StartChar: uniE06A
Encoding: 57450 57450 403
Width: 1671
GlyphClass: 2
Flags: HW
LayerCount: 2
Fore
SplineSet
1501 434 m 256
 1501 49 1050 -77 780 -77 c 256
 381 -77 230 132 230 485 c 256
 230 552 285 607 352 607 c 256
 419 607 475 552 475 485 c 256
 475 214 498 167 780 167 c 256
 1036 167 1257 295 1257 434 c 256
 1257 524 1198 587 1103 587 c 256
 967 587 775 399 611 66 c 256
 581 6 506 -19 446 11 c 256
 386 41 361 116 391 176 c 256
 555 507 783 833 1103 833 c 256
 1308 833 1501 668 1501 434 c 256
361 607 m 256
 428 601 480 543 474 476 c 256
 449 156 341 -77 0 -77 c 256
 -67 -77 -122 -22 -122 45 c 256
 -122 112 -67 167 0 167 c 256
 178 167 207 200 230 494 c 256
 236 561 294 613 361 607 c 256
1278 372 m 256
 1340 395 1413 363 1436 300 c 256
 1472 202 1500 167 1670 167 c 257
 1671 167 l 258
 1738 167 1794 112 1794 45 c 256
 1794 -22 1738 -77 1671 -77 c 258
 1670 -77 l 257
 1431 -77 1276 26 1206 214 c 256
 1183 277 1216 349 1278 372 c 256
EndSplineSet
EndChar

StartChar: uniE06B
Encoding: 57451 57451 404
Width: 1656
GlyphClass: 2
Flags: HW
LayerCount: 2
Fore
SplineSet
1232 449 m 256
 1232 532 1174 591 1090 591 c 256
 893 591 669 298 562 14 c 256
 539 -48 467 -79 405 -56 c 256
 343 -33 311 40 334 102 c 256
 443 390 693 835 1090 835 c 256
 1308 835 1477 664 1477 449 c 256
 1477 -124 579 -77 160 -77 c 256
 93 -77 37 -22 37 45 c 256
 37 112 93 167 160 167 c 256
 713 167 1232 214 1232 449 c 256
403 -56 m 256
 341 -32 309 41 334 103 c 256
 394 254 419 472 419 716 c 256
 419 870 410 1034 394 1199 c 256
 388 1265 437 1327 504 1333 c 256
 571 1339 632 1289 638 1223 c 256
 654 1052 665 880 665 716 c 256
 665 456 640 212 562 13 c 256
 537 -49 465 -80 403 -56 c 256
1242 379 m 256
 1304 405 1377 376 1403 314 c 256
 1445 214 1526 167 1655 167 c 257
 1656 167 l 258
 1723 167 1779 112 1779 45 c 256
 1779 -22 1723 -77 1656 -77 c 258
 1655 -77 l 257
 1457 -77 1264 12 1177 218 c 256
 1151 280 1180 353 1242 379 c 256
EndSplineSet
EndChar

StartChar: uniE06C
Encoding: 57452 57452 405
Width: 1250
GlyphClass: 2
Flags: HW
LayerCount: 2
Fore
SplineSet
234 1332 m 256
 300 1340 361 1291 369 1225 c 256
 385 1089 393 948 393 747 c 256
 393 457 305 93 187 -117 c 256
 160 -164 99 -181 52 -154 c 256
 5 -127 -12 -67 15 -20 c 256
 107 144 149 481 149 747 c 256
 149 942 141 1071 127 1197 c 256
 119 1263 168 1324 234 1332 c 256
968 466 m 256
 968 538 912 597 816 597 c 256
 578 597 329 219 191 -108 c 256
 170 -158 112 -180 62 -159 c 256
 12 -138 -8 -80 11 -29 c 256
 91 175 354 841 816 841 c 256
 1022 841 1213 692 1213 466 c 256
 1213 -76 347 -74 15 -74 c 256
 -39 -74 -122 -22 -122 45 c 256
 -122 112 -67 167 0 167 c 256
 496 167 968 248 968 466 c 256
EndSplineSet
EndChar

StartChar: uniE06D
Encoding: 57453 57453 406
Width: 1338
GlyphClass: 2
Flags: HW
LayerCount: 2
Fore
SplineSet
314 1333 m 256
 380 1339 442 1290 448 1223 c 256
 464 1052 475 880 475 716 c 256
 475 456 450 212 372 13 c 256
 348 -49 275 -80 213 -56 c 256
 151 -32 120 41 144 103 c 256
 204 254 229 472 229 716 c 256
 229 870 220 1034 204 1199 c 256
 198 1266 248 1327 314 1333 c 256
1279 444 m 256
 1279 -64 514 -77 0 -77 c 256
 -67 -77 -122 -22 -122 45 c 256
 -122 112 -67 167 0 167 c 256
 632 167 1035 232 1035 451 c 256
 1035 520 993 589 887 589 c 256
 687 589 470 265 372 13 c 256
 348 -49 275 -80 213 -56 c 256
 151 -32 120 41 144 103 c 256
 237 340 471 833 872 833 c 256
 1145 833 1279 624 1279 444 c 256
987 316 m 256
 1048 345 1121 319 1150 258 c 256
 1184 186 1210 167 1337 167 c 257
 1338 167 l 258
 1405 167 1461 112 1461 45 c 256
 1461 -22 1405 -77 1338 -77 c 258
 1337 -77 l 257
 1163 -77 1008 -16 928 154 c 256
 899 215 926 287 987 316 c 256
EndSplineSet
EndChar

StartChar: uniE06E
Encoding: 57454 57454 407
Width: 1092
GlyphClass: 2
Flags: HW
LayerCount: 2
Fore
SplineSet
1215 45 m 256
 1215 -22 1159 -77 1092 -77 c 258
 1091 -77 l 257
 672 -76 282 283 89 565 c 256
 52 620 66 698 121 735 c 256
 176 772 254 758 291 703 c 256
 460 455 812 168 1091 167 c 257
 1092 167 l 258
 1159 167 1215 112 1215 45 c 256
104 548 m 256
 56 596 56 672 104 720 c 256
 207 823 395 899 575 899 c 256
 735 899 973 819 973 586 c 256
 973 386 815 284 651 192 c 256
 461 86 283 -74 283 -285 c 256
 283 -437 413 -523 674 -523 c 256
 742 -523 812 -515 883 -502 c 256
 948 -490 1014 -535 1026 -601 c 256
 1038 -667 992 -732 927 -744 c 256
 844 -759 758 -767 674 -767 c 256
 387 -767 37 -651 37 -285 c 256
 37 74 325 291 531 406 c 256
 704 502 728 538 728 580 c 256
 728 627 657 653 575 653 c 256
 463 653 342 601 276 548 c 256
 222 508 152 500 104 548 c 256
EndSplineSet
EndChar

StartChar: uniE06F
Encoding: 57455 57455 408
Width: 1020
GlyphClass: 2
Flags: HW
LayerCount: 2
Fore
SplineSet
823 632 m 256
 778 583 700 579 650 624 c 256
 619 652 573 669 525 669 c 256
 413 669 299 563 299 437 c 256
 299 338 370 271 510 271 c 256
 566 271 622 278 680 287 c 256
 736 296 793 303 855 305 c 256
 922 307 980 255 982 188 c 256
 984 121 932 63 865 61 c 256
 818 59 770 53 718 45 c 256
 654 34 582 27 510 27 c 256
 282 27 55 170 55 437 c 256
 55 699 273 915 525 915 c 256
 629 915 735 878 816 804 c 256
 866 759 868 681 823 632 c 256
983 183 m 256
 983 116 927 61 860 61 c 256
 756 61 687 40 586 10 c 256
 454 -30 284 -77 0 -77 c 256
 -67 -77 -122 -22 -122 45 c 256
 -122 112 -67 167 0 167 c 256
 260 167 388 206 516 244 c 256
 615 274 720 305 860 305 c 256
 927 305 983 250 983 183 c 256
EndSplineSet
EndChar

StartChar: uniE070
Encoding: 57456 57456 409
Width: 1040
GlyphClass: 2
Flags: HW
LayerCount: 2
Fore
SplineSet
521 838 m 256
 696 838 965 742 965 483 c 256
 965 65 291 -77 0 -77 c 256
 -67 -77 -122 -22 -122 45 c 256
 -122 112 -67 167 0 167 c 256
 314 167 719 363 719 491 c 256
 719 552 644 592 541 592 c 256
 469 592 381 567 315 532 c 257
 471 359 732 167 1039 167 c 257
 1040 167 l 258
 1107 167 1163 112 1163 45 c 256
 1163 -22 1107 -77 1040 -77 c 258
 1039 -77 l 257
 552 -77 193 265 34 488 c 256
 -1 538 6 608 49 648 c 256
 164 757 355 838 521 838 c 256
EndSplineSet
EndChar

StartChar: uniE071
Encoding: 57457 57457 410
Width: 1829
GlyphClass: 2
Flags: HW
LayerCount: 2
Fore
SplineSet
1399 905 m 256
 1651 905 1787 707 1787 484 c 256
 1787 -16 1244 -107 840 -107 c 256
 502 -107 37 -88 37 336 c 256
 37 422 57 516 96 620 c 256
 119 682 191 715 254 692 c 256
 317 669 349 596 326 534 c 256
 294 448 283 382 283 336 c 256
 283 188 436 137 840 137 c 256
 1270 137 1541 240 1541 484 c 256
 1541 608 1481 659 1405 659 c 256
 1327 659 1257 607 1257 472 c 256
 1257 277 1459 167 1828 167 c 257
 1829 167 l 258
 1896 167 1951 112 1951 45 c 256
 1951 -22 1896 -77 1829 -77 c 258
 1828 -77 l 257
 1458 -77 1013 41 1013 472 c 256
 1013 707 1169 905 1399 905 c 256
EndSplineSet
EndChar

StartChar: uniE072
Encoding: 57458 57458 411
Width: 1461
GlyphClass: 2
Flags: HW
LayerCount: 2
Fore
SplineSet
970 547 m 256
 890 547 831 452 831 316 c 256
 831 193 885 167 1003 167 c 258
 1461 167 l 258
 1528 167 1583 112 1583 45 c 256
 1583 -22 1528 -77 1461 -77 c 258
 1018 -79 l 258
 779 -79 585 38 585 316 c 256
 585 510 705 793 977 793 c 256
 1347 793 1383 349 1383 121 c 256
 1383 -319 1106 -585 704 -585 c 256
 280 -585 37 -351 37 -17 c 256
 37 129 79 286 149 444 c 256
 176 506 250 533 311 506 c 256
 372 479 400 406 373 344 c 256
 313 208 283 83 283 -17 c 256
 283 -207 374 -339 704 -339 c 256
 982 -339 1139 -201 1139 121 c 256
 1139 397 1068 547 970 547 c 256
EndSplineSet
EndChar

StartChar: uniE073
Encoding: 57459 57459 412
Width: 1772
GlyphClass: 2
Flags: HW
LayerCount: 2
Fore
SplineSet
1895 45 m 256
 1895 -22 1839 -77 1772 -77 c 258
 1771 -77 l 257
 1503 -77 1268 94 1268 431 c 256
 1268 498 1323 553 1390 553 c 256
 1457 553 1513 498 1513 431 c 256
 1513 233 1610 167 1771 167 c 257
 1772 167 l 258
 1839 167 1895 112 1895 45 c 256
1330 1332 m 256
 1396 1340 1459 1292 1467 1226 c 256
 1497 1002 1513 673 1513 431 c 256
 1513 19 1092 -107 786 -107 c 256
 504 -107 37 -73 37 363 c 256
 37 454 64 542 100 624 c 256
 127 685 201 713 262 686 c 256
 323 659 350 585 323 524 c 256
 297 468 283 406 283 363 c 256
 283 189 458 139 786 139 c 256
 1072 139 1267 247 1267 431 c 256
 1267 663 1251 990 1225 1196 c 256
 1217 1262 1264 1324 1330 1332 c 256
EndSplineSet
EndChar

StartChar: uniE074
Encoding: 57460 57460 413
Width: 1054
GlyphClass: 2
Flags: HW
LayerCount: 2
Fore
SplineSet
-123 45 m 256
 -123 112 -67 167 0 167 c 256
 409 167 449 246 449 312 c 256
 449 445 264 670 72 866 c 256
 23 916 28 1000 82 1045 c 256
 92 1053 106 1061 106 1061 c 257
 840 1421 l 258
 900 1451 974 1425 1004 1365 c 256
 1034 1305 1008 1231 948 1201 c 258
 364 914 l 257
 516 748 695 542 695 312 c 256
 695 0 383 -77 0 -77 c 256
 -67 -77 -123 -22 -123 45 c 256
EndSplineSet
EndChar

StartChar: uniE075
Encoding: 57461 57461 414
Width: 1113
GlyphClass: 2
Flags: HW
LayerCount: 2
Fore
SplineSet
50 897 m 256
 20 957 46 1031 106 1061 c 258
 840 1421 l 258
 900 1451 974 1425 1004 1365 c 256
 1034 1305 1008 1231 948 1201 c 258
 214 841 l 258
 154 811 80 837 50 897 c 256
-123 45 m 256
 -123 112 -67 167 0 167 c 256
 390 167 449 217 449 312 c 256
 449 444 261 676 72 866 c 256
 23 916 28 1000 82 1045 c 256
 130 1085 203 1080 247 1036 c 256
 417 863 593 682 669 469 c 256
 773 180 800 167 1112 167 c 257
 1113 167 l 258
 1180 167 1236 112 1236 45 c 256
 1236 -22 1180 -77 1113 -77 c 258
 1112 -77 l 257
 894 -77 731 -70 597 94 c 257
 489 -42 289 -77 0 -77 c 256
 -67 -77 -123 -22 -123 45 c 256
EndSplineSet
EndChar

StartChar: uniE076
Encoding: 57462 57462 415
Width: 1450
GlyphClass: 2
Flags: HW
LayerCount: 2
Fore
SplineSet
1084 494 m 256
 1151 498 1210 447 1214 380 c 256
 1227 169 1255 167 1449 167 c 257
 1450 167 l 258
 1517 167 1573 112 1573 45 c 256
 1573 -22 1517 -77 1450 -77 c 258
 1449 -77 l 257
 1186 -77 991 32 970 364 c 256
 966 431 1017 490 1084 494 c 256
1038 1333 m 256
 1105 1338 1164 1287 1169 1220 c 256
 1197 830 1219 500 1219 148 c 256
 1219 -217 1069 -547 609 -547 c 256
 263 -547 37 -325 37 -15 c 256
 37 140 87 298 145 413 c 256
 175 473 250 498 310 468 c 256
 370 438 395 363 365 303 c 256
 323 218 283 86 283 -15 c 256
 283 -189 375 -301 609 -301 c 256
 901 -301 973 -161 973 148 c 256
 973 488 953 812 925 1202 c 256
 920 1269 971 1328 1038 1333 c 256
EndSplineSet
EndChar

StartChar: uniE077
Encoding: 57463 57463 416
Width: 494
GlyphClass: 2
Flags: HW
LayerCount: 2
Fore
SplineSet
229 1332 m 256
 295 1340 358 1293 366 1227 c 256
 404 936 417 762 417 444 c 256
 417 312 402 193 340 92 c 256
 269 -21 145 -77 0 -77 c 256
 -67 -77 -122 -22 -122 45 c 256
 -122 112 -67 167 0 167 c 256
 88 167 112 188 132 220 c 256
 154 255 171 330 171 444 c 256
 171 758 162 908 124 1195 c 256
 116 1261 163 1324 229 1332 c 256
EndSplineSet
EndChar

StartChar: uniE078
Encoding: 57464 57464 417
Width: 674
GlyphClass: 2
Flags: HW
LayerCount: 2
Fore
SplineSet
797 45 m 256
 797 -22 741 -77 674 -77 c 258
 673 -77 l 257
 428 -77 215 71 215 369 c 256
 215 436 270 491 337 491 c 256
 404 491 460 436 460 369 c 256
 460 214 523 167 673 167 c 257
 674 167 l 258
 741 167 797 112 797 45 c 256
281 1333 m 256
 347 1339 409 1290 415 1223 c 256
 442 933 459 684 459 369 c 256
 459 77 269 -77 0 -77 c 256
 -67 -77 -122 -22 -122 45 c 256
 -122 112 -67 167 0 167 c 256
 169 167 215 207 215 369 c 256
 215 674 198 913 171 1199 c 256
 165 1266 215 1327 281 1333 c 256
EndSplineSet
EndChar

StartChar: uniE079
Encoding: 57465 57465 418
Width: 1365
GlyphClass: 2
Flags: HW
LayerCount: 2
Fore
SplineSet
981 440 m 256
 1046 455 1112 413 1127 348 c 256
 1157 220 1194 167 1364 167 c 257
 1365 167 l 258
 1432 167 1488 112 1488 45 c 256
 1488 -22 1432 -77 1365 -77 c 258
 1364 -77 l 257
 1086 -77 937 85 889 294 c 256
 874 359 916 425 981 440 c 256
EndSplineSet
EndChar

StartChar: uniE07A
Encoding: 57466 57466 419
Width: 996
GlyphClass: 2
Flags: HW
LayerCount: 2
Fore
SplineSet
564 495 m 256
 491 495 461 458 410 300 c 256
 360 147 280 -77 0 -77 c 256
 -67 -77 -122 -22 -122 45 c 256
 -122 112 -67 167 0 167 c 256
 108 167 124 206 176 374 c 256
 243 590 353 741 573 741 c 256
 797 741 959 524 959 278 c 256
 959 15 761 -107 576 -107 c 256
 458 -107 339 -68 246 4 c 256
 193 44 184 123 224 176 c 256
 264 229 343 238 396 198 c 256
 443 162 514 137 576 137 c 256
 655 137 713 169 713 278 c 256
 713 432 618 495 564 495 c 256
EndSplineSet
EndChar

StartChar: uniE07B
Encoding: 57467 57467 420
Width: 1199
GlyphClass: 2
Flags: HW
LayerCount: 2
Fore
SplineSet
1321 45 m 256
 1321 -22 1266 -77 1199 -77 c 258
 1198 -77 l 257
 904 -77 804 102 759 244 c 256
 737 312 700 397 580 512 c 256
 532 558 534 639 582 686 c 256
 630 733 709 732 756 684 c 256
 881 556 949 447 991 326 c 256
 1034 205 1049 167 1198 167 c 257
 1199 167 l 258
 1266 167 1321 112 1321 45 c 256
569 -107 m 256
 365 -107 236 22 236 216 c 256
 236 366 282 515 410 679 c 256
 450 732 533 736 583 692 c 256
 633 648 640 569 596 519 c 256
 484 389 458 294 458 234 c 256
 458 169 508 137 587 137 c 256
 685 137 736 174 736 241 c 256
 736 301 705 395 584 509 c 256
 536 555 533 634 579 682 c 256
 625 730 704 733 752 687 c 256
 899 547 981 386 981 226 c 256
 981 18 803 -107 569 -107 c 256
582 693 m 256
 633 650 641 570 597 520 c 256
 556 472 505 400 478 342 c 256
 410 197 278 -77 0 -77 c 256
 -67 -77 -122 -22 -122 45 c 256
 -122 112 -67 167 0 167 c 256
 94 167 183 283 267 448 c 256
 311 534 360 618 409 678 c 256
 452 729 531 736 582 693 c 256
EndSplineSet
EndChar

StartChar: uniE07C
Encoding: 57468 57468 421
Width: 1504
GlyphClass: 2
Flags: HW
LayerCount: 2
Fore
SplineSet
1134 466 m 256
 1198 486 1266 448 1286 384 c 256
 1318 279 1342 224 1363 202 c 256
 1378 186 1405 167 1503 167 c 257
 1504 167 l 258
 1571 167 1627 112 1627 45 c 256
 1627 -22 1571 -77 1504 -77 c 258
 1503 -77 l 257
 1375 -77 1265 -49 1187 32 c 256
 1108 112 1082 213 1052 314 c 256
 1032 378 1070 446 1134 466 c 256
EndSplineSet
EndChar

StartChar: uniE07D
Encoding: 57469 57469 422
Width: 1081
GlyphClass: 2
Flags: HW
LayerCount: 2
Fore
SplineSet
724 221 m 256
 733 155 686 92 620 83 c 256
 590 79 556 75 518 75 c 256
 313 75 57 169 57 414 c 256
 57 612 211 735 380 815 c 256
 494 868 547 925 558 962 c 256
 577 1026 646 1065 710 1046 c 256
 774 1027 813 958 794 894 c 256
 750 741 614 654 484 593 c 256
 339 525 303 464 303 414 c 256
 303 385 345 319 518 319 c 256
 538 319 558 321 586 325 c 256
 652 334 715 287 724 221 c 256
663 1075 m 256
 729 1081 790 1031 796 964 c 258
 846 417 l 258
 868 172 908 167 1080 167 c 257
 1081 167 l 258
 1148 167 1204 112 1204 45 c 256
 1204 -22 1148 -77 1081 -77 c 258
 1080 -77 l 257
 813 -77 634 55 602 395 c 258
 552 942 l 258
 546 1009 597 1069 663 1075 c 256
EndSplineSet
EndChar

StartChar: uniE07E
Encoding: 57470 57470 423
Width: 1283
GlyphClass: 2
Flags: HW
LayerCount: 2
Fore
SplineSet
20 430 m 256
 20 662 197 879 436 879 c 256
 688 879 775 623 775 435 c 256
 775 43 354 -77 0 -77 c 256
 -67 -77 -122 -22 -122 45 c 256
 -122 112 -67 167 0 167 c 256
 370 167 584 253 584 450 c 256
 584 566 494 633 436 633 c 256
 357 633 265 546 265 430 c 256
 265 290 515 167 800 167 c 256
 940 167 1004 212 1004 280 c 256
 1004 401 870 505 619 589 c 256
 472 638 295 707 141 790 c 256
 82 822 59 897 91 956 c 256
 123 1015 198 1038 257 1006 c 256
 389 935 559 872 703 819 c 256
 940 733 1225 589 1225 286 c 256
 1225 55 1020 -77 800 -77 c 256
 515 -77 20 50 20 430 c 256
EndSplineSet
EndChar

StartChar: uniE07F
Encoding: 57471 57471 424
Width: 930
GlyphClass: 2
Flags: HW
LayerCount: 2
Fore
SplineSet
534 859 m 256
 722 859 827 701 827 546 c 256
 827 235 514 -77 0 -77 c 256
 -67 -77 -122 -22 -122 45 c 256
 -122 112 -67 167 0 167 c 256
 422 167 591 380 591 526 c 256
 591 584 565 620 509 620 c 256
 390 620 303 437 303 136 c 256
 303 -124 453 -349 538 -349 c 256
 583 -349 601 -311 601 -232 c 256
 601 -154 575 -64 552 -8 c 256
 549 2 541 26 541 45 c 256
 541 111 595 167 663 167 c 258
 930 167 l 258
 997 167 1053 112 1053 45 c 256
 1053 -22 997 -77 930 -77 c 258
 826 -77 l 257
 838 -125 845 -178 845 -232 c 256
 845 -387 768 -595 554 -595 c 256
 222 -595 58 -157 58 136 c 256
 58 437 168 859 534 859 c 256
EndSplineSet
EndChar

StartChar: uniE080
Encoding: 57472 57472 425
Width: 931
GlyphClass: 2
Flags: HW
LayerCount: 2
Fore
SplineSet
460 779 m 256
 753 779 853 444 853 134 c 256
 853 -250 611 -487 226 -577 c 256
 161 -593 94 -554 77 -490 c 256
 60 -426 99 -354 164 -340 c 256
 483 -273 609 -113 609 134 c 256
 609 448 533 533 463 533 c 256
 400 533 333 486 333 304 c 256
 333 252 343 220 362 199 c 256
 384 176 419 167 470 167 c 258
 931 167 l 258
 998 167 1053 112 1053 45 c 256
 1053 -22 998 -77 931 -77 c 258
 470 -77 l 258
 361 -77 259 -57 182 18 c 256
 108 92 87 189 87 287 c 256
 87 517 197 779 460 779 c 256
EndSplineSet
EndChar

StartChar: uniE081
Encoding: 57473 57473 426
Width: 1231
GlyphClass: 2
Flags: HW
LayerCount: 2
Fore
SplineSet
1012 1325 m 256
 1078 1331 1139 1281 1145 1214 c 256
 1164 1002 1173 840 1173 520 c 256
 1173 118 1012 -77 593 -77 c 256
 437 -77 304 -68 162 -47 c 256
 96 -38 49 26 59 92 c 256
 69 158 132 204 198 195 c 256
 328 176 447 167 593 167 c 256
 904 167 929 202 929 520 c 256
 929 836 920 982 901 1192 c 256
 895 1259 946 1319 1012 1325 c 256
343 1263 m 256
 406 1285 477 1252 499 1189 c 256
 583 955 619 760 619 408 c 256
 619 341 563 286 496 286 c 256
 429 286 374 341 374 408 c 256
 374 744 341 905 269 1107 c 256
 247 1170 280 1241 343 1263 c 256
EndSplineSet
EndChar

StartChar: uniE082
Encoding: 57474 57474 427
Width: 1282
GlyphClass: 2
Flags: HW
LayerCount: 2
Fore
SplineSet
910 1287 m 256
 976 1295 1038 1247 1046 1181 c 256
 1076 929 1091 758 1091 514 c 256
 1091 45 785 -77 446 -77 c 256
 357 -77 264 -70 168 -61 c 256
 102 -55 52 6 58 73 c 256
 64 140 126 189 192 183 c 256
 284 174 371 167 446 167 c 256
 733 167 845 203 845 514 c 256
 845 748 834 903 804 1151 c 256
 796 1217 844 1279 910 1287 c 256
388 324 m 256
 323 337 277 403 290 468 c 256
 300 520 305 568 305 627 c 256
 305 813 259 956 206 1074 c 256
 179 1135 205 1209 266 1236 c 256
 327 1263 402 1235 429 1174 c 256
 492 1036 551 855 551 627 c 256
 551 556 546 491 532 421 c 256
 519 356 453 311 388 324 c 256
968 637 m 256
 1035 637 1091 581 1091 514 c 256
 1091 210 1152 167 1281 167 c 257
 1282 167 l 258
 1349 167 1405 112 1405 45 c 256
 1405 -22 1349 -77 1282 -77 c 258
 1281 -77 l 257
 966 -76 845 175 845 514 c 256
 845 581 901 637 968 637 c 256
EndSplineSet
EndChar

StartChar: uniE083
Encoding: 57475 57475 428
Width: 1610
GlyphClass: 2
Flags: HW
LayerCount: 2
Fore
SplineSet
1349 1258 m 256
 1415 1266 1477 1216 1485 1150 c 256
 1512 909 1533 710 1533 441 c 256
 1533 14 1198 -107 823 -107 c 256
 497 -107 37 -63 37 382 c 256
 37 459 51 541 76 632 c 256
 94 696 163 735 227 717 c 256
 291 699 330 630 312 566 c 256
 291 491 283 429 283 382 c 256
 283 193 455 137 823 137 c 256
 1170 137 1287 206 1287 441 c 256
 1287 698 1268 881 1241 1122 c 256
 1233 1188 1283 1250 1349 1258 c 256
EndSplineSet
EndChar

StartChar: uniE084
Encoding: 57476 57476 429
Width: 2681
GlyphClass: 2
Flags: HW
LayerCount: 2
Fore
SplineSet
690 -689 m 256
 326 -689 57 -516 57 -126 c 256
 57 16 88 164 128 310 c 256
 146 374 215 413 279 395 c 256
 343 377 382 308 364 244 c 256
 326 110 303 -20 303 -126 c 256
 303 -364 400 -444 690 -444 c 256
 922 -444 1049 -360 1049 -300 c 256
 1049 -250 982 -234 896 -220 c 256
 762 -200 521 -129 521 110 c 256
 521 454 891 607 1184 656 c 256
 1247 666 1307 624 1322 566 c 256
 1405 252 1463 147 1549 147 c 256
 1642 147 1703 267 1736 506 c 256
 1745 572 1808 619 1874 610 c 256
 1940 601 1987 538 1978 472 c 256
 1949 271 1882 -97 1542 -97 c 256
 1277 -97 1182 170 1118 390 c 257
 888 330 766 223 766 117 c 256
 766 65 845 40 942 22 c 256
 1140 -14 1295 -77 1295 -300 c 256
 1295 -630 898 -689 690 -689 c 256
1865 611 m 256
 1932 606 1984 548 1979 481 c 256
 1977 453 1977 427 1977 398 c 256
 1977 216 2021 151 2107 151 c 256
 2189 151 2235 213 2235 411 c 256
 2235 458 2231 508 2226 556 c 256
 2220 622 2270 684 2336 690 c 256
 2402 696 2464 646 2470 580 c 256
 2475 528 2479 470 2479 411 c 256
 2479 223 2427 -93 2115 -93 c 256
 1805 -93 1731 200 1731 398 c 256
 1731 431 1733 465 1735 497 c 256
 1740 564 1798 616 1865 611 c 256
2334 689 m 256
 2400 697 2461 648 2469 582 c 256
 2520 150 2542 167 2680 167 c 257
 2681 167 l 258
 2748 167 2804 111 2804 44 c 256
 2804 -23 2748 -79 2681 -79 c 258
 2680 -79 l 257
 2365 -79 2276 134 2227 554 c 256
 2219 620 2268 681 2334 689 c 256
EndSplineSet
EndChar

StartChar: uniE085
Encoding: 57477 57477 430
Width: 435
GlyphClass: 2
Flags: HW
LayerCount: 2
Fore
SplineSet
289 659 m 256
 244 689 231 750 261 795 c 256
 267 805 273 818 273 845 c 256
 273 889 244 923 176 923 c 256
 125 923 88 881 88 849 c 256
 88 798 109 777 167 723 c 256
 206 687 210 624 174 585 c 256
 138 546 74 543 35 579 c 256
 -21 629 -108 710 -108 849 c 256
 -108 1007 31 1119 176 1119 c 256
 326 1119 469 1015 469 845 c 256
 469 786 455 731 425 687 c 256
 395 642 334 629 289 659 c 256
-371 -474 m 256
 -380 -408 -333 -345 -267 -336 c 256
 20 -296 163 -160 163 181 c 256
 163 234 157 290 148 343 c 256
 136 408 182 472 248 484 c 256
 314 496 378 450 390 385 c 256
 402 317 407 248 407 181 c 256
 407 -268 158 -524 -233 -578 c 256
 -299 -587 -362 -540 -371 -474 c 256
EndSplineSet
EndChar

StartChar: uniE086
Encoding: 57478 57478 431
Width: 593
GlyphClass: 2
Flags: HW
LayerCount: 2
Fore
SplineSet
143 502 m 256
 207 521 275 482 294 418 c 256
 325 311 339 244 339 137 c 256
 339 -222 157 -482 -220 -576 c 256
 -284 -592 -353 -550 -369 -486 c 256
 -385 -422 -344 -354 -280 -338 c 256
 -2 -270 95 -130 95 137 c 256
 95 228 91 243 60 350 c 256
 41 414 79 483 143 502 c 256
188 659 m 256
 143 689 131 750 161 795 c 256
 167 805 172 818 172 845 c 256
 172 889 144 923 76 923 c 256
 25 923 -12 881 -12 849 c 256
 -12 798 8 777 66 723 c 256
 105 687 110 624 74 585 c 256
 38 546 -27 543 -66 579 c 256
 -122 629 -209 710 -209 849 c 256
 -209 1007 -69 1119 76 1119 c 256
 226 1119 368 1015 368 845 c 256
 368 786 354 731 324 687 c 256
 294 642 233 629 188 659 c 256
715 45 m 256
 715 -22 660 -77 593 -77 c 258
 592 -77 l 257
 238 -77 122 156 60 347 c 256
 40 411 76 481 140 501 c 256
 204 521 274 485 294 421 c 256
 350 249 376 167 592 167 c 257
 593 167 l 258
 660 167 715 112 715 45 c 256
EndSplineSet
EndChar

StartChar: uniE087
Encoding: 57479 57479 432
Width: 1465
GlyphClass: 2
Flags: HW
LayerCount: 2
Fore
SplineSet
815 137 m 256
 919 137 967 157 967 231 c 256
 967 327 825 524 664 588 c 256
 602 613 571 686 596 748 c 256
 621 810 694 841 756 816 c 256
 971 728 1211 475 1211 210 c 256
 1211 -21 1004 -107 815 -107 c 256
 545 -107 427 74 427 264 c 256
 427 319 433 376 446 437 c 257
 308 407 283 353 283 156 c 256
 283 -204 290 -375 312 -690 c 256
 317 -757 265 -815 198 -820 c 256
 131 -825 73 -773 68 -706 c 256
 46 -389 37 -208 37 156 c 256
 37 455 174 707 588 713 c 256
 668 713 731 674 731 590 c 256
 731 577 727 545 715 509 c 257
 687 425 671 346 671 264 c 256
 671 181 711 137 815 137 c 256
598 751 m 256
 624 813 697 841 759 814 c 256
 1007 705 1117 518 1194 382 c 256
 1279 230 1322 167 1464 167 c 257
 1465 167 l 258
 1532 167 1588 112 1588 45 c 256
 1588 -22 1532 -77 1465 -77 c 258
 1464 -77 l 257
 1179 -77 1062 116 980 262 c 256
 904 396 837 513 661 590 c 256
 599 617 572 689 598 751 c 256
EndSplineSet
EndChar

StartChar: uniFB00
Encoding: 64256 64256 433
Width: 1386
GlyphClass: 3
Flags: HW
LayerCount: 2
Fore
SplineSet
38 821 m 256
 33 888 84 947 151 952 c 256
 316 964 480 971 643 971 c 256
 842 971 1042 960 1240 937 c 256
 1306 929 1356 868 1348 802 c 256
 1340 736 1278 687 1212 695 c 256
 1024 716 834 725 643 725 c 256
 486 725 328 720 169 708 c 256
 102 703 43 754 38 821 c 256
1307 1463 m 256
 1269 1429 1213 1422 1169 1445 c 256
 1153 1429 1141 1402 1133 1369 c 256
 1095 1118 1072 626 1069 324 c 256
 1061 173 1004 -34 940 -122 c 256
 876 -124 820 -72 818 -8 c 256
 816 258 820 719 844 990 c 256
 853 1184 878 1490 1016 1636 c 256
 1041 1684 1080 1731 1132 1731 c 256
 1212 1731 1272 1686 1316 1636 c 256
 1360 1586 1357 1507 1307 1463 c 256
694 1463 m 256
 656 1429 600 1422 556 1445 c 256
 540 1429 528 1402 520 1369 c 256
 482 1118 459 626 456 324 c 256
 448 173 392 -34 328 -122 c 256
 264 -124 207 -72 205 -8 c 256
 203 258 207 719 231 990 c 256
 240 1184 265 1490 403 1636 c 256
 428 1684 467 1731 519 1731 c 256
 599 1731 659 1686 703 1636 c 256
 747 1586 744 1507 694 1463 c 256
EndSplineSet
Ligature2: "'rlig' Required Ligatures in Latin lookup 8 subtable" f f
EndChar

StartChar: uniFB05
Encoding: 64261 64261 434
Width: 1325
GlyphClass: 3
Flags: HW
LayerCount: 2
Fore
SplineSet
1286 804 m 256
 1278 738 1216 691 1150 699 c 256
 997 718 824 725 651 725 c 256
 486 725 321 719 168 708 c 256
 101 703 43 755 38 822 c 256
 33 889 85 947 152 952 c 256
 309 963 480 971 651 971 c 256
 832 971 1013 962 1180 941 c 256
 1246 933 1294 870 1286 804 c 256
966 1337 m 256
 1032 1329 1081 1268 1073 1202 c 256
 1040 918 1015 640 1015 355 c 256
 1015 214 1022 137 1088 137 c 256
 1102 137 1121 138 1140 142 c 256
 1205 154 1270 109 1282 44 c 256
 1294 -21 1249 -86 1184 -98 c 256
 1149 -104 1118 -107 1088 -107 c 256
 804 -107 771 196 771 355 c 256
 771 654 798 944 831 1230 c 256
 839 1296 900 1345 966 1337 c 256
694 1463 m 256
 669 1439 641 1433 618 1435 c 256
 582 1444 562 1458 536 1458 c 256
 510 1458 491 1373 485 1298 c 256
 461 960 446 346 446 -4 c 256
 446 -71 390 -126 323 -126 c 256
 256 -126 201 -71 201 -4 c 256
 201 350 209 964 241 1319 c 256
 254 1472 308 1731 519 1731 c 256
 599 1731 659 1686 703 1636 c 256
 747 1586 742 1509 694 1463 c 256
EndSplineSet
Ligature2: "'rlig' Required Ligatures in Latin lookup 8 subtable" f t
EndChar

StartChar: uniFD3E
Encoding: 64830 64830 492
Width: 866
GlyphClass: 2
Flags: HW
LayerCount: 2
Fore
SplineSet
622 1478 m 256
 682 1448 708 1374 678 1314 c 256
 570 1093 521 913 521 681 c 256
 521 467 573 210 678 -2 c 256
 708 -62 682 -136 622 -166 c 256
 562 -196 488 -170 458 -110 c 256
 335 142 275 429 275 681 c 256
 275 953 338 1179 458 1422 c 256
 488 1482 562 1508 622 1478 c 256
839 774 m 256
 839 698 768 645 706 616 c 257
 731 594 757 563 757 524 c 256
 757 348 574 345 554 345 c 256
 497 345 458 364 426 391 c 257
 386 344 320 307 237 307 c 256
 149 307 67 382 67 476 c 256
 67 543 94 595 131 636 c 257
 77 676 27 738 27 819 c 256
 27 971 184 1001 234 1001 c 256
 327 1001 388 960 428 912 c 257
 481 957 551 985 629 985 c 256
 758 985 839 882 839 774 c 256
EndSplineSet
EndChar

StartChar: uniFD3F
Encoding: 64831 64831 493
Width: 861
GlyphClass: 2
Flags: HW
LayerCount: 2
Fore
SplineSet
236 1478 m 256
 296 1508 370 1482 400 1422 c 256
 520 1179 583 953 583 681 c 256
 583 411 522 139 400 -110 c 256
 370 -170 296 -196 236 -166 c 256
 176 -136 150 -62 180 -2 c 256
 286 213 337 447 337 681 c 256
 337 913 288 1093 180 1314 c 256
 150 1374 176 1448 236 1478 c 256
107 526 m 256
 107 567 131 596 157 618 c 257
 94 649 27 702 27 781 c 256
 27 910 136 997 247 997 c 256
 334 997 400 962 450 912 c 257
 492 954 550 985 630 985 c 256
 710 985 834 928 834 792 c 256
 834 715 790 660 738 625 c 257
 769 589 790 545 790 493 c 256
 790 348 648 309 593 309 c 256
 531 309 477 335 443 368 c 257
 409 340 361 319 305 319 c 256
 210 319 107 397 107 526 c 256
EndSplineSet
EndChar

StartChar: v
Encoding: 118 118 589
Width: 1084
GlyphClass: 2
Flags: HW
LayerCount: 2
Fore
SplineSet
108 1082 m 256
 169 1110 242 1084 271 1023 c 256
 361 831 468 599 540 364 c 257
 646 564 741 781 806 1005 c 256
 825 1069 894 1107 958 1088 c 256
 1022 1069 1061 1001 1042 937 c 256
 941 589 779 260 606 -20 c 256
 590 -46 565 -65 535 -73 c 256
 467 -92 395 -47 382 22 c 256
 323 322 174 653 49 919 c 256
 20 980 47 1054 108 1082 c 256
EndSplineSet
EndChar

StartChar: w
Encoding: 119 119 590
Width: 1501
GlyphClass: 2
Flags: HW
LayerCount: 2
Fore
SplineSet
362 1060 m 256
 420 1027 441 952 408 894 c 256
 364 816 283 560 283 374 c 256
 283 201 334 137 425 137 c 256
 540 137 633 315 664 681 c 256
 671 752 718 809 788 803 c 256
 852 798 901 743 901 683 c 256
 902 299 930 137 1038 137 c 256
 1137 137 1219 264 1219 513 c 256
 1219 657 1183 812 1141 896 c 256
 1111 956 1136 1031 1196 1061 c 256
 1256 1091 1331 1066 1361 1006 c 256
 1427 874 1463 693 1463 513 c 256
 1463 268 1385 -107 1038 -107 c 256
 881 -107 789 22 743 148 c 257
 679 26 568 -107 406 -107 c 256
 108 -107 37 187 37 374 c 256
 37 618 124 886 196 1014 c 256
 229 1072 304 1093 362 1060 c 256
EndSplineSet
EndChar

StartChar: x
Encoding: 120 120 591
Width: 1137
GlyphClass: 2
Flags: HW
LayerCount: 2
Fore
SplineSet
82 -95 m 256
 31 -53 23 27 65 78 c 258
 860 1049 l 258
 902 1100 982 1108 1033 1066 c 256
 1084 1024 1092 944 1050 893 c 258
 255 -78 l 258
 213 -129 133 -137 82 -95 c 256
180 1067 m 256
 240 1097 315 1072 345 1012 c 256
 497 704 813 336 1063 86 c 256
 1111 38 1111 -38 1063 -86 c 256
 1015 -134 939 -134 891 -86 c 256
 629 176 301 548 125 902 c 256
 95 962 120 1037 180 1067 c 256
EndSplineSet
EndChar

StartChar: y
Encoding: 121 121 592
Width: 1127
GlyphClass: 2
Flags: HW
LayerCount: 2
Fore
SplineSet
239 1093 m 256
 305 1086 355 1024 348 958 c 256
 335 837 327 710 327 589 c 256
 327 289 372 137 526 137 c 256
 665 137 747 223 798 398 c 256
 817 462 886 501 950 482 c 256
 1014 463 1053 394 1034 330 c 256
 969 109 813 -107 526 -107 c 256
 108 -107 83 337 83 589 c 256
 83 720 89 853 104 984 c 256
 111 1050 173 1100 239 1093 c 256
916 1086 m 256
 983 1089 1041 1035 1044 968 c 256
 1049 864 1049 698 1049 546 c 256
 1049 127 1067 -557 462 -557 c 256
 289 -557 144 -487 59 -363 c 256
 22 -308 36 -230 91 -193 c 256
 146 -156 224 -170 261 -225 c 256
 295 -275 351 -311 462 -311 c 256
 781 -311 805 38 805 546 c 256
 805 696 804 863 800 958 c 256
 797 1025 849 1083 916 1086 c 256
EndSplineSet
EndChar

StartChar: z
Encoding: 122 122 596
Width: 1054
GlyphClass: 2
Flags: HW
LayerCount: 2
Fore
SplineSet
40 862 m 256
 29 928 74 991 140 1002 c 256
 230 1017 376 1037 538 1037 c 256
 709 1037 834 996 912 948 c 256
 981 904 988 803 926 751 c 256
 799 645 552 364 398 138 c 257
 560 146 754 151 894 151 c 256
 961 151 1017 96 1017 29 c 256
 1017 -38 961 -93 894 -93 c 256
 689 -93 363 -104 177 -120 c 256
 73 -129 16 -18 57 59 c 256
 174 283 416 582 604 778 c 257
 537 785 462 788 384 784 c 256
 302 780 229 770 180 762 c 256
 114 751 51 796 40 862 c 256
EndSplineSet
EndChar

StartChar: zero
Encoding: 48 48 597
Width: 1141
GlyphClass: 2
Flags: HW
LayerCount: 2
Fore
SplineSet
283 486 m 256
 283 258 358 137 510 137 c 256
 760 137 859 455 859 843 c 256
 859 1065 738 1223 580 1223 c 256
 386 1223 283 847 283 486 c 256
37 486 m 256
 37 783 86 1469 580 1469 c 256
 932 1469 1103 1133 1103 843 c 256
 1103 489 1026 -107 510 -107 c 256
 150 -107 37 224 37 486 c 256
EndSplineSet
EndChar

